{"glyphs":{"0":{"ha":907,"x_min":58,"x_max":850,"o":"m 454 -19 q 285 18 358 -19 q 162 124 213 56 q 85 285 111 192 q 58 489 58 378 q 85 690 58 597 q 162 851 111 782 q 286 958 213 921 q 456 996 360 996 q 636 953 561 996 q 758 837 711 910 q 828 674 806 764 q 850 489 850 583 q 824 288 850 381 q 748 126 799 194 q 624 19 697 58 q 454 -19 550 -19 m 457 131 q 578 177 528 131 q 653 304 628 224 q 679 489 679 385 q 652 675 679 594 q 575 801 625 756 q 454 846 525 846 q 344 812 388 846 q 276 723 301 778 q 240 607 250 668 q 229 493 229 546 q 256 303 229 385 q 334 176 283 221 q 457 131 385 131 z "},"1":{"ha":488,"x_min":14,"x_max":353,"o":"m 186 0 l 186 825 l 14 825 l 14 982 l 353 982 l 353 0 l 186 0 z "},"2":{"ha":817,"x_min":32,"x_max":731,"o":"m 32 0 l 397 439 q 508 598 475 532 q 542 714 542 664 q 526 780 542 750 q 477 828 511 810 q 390 846 443 846 q 269 803 317 846 q 214 685 222 760 l 46 685 q 103 858 58 790 q 223 960 149 926 q 392 994 297 994 q 512 977 454 994 q 615 924 569 960 q 688 837 661 889 q 714 715 714 785 q 694 612 714 664 q 633 499 675 560 q 526 358 592 438 l 350 144 l 731 144 l 731 0 l 32 0 z "},"3":{"ha":861,"x_min":65,"x_max":776,"o":"m 425 -18 q 206 40 297 -18 q 65 194 115 99 l 192 292 q 285 171 231 213 q 421 129 340 129 q 556 178 503 129 q 608 310 608 226 q 581 411 608 372 q 504 469 553 450 q 390 488 456 488 q 358 487 378 488 q 320 485 339 486 q 286 481 301 483 l 264 568 l 533 846 l 126 846 l 126 989 l 742 989 l 742 856 l 485 603 q 633 562 567 597 q 738 464 699 526 q 776 310 776 401 q 731 144 776 218 q 608 26 686 69 q 425 -18 529 -18 z "},"4":{"ha":896,"x_min":22,"x_max":850,"o":"m 554 0 l 554 204 l 51 204 l 22 339 l 510 986 l 718 986 l 718 339 l 850 339 l 850 204 l 718 204 l 718 0 l 554 0 m 206 339 l 554 339 l 554 810 l 206 339 z "},"5":{"ha":814,"x_min":32,"x_max":738,"o":"m 371 -18 q 181 19 260 -18 q 32 121 103 56 l 131 235 q 242 156 185 185 q 368 128 300 128 q 517 178 464 128 q 571 311 571 229 q 543 404 571 365 q 467 465 515 443 q 358 488 419 488 q 285 478 319 488 q 217 454 250 469 l 101 513 l 140 976 l 701 976 l 696 833 l 275 833 l 251 594 q 326 615 290 607 q 403 624 361 624 q 569 588 493 624 q 692 483 646 551 q 738 315 738 414 q 692 139 738 214 q 563 23 646 64 q 371 -18 481 -18 z "},"6":{"ha":847,"x_min":61,"x_max":783,"o":"m 428 -19 q 240 22 322 -19 q 109 136 157 63 q 61 311 61 210 q 77 409 61 361 q 126 515 93 457 q 211 651 160 574 l 429 981 l 611 981 l 322 561 q 372 591 349 581 q 423 605 396 601 q 483 608 450 608 q 638 572 569 608 q 744 470 706 536 q 783 310 783 404 q 736 138 783 213 q 609 22 689 64 q 428 -19 529 -19 m 426 117 q 565 169 513 117 q 617 304 617 222 q 564 430 617 379 q 424 481 511 481 q 322 456 365 481 q 256 392 279 432 q 232 300 232 351 q 258 206 232 247 q 329 140 285 164 q 426 117 374 117 z "},"7":{"ha":733,"x_min":49,"x_max":742,"o":"m 99 0 l 560 832 l 49 832 l 49 976 l 742 976 l 742 839 l 285 0 l 99 0 z "},"8":{"ha":896,"x_min":86,"x_max":810,"o":"m 449 -17 q 263 20 344 -17 q 133 121 181 57 q 86 267 86 185 q 133 413 86 353 q 268 511 181 474 q 160 599 200 544 q 121 731 121 654 q 165 867 121 808 q 283 960 208 926 q 449 994 357 994 q 613 960 539 994 q 732 866 688 926 q 776 728 776 806 q 735 598 776 651 q 626 510 693 544 q 761 415 713 475 q 810 269 810 354 q 763 119 810 183 q 633 19 715 54 q 449 -17 551 -17 m 449 117 q 552 140 508 117 q 620 200 596 163 q 644 281 644 238 q 589 395 644 350 q 449 440 533 440 q 347 420 392 440 q 278 363 303 400 q 253 281 253 326 q 281 191 253 228 q 353 135 308 154 q 449 117 399 117 m 449 565 q 534 585 496 565 q 594 639 572 606 q 617 715 617 672 q 594 790 617 757 q 535 842 572 824 q 449 861 497 861 q 328 819 376 861 q 281 715 281 778 q 304 636 281 669 q 366 584 328 603 q 449 565 404 565 z "},"9":{"ha":843,"x_min":61,"x_max":782,"o":"m 233 -3 l 519 419 q 448 378 482 390 q 363 367 414 367 q 209 404 278 367 q 101 510 140 442 q 61 669 61 578 q 108 842 61 767 q 235 958 156 917 q 414 1000 315 1000 q 606 959 522 1000 q 735 843 689 918 q 782 668 782 768 q 746 515 782 588 q 654 358 710 443 l 415 -3 l 233 -3 m 419 499 q 520 523 476 499 q 588 589 564 547 q 613 679 613 631 q 585 774 613 733 q 514 839 558 815 q 418 863 469 863 q 319 838 361 863 q 253 773 276 814 q 229 679 229 732 q 253 588 229 628 q 319 523 276 547 q 419 499 363 499 z "},"A":{"ha":982,"x_min":-8,"x_max":990,"o":"m -8 0 l 415 979 l 565 979 l 990 0 l 807 0 l 707 240 l 272 240 l 169 0 l -8 0 m 329 381 l 651 381 l 489 781 l 329 381 z "},"Á":{"ha":982,"x_min":-8,"x_max":990,"o":"m -8 0 l 415 979 l 565 979 l 990 0 l 807 0 l 707 240 l 272 240 l 169 0 l -8 0 m 329 381 l 651 381 l 489 781 l 329 381 m 444 1071 l 576 1294 l 749 1250 l 561 1071 l 444 1071 z "},"Ă":{"ha":982,"x_min":-8,"x_max":990,"o":"m -8 0 l 415 979 l 565 979 l 990 0 l 807 0 l 707 240 l 272 240 l 169 0 l -8 0 m 329 381 l 651 381 l 489 781 l 329 381 m 489 1051 q 383 1078 429 1051 q 309 1154 338 1106 q 272 1267 281 1203 l 372 1267 q 416 1193 385 1218 q 493 1168 447 1168 q 567 1193 536 1168 q 610 1267 597 1218 l 707 1267 q 672 1154 701 1203 q 596 1078 643 1106 q 489 1051 549 1051 z "},"Ǎ":{"ha":982,"x_min":-8,"x_max":990,"o":"m -8 0 l 415 979 l 565 979 l 990 0 l 807 0 l 707 240 l 272 240 l 169 0 l -8 0 m 329 381 l 651 381 l 489 781 l 329 381 m 433 1082 l 263 1301 l 394 1301 l 493 1193 l 590 1301 l 719 1301 l 549 1082 l 433 1082 z "},"Â":{"ha":982,"x_min":-8,"x_max":990,"o":"m -8 0 l 415 979 l 565 979 l 990 0 l 807 0 l 707 240 l 272 240 l 169 0 l -8 0 m 329 381 l 651 381 l 489 781 l 329 381 m 271 1092 l 433 1308 l 547 1308 l 710 1092 l 589 1092 l 490 1196 l 392 1092 l 271 1092 z "},"Ä":{"ha":982,"x_min":-8,"x_max":990,"o":"m -8 0 l 415 979 l 565 979 l 990 0 l 807 0 l 707 240 l 272 240 l 169 0 l -8 0 m 329 381 l 651 381 l 489 781 l 329 381 m 351 1100 q 283 1126 310 1100 q 256 1194 256 1151 q 283 1262 256 1236 q 351 1288 310 1288 q 419 1262 390 1288 q 449 1194 449 1236 q 419 1126 449 1151 q 351 1100 390 1100 m 632 1100 q 566 1126 593 1100 q 539 1194 539 1151 q 565 1261 539 1235 q 632 1288 592 1288 q 701 1262 675 1288 q 728 1194 728 1236 q 701 1126 728 1151 q 632 1100 675 1100 z "},"À":{"ha":982,"x_min":-8,"x_max":990,"o":"m -8 0 l 415 979 l 565 979 l 990 0 l 807 0 l 707 240 l 272 240 l 169 0 l -8 0 m 329 381 l 651 381 l 489 781 l 329 381 m 424 1071 l 238 1250 l 407 1294 l 544 1071 l 424 1071 z "},"Ā":{"ha":982,"x_min":-8,"x_max":990,"o":"m -8 0 l 415 979 l 565 979 l 990 0 l 807 0 l 707 240 l 272 240 l 169 0 l -8 0 m 329 381 l 651 381 l 489 781 l 329 381 m 264 1064 l 264 1171 l 715 1171 l 715 1064 l 264 1064 z "},"Ą":{"ha":982,"x_min":-8,"x_max":1007,"o":"m -8 0 l 415 979 l 565 979 l 990 0 l 807 0 l 707 240 l 272 240 l 169 0 l -8 0 m 329 381 l 651 381 l 489 781 l 329 381 m 894 -293 q 779 -257 825 -293 q 733 -156 733 -221 q 757 -72 733 -111 q 807 0 781 -33 l 921 0 q 869 -79 885 -50 q 853 -136 853 -108 q 872 -181 853 -164 q 919 -199 890 -199 q 949 -195 933 -199 q 986 -183 964 -192 l 1006 -267 q 949 -287 976 -281 q 894 -293 921 -293 z "},"Å":{"ha":982,"x_min":-8,"x_max":990,"o":"m -8 0 l 415 979 l 565 979 l 990 0 l 807 0 l 707 240 l 272 240 l 169 0 l -8 0 m 329 381 l 651 381 l 489 781 l 329 381 m 488 942 q 415 961 449 942 q 360 1014 381 981 q 339 1089 339 1047 q 360 1165 339 1132 q 415 1218 381 1199 q 488 1238 449 1238 q 564 1217 529 1238 q 619 1164 599 1197 q 640 1088 640 1131 q 619 1013 640 1046 q 565 961 599 981 q 488 942 531 942 m 489 1026 q 537 1044 519 1026 q 554 1089 554 1063 q 536 1135 554 1118 q 489 1153 518 1153 q 444 1135 463 1153 q 425 1090 425 1117 q 444 1044 425 1061 q 489 1026 463 1026 z "},"Ǻ":{"ha":963,"x_min":-8,"x_max":972,"o":"m -8 0 l 396 876 q 349 926 367 896 q 332 993 332 956 q 353 1069 332 1036 q 408 1122 374 1103 q 482 1142 443 1142 q 559 1122 525 1142 q 614 1068 593 1101 q 635 992 635 1035 q 616 923 635 954 q 567 874 597 892 l 972 0 l 790 0 l 703 199 l 257 199 l 169 0 l -8 0 m 317 339 l 644 339 l 481 717 l 317 339 m 485 931 q 531 949 513 931 q 549 993 549 967 q 531 1038 549 1019 q 485 1057 513 1057 q 439 1039 457 1057 q 421 994 421 1021 q 439 949 421 967 q 485 931 457 931 m 435 1168 l 567 1392 l 739 1346 l 551 1168 l 435 1168 z "},"ǻ":{"ha":963,"x_min":-8,"x_max":972,"o":"m -8 0 l 396 876 q 349 926 367 896 q 332 993 332 956 q 353 1069 332 1036 q 408 1122 374 1103 q 482 1142 443 1142 q 559 1122 525 1142 q 614 1068 593 1101 q 635 992 635 1035 q 616 923 635 954 q 567 874 597 892 l 972 0 l 790 0 l 703 199 l 257 199 l 169 0 l -8 0 m 317 339 l 644 339 l 481 717 l 317 339 m 485 931 q 531 949 513 931 q 549 993 549 967 q 531 1038 549 1019 q 485 1057 513 1057 q 439 1039 457 1057 q 421 994 421 1021 q 439 949 421 967 q 485 931 457 931 m 435 1168 l 567 1392 l 739 1346 l 551 1168 l 435 1168 z "},"Ã":{"ha":982,"x_min":-8,"x_max":990,"o":"m -8 0 l 415 979 l 565 979 l 990 0 l 807 0 l 707 240 l 272 240 l 169 0 l -8 0 m 329 381 l 651 381 l 489 781 l 329 381 m 349 1065 l 251 1082 q 311 1202 272 1157 q 408 1247 350 1247 q 472 1235 442 1247 q 528 1210 501 1224 q 576 1197 554 1197 q 612 1212 599 1197 q 636 1260 625 1226 l 732 1240 q 676 1122 710 1167 q 586 1078 642 1078 q 527 1091 556 1078 q 472 1117 499 1104 q 419 1129 446 1129 q 378 1115 397 1129 q 349 1065 360 1100 z "},"Æ":{"ha":1324,"x_min":-8,"x_max":1328,"o":"m -8 0 l 533 976 l 1315 976 l 1315 829 l 796 829 l 796 565 l 1272 565 l 1272 425 l 796 425 l 796 147 l 1328 147 l 1328 0 l 626 0 l 626 240 l 308 240 l 169 0 l -8 0 m 378 381 l 626 381 l 626 828 l 378 381 z "},"Ǽ":{"ha":1324,"x_min":-8,"x_max":1328,"o":"m -8 0 l 533 976 l 1315 976 l 1315 829 l 796 829 l 796 565 l 1272 565 l 1272 425 l 796 425 l 796 147 l 1328 147 l 1328 0 l 626 0 l 626 240 l 308 240 l 169 0 l -8 0 m 378 381 l 626 381 l 626 828 l 378 381 m 732 1071 l 864 1294 l 1036 1250 l 849 1071 l 732 1071 z "},"B":{"ha":922,"x_min":100,"x_max":864,"o":"m 100 0 l 100 976 l 451 976 q 620 951 543 976 q 744 873 697 926 q 790 731 790 819 q 753 593 790 651 q 646 508 715 535 q 810 425 757 489 q 864 269 864 361 q 823 133 864 194 q 697 35 782 71 q 479 0 613 0 l 100 0 m 267 142 l 482 142 q 644 179 593 142 q 696 286 696 217 q 640 393 696 356 q 450 431 583 431 l 267 431 l 267 142 m 267 561 l 440 561 q 578 601 533 561 q 624 701 624 640 q 575 803 624 771 q 442 836 526 836 l 267 836 l 267 561 z "},"C":{"ha":961,"x_min":65,"x_max":888,"o":"m 567 -19 q 369 19 461 -19 q 210 126 278 57 q 103 287 142 194 q 65 488 65 379 q 103 687 65 594 q 209 849 140 779 q 370 957 278 918 q 572 996 463 996 q 741 969 669 996 q 871 897 813 942 l 871 718 q 750 808 821 772 q 575 843 679 843 q 399 795 475 843 q 280 667 322 747 q 238 489 238 586 q 280 310 238 390 q 399 182 322 229 q 575 135 475 135 q 694 153 642 135 q 794 204 747 172 q 888 276 842 236 l 888 97 q 744 12 821 43 q 567 -19 667 -19 z "},"Ć":{"ha":961,"x_min":65,"x_max":888,"o":"m 567 -19 q 369 19 461 -19 q 210 126 278 57 q 103 287 142 194 q 65 488 65 379 q 103 687 65 594 q 209 849 140 779 q 370 957 278 918 q 572 996 463 996 q 741 969 669 996 q 871 897 813 942 l 871 718 q 750 808 821 772 q 575 843 679 843 q 399 795 475 843 q 280 667 322 747 q 238 489 238 586 q 280 310 238 390 q 399 182 322 229 q 575 135 475 135 q 694 153 642 135 q 794 204 747 172 q 888 276 842 236 l 888 97 q 744 12 821 43 q 567 -19 667 -19 m 506 1071 l 638 1294 l 810 1250 l 622 1071 l 506 1071 z "},"Č":{"ha":961,"x_min":65,"x_max":888,"o":"m 567 -19 q 369 19 461 -19 q 210 126 278 57 q 103 287 142 194 q 65 488 65 379 q 103 687 65 594 q 209 849 140 779 q 370 957 278 918 q 572 996 463 996 q 741 969 669 996 q 871 897 813 942 l 871 718 q 750 808 821 772 q 575 843 679 843 q 399 795 475 843 q 280 667 322 747 q 238 489 238 586 q 280 310 238 390 q 399 182 322 229 q 575 135 475 135 q 694 153 642 135 q 794 204 747 172 q 888 276 842 236 l 888 97 q 744 12 821 43 q 567 -19 667 -19 m 522 1071 l 351 1290 l 483 1290 l 582 1182 l 679 1290 l 808 1290 l 638 1071 l 522 1071 z "},"Ç":{"ha":961,"x_min":65,"x_max":888,"o":"m 567 -19 q 369 19 461 -19 q 210 126 278 57 q 103 287 142 194 q 65 488 65 379 q 103 687 65 594 q 209 849 140 779 q 370 957 278 918 q 572 996 463 996 q 741 969 669 996 q 871 897 813 942 l 871 718 q 750 808 821 772 q 575 843 679 843 q 399 795 475 843 q 280 667 322 747 q 238 489 238 586 q 280 310 238 390 q 399 182 322 229 q 575 135 475 135 q 694 153 642 135 q 794 204 747 172 q 888 276 842 236 l 888 97 q 744 12 821 43 q 567 -19 667 -19 m 493 -318 q 428 -310 460 -318 q 367 -287 396 -303 l 389 -225 q 431 -237 411 -233 q 467 -242 451 -242 q 503 -236 483 -242 q 537 -218 522 -231 q 551 -185 551 -206 q 537 -155 551 -165 q 497 -144 522 -144 q 472 -148 483 -144 q 446 -157 461 -151 l 417 -133 l 506 0 l 597 0 l 539 -97 l 546 -97 q 599 -106 572 -97 q 644 -136 626 -115 q 663 -194 663 -157 q 635 -267 663 -240 q 569 -306 608 -294 q 493 -318 531 -318 z "},"Ĉ":{"ha":961,"x_min":65,"x_max":888,"o":"m 567 -19 q 369 19 461 -19 q 210 126 278 57 q 103 287 142 194 q 65 488 65 379 q 103 687 65 594 q 209 849 140 779 q 370 957 278 918 q 572 996 463 996 q 741 969 669 996 q 871 897 813 942 l 871 718 q 750 808 821 772 q 575 843 679 843 q 399 795 475 843 q 280 667 322 747 q 238 489 238 586 q 280 310 238 390 q 399 182 322 229 q 575 135 475 135 q 694 153 642 135 q 794 204 747 172 q 888 276 842 236 l 888 97 q 744 12 821 43 q 567 -19 667 -19 m 332 1092 l 494 1308 l 608 1308 l 771 1092 l 650 1092 l 551 1196 l 453 1092 l 332 1092 z "},"Ċ":{"ha":961,"x_min":65,"x_max":888,"o":"m 567 -19 q 369 19 461 -19 q 210 126 278 57 q 103 287 142 194 q 65 488 65 379 q 103 687 65 594 q 209 849 140 779 q 370 957 278 918 q 572 996 463 996 q 741 969 669 996 q 871 897 813 942 l 871 718 q 750 808 821 772 q 575 843 679 843 q 399 795 475 843 q 280 667 322 747 q 238 489 238 586 q 280 310 238 390 q 399 182 322 229 q 575 135 475 135 q 694 153 642 135 q 794 204 747 172 q 888 276 842 236 l 888 97 q 744 12 821 43 q 567 -19 667 -19 m 557 1072 q 483 1100 514 1072 q 453 1172 453 1128 q 483 1245 453 1218 q 557 1272 513 1272 q 633 1246 603 1272 q 663 1172 663 1219 q 633 1100 663 1128 q 557 1072 603 1072 z "},"D":{"ha":1026,"x_min":100,"x_max":963,"o":"m 100 0 l 100 976 l 431 976 q 708 916 589 976 q 895 746 828 856 q 963 490 963 636 q 897 238 963 349 q 712 63 832 126 q 428 0 592 0 l 100 0 m 269 150 l 428 150 q 622 192 542 150 q 744 311 703 235 q 786 488 786 388 q 765 613 786 553 q 704 722 744 674 q 606 797 664 769 q 472 825 547 825 l 269 825 l 269 150 z "},"Ď":{"ha":1026,"x_min":100,"x_max":963,"o":"m 100 0 l 100 976 l 431 976 q 708 916 589 976 q 895 746 828 856 q 963 490 963 636 q 897 238 963 349 q 712 63 832 126 q 428 0 592 0 l 100 0 m 269 150 l 428 150 q 622 192 542 150 q 744 311 703 235 q 786 488 786 388 q 765 613 786 553 q 704 722 744 674 q 606 797 664 769 q 472 825 547 825 l 269 825 l 269 150 m 417 1071 l 246 1290 l 378 1290 l 476 1182 l 574 1290 l 703 1290 l 532 1071 l 417 1071 z "},"Đ":{"ha":1068,"x_min":18,"x_max":1001,"o":"m 142 0 l 142 976 l 471 976 q 747 916 628 976 q 934 746 867 856 q 1001 490 1001 636 q 936 238 1001 349 q 751 63 871 126 q 468 0 632 0 l 142 0 m 18 410 l 18 558 l 421 558 l 421 410 l 18 410 m 310 150 l 467 150 q 661 192 581 150 q 784 311 742 235 q 826 488 826 388 q 806 613 826 553 q 744 722 785 674 q 645 797 703 769 q 511 825 588 825 l 310 825 l 310 150 z "},"Ð":{"ha":1068,"x_min":18,"x_max":1001,"o":"m 142 0 l 142 976 l 471 976 q 747 916 628 976 q 934 746 867 856 q 1001 490 1001 636 q 936 238 1001 349 q 751 63 871 126 q 468 0 632 0 l 142 0 m 18 410 l 18 558 l 421 558 l 421 410 l 18 410 m 310 150 l 467 150 q 661 192 581 150 q 784 311 742 235 q 826 488 826 388 q 806 613 826 553 q 744 722 785 674 q 645 797 703 769 q 511 825 588 825 l 310 825 l 310 150 z "},"E":{"ha":885,"x_min":100,"x_max":800,"o":"m 100 0 l 100 976 l 788 976 l 788 829 l 269 829 l 269 565 l 744 565 l 744 425 l 269 425 l 269 147 l 800 147 l 800 0 l 100 0 z "},"É":{"ha":885,"x_min":100,"x_max":800,"o":"m 100 0 l 100 976 l 788 976 l 788 829 l 269 829 l 269 565 l 744 565 l 744 425 l 269 425 l 269 147 l 800 147 l 800 0 l 100 0 m 363 1071 l 494 1294 l 667 1250 l 479 1071 l 363 1071 z "},"Ĕ":{"ha":885,"x_min":100,"x_max":800,"o":"m 100 0 l 100 976 l 788 976 l 788 829 l 269 829 l 269 565 l 744 565 l 744 425 l 269 425 l 269 147 l 800 147 l 800 0 l 100 0 m 463 1051 q 357 1078 403 1051 q 283 1154 311 1106 q 246 1267 254 1203 l 346 1267 q 390 1193 358 1218 q 467 1168 421 1168 q 540 1193 510 1168 q 583 1267 571 1218 l 681 1267 q 646 1154 675 1203 q 569 1078 617 1106 q 463 1051 522 1051 z "},"Ě":{"ha":885,"x_min":100,"x_max":800,"o":"m 100 0 l 100 976 l 788 976 l 788 829 l 269 829 l 269 565 l 744 565 l 744 425 l 269 425 l 269 147 l 800 147 l 800 0 l 100 0 m 404 1071 l 233 1290 l 365 1290 l 464 1182 l 561 1290 l 690 1290 l 519 1071 l 404 1071 z "},"Ê":{"ha":885,"x_min":100,"x_max":800,"o":"m 100 0 l 100 976 l 788 976 l 788 829 l 269 829 l 269 565 l 744 565 l 744 425 l 269 425 l 269 147 l 800 147 l 800 0 l 100 0 m 229 1092 l 392 1308 l 506 1308 l 668 1092 l 547 1092 l 449 1196 l 350 1092 l 229 1092 z "},"Ë":{"ha":885,"x_min":100,"x_max":800,"o":"m 100 0 l 100 976 l 788 976 l 788 829 l 269 829 l 269 565 l 744 565 l 744 425 l 269 425 l 269 147 l 800 147 l 800 0 l 100 0 m 306 1100 q 237 1126 264 1100 q 210 1194 210 1151 q 237 1262 210 1236 q 306 1288 264 1288 q 374 1262 344 1288 q 403 1194 403 1236 q 374 1126 403 1151 q 306 1100 344 1100 m 586 1100 q 520 1126 547 1100 q 493 1194 493 1151 q 519 1261 493 1235 q 586 1288 546 1288 q 656 1262 629 1288 q 682 1194 682 1236 q 656 1126 682 1151 q 586 1100 629 1100 z "},"Ė":{"ha":885,"x_min":100,"x_max":800,"o":"m 100 0 l 100 976 l 788 976 l 788 829 l 269 829 l 269 565 l 744 565 l 744 425 l 269 425 l 269 147 l 800 147 l 800 0 l 100 0 m 461 1072 q 388 1100 418 1072 q 357 1172 357 1128 q 387 1245 357 1218 q 461 1272 417 1272 q 537 1246 507 1272 q 567 1172 567 1219 q 537 1100 567 1128 q 461 1072 507 1072 z "},"È":{"ha":885,"x_min":100,"x_max":800,"o":"m 100 0 l 100 976 l 788 976 l 788 829 l 269 829 l 269 565 l 744 565 l 744 425 l 269 425 l 269 147 l 800 147 l 800 0 l 100 0 m 424 1071 l 238 1250 l 407 1294 l 544 1071 l 424 1071 z "},"Ē":{"ha":885,"x_min":100,"x_max":800,"o":"m 100 0 l 100 976 l 788 976 l 788 829 l 269 829 l 269 565 l 744 565 l 744 425 l 269 425 l 269 147 l 800 147 l 800 0 l 100 0 m 222 1064 l 222 1171 l 674 1171 l 674 1064 l 222 1064 z "},"Ę":{"ha":885,"x_min":100,"x_max":886,"o":"m 100 0 l 100 976 l 788 976 l 788 829 l 269 829 l 269 565 l 744 565 l 744 425 l 269 425 l 269 147 l 800 147 l 800 0 l 100 0 m 774 -293 q 658 -257 704 -293 q 613 -156 613 -221 q 636 -72 613 -111 q 686 0 660 -33 l 800 0 q 748 -79 764 -50 q 732 -136 732 -108 q 751 -181 732 -164 q 799 -199 769 -199 q 828 -195 813 -199 q 865 -183 843 -192 l 885 -267 q 828 -287 856 -281 q 774 -293 800 -293 z "},"F":{"ha":851,"x_min":100,"x_max":783,"o":"m 100 -3 l 100 976 l 783 976 l 783 828 l 269 828 l 269 551 l 739 551 l 739 406 l 269 406 l 269 -3 l 100 -3 z "},"G":{"ha":1121,"x_min":65,"x_max":1056,"o":"m 572 -22 q 371 17 464 -22 q 210 126 278 57 q 103 288 142 196 q 65 489 65 381 q 106 688 65 596 q 218 849 146 779 q 386 957 290 918 q 593 996 482 996 q 749 977 671 996 q 893 914 826 958 l 893 732 q 767 815 840 783 q 604 846 694 846 q 461 818 528 846 q 344 740 394 790 q 265 626 293 690 q 236 488 236 561 q 282 304 236 386 q 406 175 328 222 q 582 128 485 128 q 740 163 668 128 q 854 264 811 199 q 897 421 897 329 l 638 421 l 638 560 l 1056 560 l 1056 515 q 1023 292 1056 392 q 927 122 990 192 q 775 15 864 51 q 572 -22 686 -22 z "},"Ğ":{"ha":1121,"x_min":65,"x_max":1056,"o":"m 572 -22 q 371 17 464 -22 q 210 126 278 57 q 103 288 142 196 q 65 489 65 381 q 106 688 65 596 q 218 849 146 779 q 386 957 290 918 q 593 996 482 996 q 749 977 671 996 q 893 914 826 958 l 893 732 q 767 815 840 783 q 604 846 694 846 q 461 818 528 846 q 344 740 394 790 q 265 626 293 690 q 236 488 236 561 q 282 304 236 386 q 406 175 328 222 q 582 128 485 128 q 740 163 668 128 q 854 264 811 199 q 897 421 897 329 l 638 421 l 638 560 l 1056 560 l 1056 515 q 1023 292 1056 392 q 927 122 990 192 q 775 15 864 51 q 572 -22 686 -22 m 594 1051 q 489 1078 535 1051 q 415 1154 443 1106 q 378 1267 386 1203 l 478 1267 q 522 1193 490 1218 q 599 1168 553 1168 q 672 1193 642 1168 q 715 1267 703 1218 l 813 1267 q 778 1154 807 1203 q 701 1078 749 1106 q 594 1051 654 1051 z "},"Ĝ":{"ha":1121,"x_min":65,"x_max":1056,"o":"m 572 -22 q 371 17 464 -22 q 210 126 278 57 q 103 288 142 196 q 65 489 65 381 q 106 688 65 596 q 218 849 146 779 q 386 957 290 918 q 593 996 482 996 q 749 977 671 996 q 893 914 826 958 l 893 732 q 767 815 840 783 q 604 846 694 846 q 461 818 528 846 q 344 740 394 790 q 265 626 293 690 q 236 488 236 561 q 282 304 236 386 q 406 175 328 222 q 582 128 485 128 q 740 163 668 128 q 854 264 811 199 q 897 421 897 329 l 638 421 l 638 560 l 1056 560 l 1056 515 q 1023 292 1056 392 q 927 122 990 192 q 775 15 864 51 q 572 -22 686 -22 m 367 1092 l 529 1308 l 643 1308 l 806 1092 l 685 1092 l 586 1196 l 488 1092 l 367 1092 z "},"Ģ":{"ha":1121,"x_min":65,"x_max":1056,"o":"m 572 -22 q 371 17 464 -22 q 210 126 278 57 q 103 288 142 196 q 65 489 65 381 q 106 688 65 596 q 218 849 146 779 q 386 957 290 918 q 593 996 482 996 q 749 977 671 996 q 893 914 826 958 l 893 732 q 767 815 840 783 q 604 846 694 846 q 461 818 528 846 q 344 740 394 790 q 265 626 293 690 q 236 488 236 561 q 282 304 236 386 q 406 175 328 222 q 582 128 485 128 q 740 163 668 128 q 854 264 811 199 q 897 421 897 329 l 638 421 l 638 560 l 1056 560 l 1056 515 q 1023 292 1056 392 q 927 122 990 192 q 775 15 864 51 q 572 -22 686 -22 m 451 -340 l 497 -76 l 632 -76 l 557 -340 l 451 -340 z "},"Ġ":{"ha":1121,"x_min":65,"x_max":1056,"o":"m 572 -22 q 371 17 464 -22 q 210 126 278 57 q 103 288 142 196 q 65 489 65 381 q 106 688 65 596 q 218 849 146 779 q 386 957 290 918 q 593 996 482 996 q 749 977 671 996 q 893 914 826 958 l 893 732 q 767 815 840 783 q 604 846 694 846 q 461 818 528 846 q 344 740 394 790 q 265 626 293 690 q 236 488 236 561 q 282 304 236 386 q 406 175 328 222 q 582 128 485 128 q 740 163 668 128 q 854 264 811 199 q 897 421 897 329 l 638 421 l 638 560 l 1056 560 l 1056 515 q 1023 292 1056 392 q 927 122 990 192 q 775 15 864 51 q 572 -22 686 -22 m 560 1083 q 486 1111 517 1083 q 456 1183 456 1139 q 485 1256 456 1229 q 560 1283 515 1283 q 635 1257 606 1283 q 665 1183 665 1231 q 635 1111 665 1139 q 560 1083 606 1083 z "},"H":{"ha":1006,"x_min":100,"x_max":906,"o":"m 100 0 l 100 978 l 269 978 l 269 572 l 738 572 l 738 978 l 906 978 l 906 0 l 738 0 l 738 419 l 269 419 l 269 0 l 100 0 z "},"Ħ":{"ha":1043,"x_min":51,"x_max":994,"o":"m 119 0 l 119 978 l 288 978 l 288 572 l 757 572 l 757 978 l 924 978 l 924 0 l 757 0 l 757 419 l 288 419 l 288 0 l 119 0 m 994 732 l 51 732 l 51 839 l 994 839 l 994 732 z "},"Ĥ":{"ha":1006,"x_min":100,"x_max":906,"o":"m 100 0 l 100 978 l 269 978 l 269 572 l 738 572 l 738 978 l 906 978 l 906 0 l 738 0 l 738 419 l 269 419 l 269 0 l 100 0 m 286 1092 l 449 1308 l 563 1308 l 725 1092 l 604 1092 l 506 1196 l 407 1092 l 286 1092 z "},"I":{"ha":368,"x_min":100,"x_max":269,"o":"m 100 0 l 100 976 l 269 976 l 269 0 l 100 0 z "},"Ĳ":{"ha":929,"x_min":100,"x_max":838,"o":"m 100 0 l 100 976 l 269 976 l 269 0 l 100 0 m 540 -15 q 451 -1 494 -15 q 368 39 407 14 l 368 203 q 447 156 406 176 q 536 135 488 135 q 633 174 599 135 q 668 310 668 214 l 668 976 l 838 976 l 838 313 q 803 135 838 208 q 701 23 768 61 q 540 -15 635 -15 z "},"Í":{"ha":368,"x_min":100,"x_max":422,"o":"m 100 0 l 100 976 l 269 976 l 269 0 l 100 0 m 119 1071 l 251 1294 l 424 1250 l 236 1071 l 119 1071 z "},"Ĭ":{"ha":368,"x_min":-33,"x_max":401,"o":"m 100 0 l 100 976 l 269 976 l 269 0 l 100 0 m 183 1054 q 78 1081 124 1054 q 3 1157 32 1108 q -33 1269 -25 1206 l 67 1269 q 110 1196 79 1221 q 188 1171 142 1171 q 261 1196 231 1171 q 304 1269 292 1221 l 401 1269 q 367 1157 396 1206 q 290 1081 338 1108 q 183 1054 243 1054 z "},"Î":{"ha":368,"x_min":-31,"x_max":408,"o":"m 100 0 l 100 976 l 269 976 l 269 0 l 100 0 m -31 1092 l 132 1308 l 246 1308 l 408 1092 l 288 1092 l 189 1196 l 90 1092 l -31 1092 z "},"Ï":{"ha":368,"x_min":-44,"x_max":426,"o":"m 100 0 l 100 976 l 269 976 l 269 0 l 100 0 m 50 1100 q -19 1126 8 1100 q -46 1194 -46 1151 q -19 1262 -46 1236 q 50 1288 8 1288 q 118 1262 89 1288 q 147 1194 147 1236 q 118 1126 147 1151 q 50 1100 89 1100 m 331 1100 q 265 1126 292 1100 q 238 1194 238 1151 q 264 1261 238 1235 q 331 1288 290 1288 q 400 1262 374 1288 q 426 1194 426 1236 q 400 1126 426 1151 q 331 1100 374 1100 z "},"İ":{"ha":368,"x_min":81,"x_max":292,"o":"m 100 0 l 100 976 l 269 976 l 269 0 l 100 0 m 185 1072 q 111 1100 142 1072 q 81 1172 81 1128 q 110 1245 81 1218 q 185 1272 140 1272 q 260 1246 231 1272 q 290 1172 290 1219 q 260 1100 290 1128 q 185 1072 231 1072 z "},"Ì":{"ha":368,"x_min":-62,"x_max":269,"o":"m 100 0 l 100 976 l 269 976 l 269 0 l 100 0 m 124 1072 l -62 1251 l 107 1296 l 244 1072 l 124 1072 z "},"Ī":{"ha":368,"x_min":-42,"x_max":408,"o":"m 100 0 l 100 976 l 269 976 l 269 0 l 100 0 m -42 1064 l -42 1171 l 410 1171 l 410 1064 l -42 1064 z "},"Į":{"ha":368,"x_min":81,"x_max":354,"o":"m 100 0 l 100 976 l 269 976 l 269 0 l 100 0 m 243 -293 q 128 -257 174 -293 q 82 -156 82 -221 q 106 -72 82 -111 q 156 0 129 -33 l 269 0 q 217 -79 233 -50 q 201 -136 201 -108 q 220 -181 201 -164 q 268 -199 239 -199 q 297 -195 282 -199 q 335 -183 313 -192 l 354 -267 q 297 -287 325 -281 q 243 -293 269 -293 z "},"Ĩ":{"ha":368,"x_min":-58,"x_max":422,"o":"m 100 0 l 100 976 l 269 976 l 269 0 l 100 0 m 39 1065 l -58 1082 q 1 1202 -37 1157 q 99 1247 40 1247 q 162 1235 132 1247 q 218 1210 192 1224 q 267 1197 244 1197 q 302 1212 289 1197 q 326 1260 315 1226 l 422 1240 q 366 1122 400 1167 q 276 1078 332 1078 q 217 1091 246 1078 q 163 1117 189 1104 q 110 1129 136 1129 q 69 1115 88 1129 q 39 1065 50 1100 z "},"J":{"ha":561,"x_min":0,"x_max":469,"o":"m 172 -15 q 83 -1 126 -15 q 0 39 39 14 l 0 203 q 78 156 38 176 q 168 135 119 135 q 265 174 231 135 q 300 310 300 214 l 300 976 l 469 976 l 469 313 q 435 135 469 208 q 333 23 400 61 q 172 -15 267 -15 z "},"Ĵ":{"ha":561,"x_min":0,"x_max":610,"o":"m 172 -15 q 83 -1 126 -15 q 0 39 39 14 l 0 203 q 78 156 38 176 q 168 135 119 135 q 265 174 231 135 q 300 310 300 214 l 300 976 l 469 976 l 469 313 q 435 135 469 208 q 333 23 400 61 q 172 -15 267 -15 m 171 1092 l 333 1308 l 447 1308 l 610 1092 l 489 1092 l 390 1196 l 292 1092 l 171 1092 z "},"K":{"ha":860,"x_min":100,"x_max":864,"o":"m 100 0 l 100 976 l 269 976 l 269 571 l 626 976 l 835 976 l 431 532 l 864 0 l 657 0 l 269 475 l 269 0 l 100 0 z "},"Ķ":{"ha":860,"x_min":100,"x_max":864,"o":"m 100 0 l 100 976 l 269 976 l 269 571 l 626 976 l 835 976 l 431 532 l 864 0 l 657 0 l 269 475 l 269 0 l 100 0 m 318 -346 l 364 -82 l 499 -82 l 424 -346 l 318 -346 z "},"L":{"ha":768,"x_min":100,"x_max":746,"o":"m 100 0 l 100 976 l 269 976 l 269 150 l 746 150 l 746 0 l 100 0 z "},"Ĺ":{"ha":763,"x_min":94,"x_max":740,"o":"m 94 0 l 94 976 l 264 976 l 264 150 l 740 150 l 740 0 l 94 0 m 128 1071 l 260 1294 l 432 1250 l 244 1071 l 128 1071 z "},"Ľ":{"ha":757,"x_min":100,"x_max":746,"o":"m 100 0 l 100 976 l 269 976 l 269 150 l 746 150 l 746 0 l 100 0 m 490 819 l 536 1083 l 671 1083 l 594 819 l 490 819 z "},"Ļ":{"ha":782,"x_min":104,"x_max":750,"o":"m 103 0 l 103 976 l 272 976 l 272 150 l 749 150 l 749 0 l 103 0 m 303 -346 l 349 -82 l 483 -82 l 408 -346 l 303 -346 z "},"Ŀ":{"ha":756,"x_min":100,"x_max":746,"o":"m 100 0 l 100 976 l 269 976 l 269 150 l 746 150 l 746 0 l 100 0 m 571 406 q 497 433 528 406 q 467 506 467 461 q 497 578 467 551 q 571 606 526 606 q 647 579 617 606 q 676 506 676 553 q 647 433 676 461 q 571 406 617 406 z "},"Ł":{"ha":765,"x_min":7,"x_max":747,"o":"m 7 264 l 7 410 l 436 685 l 436 539 l 7 264 m 101 0 l 101 976 l 271 976 l 271 150 l 747 150 l 747 0 l 101 0 z "},"M":{"ha":1075,"x_min":33,"x_max":1039,"o":"m 33 0 l 33 972 l 206 972 l 538 457 l 869 972 l 1039 972 l 1039 0 l 872 0 l 872 710 l 536 201 l 200 708 l 200 0 l 33 0 z "},"N":{"ha":1050,"x_min":100,"x_max":950,"o":"m 100 0 l 100 972 l 263 972 l 785 269 l 785 976 l 950 976 l 950 0 l 793 0 l 267 713 l 267 0 l 100 0 z "},"Ń":{"ha":1050,"x_min":100,"x_max":950,"o":"m 100 0 l 100 972 l 263 972 l 785 269 l 785 976 l 950 976 l 950 0 l 793 0 l 267 713 l 267 0 l 100 0 m 439 1071 l 571 1294 l 743 1250 l 556 1071 l 439 1071 z "},"Ň":{"ha":1050,"x_min":100,"x_max":950,"o":"m 100 0 l 100 972 l 263 972 l 785 269 l 785 976 l 950 976 l 950 0 l 793 0 l 267 713 l 267 0 l 100 0 m 472 1071 l 301 1290 l 433 1290 l 532 1182 l 629 1290 l 758 1290 l 588 1071 l 472 1071 z "},"Ņ":{"ha":1057,"x_min":104,"x_max":953,"o":"m 103 0 l 103 972 l 265 972 l 788 269 l 788 976 l 953 976 l 953 0 l 796 0 l 269 713 l 269 0 l 103 0 m 410 -346 l 456 -82 l 590 -82 l 515 -346 l 410 -346 z "},"Ñ":{"ha":1050,"x_min":100,"x_max":950,"o":"m 100 0 l 100 972 l 263 972 l 785 269 l 785 976 l 950 976 l 950 0 l 793 0 l 267 713 l 267 0 l 100 0 m 394 1065 l 297 1082 q 357 1202 318 1157 q 454 1247 396 1247 q 517 1235 488 1247 q 574 1210 547 1224 q 622 1197 600 1197 q 658 1212 644 1197 q 682 1260 671 1226 l 778 1240 q 722 1122 756 1167 q 632 1078 688 1078 q 573 1091 601 1078 q 518 1117 544 1104 q 465 1129 492 1129 q 424 1115 443 1129 q 394 1065 406 1100 z "},"Ŋ":{"ha":1050,"x_min":100,"x_max":950,"o":"m 756 -256 q 710 -253 729 -256 q 672 -246 690 -250 l 672 -121 q 697 -127 685 -125 q 721 -129 710 -129 q 773 -106 758 -129 q 788 -46 788 -83 l 788 8 l 267 713 l 267 0 l 100 0 l 100 972 l 263 972 l 785 269 l 785 976 l 950 976 l 950 -24 q 933 -147 950 -94 q 873 -227 915 -199 q 756 -256 831 -256 z "},"O":{"ha":1154,"x_min":65,"x_max":1090,"o":"m 576 -19 q 372 19 465 -19 q 210 128 279 58 q 103 290 140 197 q 65 488 65 382 q 103 685 65 593 q 210 847 142 776 q 374 956 279 917 q 579 996 468 996 q 783 956 690 996 q 946 847 876 917 q 1053 687 1015 778 q 1090 492 1090 596 q 1052 291 1090 383 q 944 129 1014 199 q 780 20 874 60 q 576 -19 686 -19 m 578 132 q 754 180 678 132 q 874 309 831 228 q 918 486 918 390 q 894 623 918 558 q 824 737 869 688 q 716 815 778 786 q 578 844 654 844 q 401 797 478 844 q 280 669 324 749 q 236 492 236 589 q 280 310 236 392 q 401 180 324 228 q 578 132 478 132 z "},"Ó":{"ha":1154,"x_min":65,"x_max":1090,"o":"m 576 -19 q 372 19 465 -19 q 210 128 279 58 q 103 290 140 197 q 65 488 65 382 q 103 685 65 593 q 210 847 142 776 q 374 956 279 917 q 579 996 468 996 q 783 956 690 996 q 946 847 876 917 q 1053 687 1015 778 q 1090 492 1090 596 q 1052 291 1090 383 q 944 129 1014 199 q 780 20 874 60 q 576 -19 686 -19 m 578 132 q 754 180 678 132 q 874 309 831 228 q 918 486 918 390 q 894 623 918 558 q 824 737 869 688 q 716 815 778 786 q 578 844 654 844 q 401 797 478 844 q 280 669 324 749 q 236 492 236 589 q 280 310 236 392 q 401 180 324 228 q 578 132 478 132 m 549 1071 l 681 1294 l 853 1250 l 665 1071 l 549 1071 z "},"Ŏ":{"ha":1154,"x_min":65,"x_max":1090,"o":"m 576 -19 q 372 19 465 -19 q 210 128 279 58 q 103 290 140 197 q 65 488 65 382 q 103 685 65 593 q 210 847 142 776 q 374 956 279 917 q 579 996 468 996 q 783 956 690 996 q 946 847 876 917 q 1053 687 1015 778 q 1090 492 1090 596 q 1052 291 1090 383 q 944 129 1014 199 q 780 20 874 60 q 576 -19 686 -19 m 578 132 q 754 180 678 132 q 874 309 831 228 q 918 486 918 390 q 894 623 918 558 q 824 737 869 688 q 716 815 778 786 q 578 844 654 844 q 401 797 478 844 q 280 669 324 749 q 236 492 236 589 q 280 310 236 392 q 401 180 324 228 q 578 132 478 132 m 572 1051 q 467 1078 513 1051 q 392 1154 421 1106 q 356 1267 364 1203 l 456 1267 q 499 1193 468 1218 q 576 1168 531 1168 q 650 1193 619 1168 q 693 1267 681 1218 l 790 1267 q 756 1154 785 1203 q 679 1078 726 1106 q 572 1051 632 1051 z "},"Ô":{"ha":1154,"x_min":65,"x_max":1090,"o":"m 576 -19 q 372 19 465 -19 q 210 128 279 58 q 103 290 140 197 q 65 488 65 382 q 103 685 65 593 q 210 847 142 776 q 374 956 279 917 q 579 996 468 996 q 783 956 690 996 q 946 847 876 917 q 1053 687 1015 778 q 1090 492 1090 596 q 1052 291 1090 383 q 944 129 1014 199 q 780 20 874 60 q 576 -19 686 -19 m 578 132 q 754 180 678 132 q 874 309 831 228 q 918 486 918 390 q 894 623 918 558 q 824 737 869 688 q 716 815 778 786 q 578 844 654 844 q 401 797 478 844 q 280 669 324 749 q 236 492 236 589 q 280 310 236 392 q 401 180 324 228 q 578 132 478 132 m 358 1092 l 521 1308 l 635 1308 l 797 1092 l 676 1092 l 578 1196 l 479 1092 l 358 1092 z "},"Ö":{"ha":1154,"x_min":65,"x_max":1090,"o":"m 576 -19 q 372 19 465 -19 q 210 128 279 58 q 103 290 140 197 q 65 488 65 382 q 103 685 65 593 q 210 847 142 776 q 374 956 279 917 q 579 996 468 996 q 783 956 690 996 q 946 847 876 917 q 1053 687 1015 778 q 1090 492 1090 596 q 1052 291 1090 383 q 944 129 1014 199 q 780 20 874 60 q 576 -19 686 -19 m 578 132 q 754 180 678 132 q 874 309 831 228 q 918 486 918 390 q 894 623 918 558 q 824 737 869 688 q 716 815 778 786 q 578 844 654 844 q 401 797 478 844 q 280 669 324 749 q 236 492 236 589 q 280 310 236 392 q 401 180 324 228 q 578 132 478 132 m 442 1100 q 373 1126 400 1100 q 346 1194 346 1151 q 373 1262 346 1236 q 442 1288 400 1288 q 510 1262 481 1288 q 539 1194 539 1236 q 510 1126 539 1151 q 442 1100 481 1100 m 722 1100 q 656 1126 683 1100 q 629 1194 629 1151 q 656 1261 629 1235 q 722 1288 682 1288 q 792 1262 765 1288 q 818 1194 818 1236 q 792 1126 818 1151 q 722 1100 765 1100 z "},"Ò":{"ha":1154,"x_min":65,"x_max":1090,"o":"m 576 -19 q 372 19 465 -19 q 210 128 279 58 q 103 290 140 197 q 65 488 65 382 q 103 685 65 593 q 210 847 142 776 q 374 956 279 917 q 579 996 468 996 q 783 956 690 996 q 946 847 876 917 q 1053 687 1015 778 q 1090 492 1090 596 q 1052 291 1090 383 q 944 129 1014 199 q 780 20 874 60 q 576 -19 686 -19 m 578 132 q 754 180 678 132 q 874 309 831 228 q 918 486 918 390 q 894 623 918 558 q 824 737 869 688 q 716 815 778 786 q 578 844 654 844 q 401 797 478 844 q 280 669 324 749 q 236 492 236 589 q 280 310 236 392 q 401 180 324 228 q 578 132 478 132 m 514 1071 l 328 1250 l 497 1294 l 635 1071 l 514 1071 z "},"Ő":{"ha":1154,"x_min":65,"x_max":1090,"o":"m 576 -19 q 372 19 465 -19 q 210 128 279 58 q 103 290 140 197 q 65 488 65 382 q 103 685 65 593 q 210 847 142 776 q 374 956 279 917 q 579 996 468 996 q 783 956 690 996 q 946 847 876 917 q 1053 687 1015 778 q 1090 492 1090 596 q 1052 291 1090 383 q 944 129 1014 199 q 780 20 874 60 q 576 -19 686 -19 m 578 132 q 754 180 678 132 q 874 309 831 228 q 918 486 918 390 q 894 623 918 558 q 824 737 869 688 q 716 815 778 786 q 578 844 654 844 q 401 797 478 844 q 280 669 324 749 q 236 492 236 589 q 280 310 236 392 q 401 180 324 228 q 578 132 478 132 m 639 1068 l 793 1297 l 947 1267 l 758 1068 l 639 1068 m 390 1068 l 544 1297 l 699 1269 l 510 1068 l 390 1068 z "},"Ō":{"ha":1154,"x_min":65,"x_max":1090,"o":"m 576 -19 q 372 19 465 -19 q 210 128 279 58 q 103 290 140 197 q 65 488 65 382 q 103 685 65 593 q 210 847 142 776 q 374 956 279 917 q 579 996 468 996 q 783 956 690 996 q 946 847 876 917 q 1053 687 1015 778 q 1090 492 1090 596 q 1052 291 1090 383 q 944 129 1014 199 q 780 20 874 60 q 576 -19 686 -19 m 578 132 q 754 180 678 132 q 874 309 831 228 q 918 486 918 390 q 894 623 918 558 q 824 737 869 688 q 716 815 778 786 q 578 844 654 844 q 401 797 478 844 q 280 669 324 749 q 236 492 236 589 q 280 310 236 392 q 401 180 324 228 q 578 132 478 132 m 353 1064 l 353 1171 l 804 1171 l 804 1064 l 353 1064 z "},"Ø":{"ha":1150,"x_min":63,"x_max":1089,"o":"m 217 -64 l 122 4 l 217 125 q 102 286 142 194 q 63 488 63 378 q 101 685 63 593 q 208 847 139 776 q 372 956 278 917 q 576 996 465 996 q 719 974 654 996 q 840 913 785 953 l 935 1033 l 1032 965 l 936 849 q 1049 689 1010 781 q 1089 492 1089 597 q 1050 294 1089 386 q 942 131 1011 201 q 781 20 874 60 q 575 -19 688 -19 q 433 2 499 -19 q 314 63 368 24 l 217 -64 m 310 261 l 749 783 q 663 828 708 814 q 565 843 617 843 q 394 795 469 843 q 277 667 319 747 q 235 492 235 586 q 254 367 235 425 q 310 261 274 308 m 588 135 q 760 183 686 135 q 874 310 833 231 q 915 486 915 390 q 897 607 915 550 q 843 711 878 664 l 404 193 q 491 149 447 163 q 588 135 535 135 z "},"Ǿ":{"ha":1150,"x_min":63,"x_max":1089,"o":"m 217 -64 l 122 4 l 217 125 q 102 286 142 194 q 63 488 63 378 q 101 685 63 593 q 208 847 139 776 q 372 956 278 917 q 576 996 465 996 q 719 974 654 996 q 840 913 785 953 l 935 1033 l 1032 965 l 936 849 q 1049 689 1010 781 q 1089 492 1089 597 q 1050 294 1089 386 q 942 131 1011 201 q 781 20 874 60 q 575 -19 688 -19 q 433 2 499 -19 q 314 63 368 24 l 217 -64 m 310 261 l 749 783 q 663 828 708 814 q 565 843 617 843 q 394 795 469 843 q 277 667 319 747 q 235 492 235 586 q 254 367 235 425 q 310 261 274 308 m 588 135 q 760 183 686 135 q 874 310 833 231 q 915 486 915 390 q 897 607 915 550 q 843 711 878 664 l 404 193 q 491 149 447 163 q 588 135 535 135 m 544 1071 l 676 1294 l 849 1250 l 661 1071 l 544 1071 z "},"Õ":{"ha":1154,"x_min":65,"x_max":1090,"o":"m 576 -19 q 372 19 465 -19 q 210 128 279 58 q 103 290 140 197 q 65 488 65 382 q 103 685 65 593 q 210 847 142 776 q 374 956 279 917 q 579 996 468 996 q 783 956 690 996 q 946 847 876 917 q 1053 687 1015 778 q 1090 492 1090 596 q 1052 291 1090 383 q 944 129 1014 199 q 780 20 874 60 q 576 -19 686 -19 m 578 132 q 754 180 678 132 q 874 309 831 228 q 918 486 918 390 q 894 623 918 558 q 824 737 869 688 q 716 815 778 786 q 578 844 654 844 q 401 797 478 844 q 280 669 324 749 q 236 492 236 589 q 280 310 236 392 q 401 180 324 228 q 578 132 478 132 m 435 1065 l 338 1082 q 397 1202 358 1157 q 494 1247 436 1247 q 558 1235 528 1247 q 614 1210 588 1224 q 663 1197 640 1197 q 698 1212 685 1197 q 722 1260 711 1226 l 818 1240 q 762 1122 796 1167 q 672 1078 728 1078 q 613 1091 642 1078 q 558 1117 585 1104 q 506 1129 532 1129 q 465 1115 483 1129 q 435 1065 446 1100 z "},"Œ":{"ha":1493,"x_min":65,"x_max":1408,"o":"m 588 -18 q 384 19 479 -18 q 217 126 289 57 q 106 287 146 194 q 65 488 65 379 q 103 685 65 593 q 210 847 142 776 q 374 956 279 917 q 579 996 468 996 q 654 991 618 996 q 725 976 690 986 l 1396 976 l 1396 829 l 878 829 l 878 565 l 1353 565 l 1353 425 l 878 425 l 878 147 l 1408 147 l 1408 0 l 733 0 q 661 -13 699 -8 q 588 -18 624 -18 m 613 136 q 666 143 643 136 q 710 160 689 150 l 710 817 q 649 837 681 829 q 582 844 617 844 q 403 799 481 844 q 281 672 325 753 q 236 492 236 592 q 286 300 236 379 q 422 178 336 221 q 613 136 508 136 z "},"P":{"ha":856,"x_min":100,"x_max":817,"o":"m 100 -3 l 100 976 l 450 976 q 644 940 563 976 q 772 836 726 904 q 817 671 817 768 q 767 497 817 569 q 632 388 718 425 q 439 351 546 351 l 269 351 l 269 -3 l 100 -3 m 269 492 l 436 492 q 592 537 536 492 q 647 663 647 582 q 592 790 647 747 q 436 832 538 832 l 269 832 l 269 492 z "},"Þ":{"ha":724,"x_min":100,"x_max":686,"o":"m 100 0 l 100 981 l 263 981 l 263 813 l 328 813 q 465 797 400 813 q 581 748 531 782 q 658 657 631 714 q 686 517 686 600 q 644 353 686 417 q 528 258 601 289 q 361 228 456 228 l 263 228 l 263 0 l 100 0 m 263 363 l 324 363 q 425 375 379 363 q 497 422 471 388 q 524 519 524 457 q 506 604 524 574 q 455 649 488 635 q 383 668 422 664 q 301 672 344 672 l 263 672 l 263 363 z "},"Q":{"ha":1175,"x_min":65,"x_max":1114,"o":"m 1114 -142 l 867 67 q 781 21 826 40 q 685 -9 736 1 q 576 -19 633 -19 q 372 20 465 -19 q 210 129 279 60 q 103 290 140 199 q 65 486 65 382 q 103 685 65 593 q 210 847 142 776 q 374 956 279 917 q 579 996 468 996 q 783 956 690 996 q 946 847 876 917 q 1053 686 1015 778 q 1090 489 1090 594 q 1061 315 1090 393 q 976 172 1032 238 l 1114 53 l 1114 -142 m 578 132 q 754 180 678 132 q 874 309 831 228 q 918 486 918 390 q 876 663 918 582 q 756 794 833 744 q 578 844 679 844 q 401 797 478 844 q 280 669 324 749 q 236 489 236 589 q 280 310 236 392 q 401 181 324 229 q 578 132 478 132 z "},"R":{"ha":864,"x_min":100,"x_max":861,"o":"m 100 0 l 100 976 l 457 976 q 649 940 568 976 q 774 835 729 903 q 818 679 818 768 q 751 494 818 567 q 571 394 683 421 l 861 0 l 661 0 l 394 375 l 271 375 l 271 0 l 100 0 m 271 508 l 428 508 q 542 526 493 508 q 619 579 592 543 q 647 671 647 615 q 594 791 647 753 q 443 829 540 829 l 271 829 l 271 508 z "},"Ŕ":{"ha":864,"x_min":100,"x_max":861,"o":"m 100 0 l 100 976 l 457 976 q 649 940 568 976 q 774 835 729 903 q 818 679 818 768 q 751 494 818 567 q 571 394 683 421 l 861 0 l 661 0 l 394 375 l 271 375 l 271 0 l 100 0 m 271 508 l 428 508 q 542 526 493 508 q 619 579 592 543 q 647 671 647 615 q 594 791 647 753 q 443 829 540 829 l 271 829 l 271 508 m 368 1071 l 500 1294 l 672 1250 l 485 1071 l 368 1071 z "},"Ř":{"ha":864,"x_min":100,"x_max":861,"o":"m 100 0 l 100 976 l 457 976 q 649 940 568 976 q 774 835 729 903 q 818 679 818 768 q 751 494 818 567 q 571 394 683 421 l 861 0 l 661 0 l 394 375 l 271 375 l 271 0 l 100 0 m 271 508 l 428 508 q 542 526 493 508 q 619 579 592 543 q 647 671 647 615 q 594 791 647 753 q 443 829 540 829 l 271 829 l 271 508 m 365 1071 l 194 1290 l 326 1290 l 425 1182 l 522 1290 l 651 1290 l 481 1071 l 365 1071 z "},"Ŗ":{"ha":864,"x_min":100,"x_max":861,"o":"m 100 0 l 100 976 l 457 976 q 649 940 568 976 q 774 835 729 903 q 818 679 818 768 q 751 494 818 567 q 571 394 683 421 l 861 0 l 661 0 l 394 375 l 271 375 l 271 0 l 100 0 m 271 508 l 428 508 q 542 526 493 508 q 619 579 592 543 q 647 671 647 615 q 594 791 647 753 q 443 829 540 829 l 271 829 l 271 508 m 326 -346 l 372 -82 l 507 -82 l 432 -346 l 326 -346 z "},"S":{"ha":801,"x_min":38,"x_max":746,"o":"m 392 -17 q 203 13 293 -17 q 38 114 113 43 l 38 281 q 154 194 93 228 q 277 143 215 160 q 396 126 339 126 q 477 138 436 126 q 547 175 518 149 q 576 249 576 201 q 549 323 576 292 q 476 379 522 354 q 376 426 431 404 q 267 476 322 449 q 167 538 213 503 q 94 622 121 572 q 67 739 67 671 q 113 879 67 822 q 233 965 158 936 q 393 994 308 994 q 553 972 481 994 q 683 899 626 949 l 683 722 q 594 797 643 768 q 497 839 546 825 q 400 853 447 853 q 281 824 325 853 q 236 744 236 796 q 264 677 236 706 q 337 626 292 649 q 437 581 382 603 q 546 531 492 558 q 646 468 600 504 q 719 379 692 432 q 746 254 746 326 q 717 132 746 183 q 638 47 688 81 q 524 -1 588 14 q 392 -17 460 -17 z "},"Ś":{"ha":801,"x_min":38,"x_max":746,"o":"m 392 -17 q 203 13 293 -17 q 38 114 113 43 l 38 281 q 154 194 93 228 q 277 143 215 160 q 396 126 339 126 q 477 138 436 126 q 547 175 518 149 q 576 249 576 201 q 549 323 576 292 q 476 379 522 354 q 376 426 431 404 q 267 476 322 449 q 167 538 213 503 q 94 622 121 572 q 67 739 67 671 q 113 879 67 822 q 233 965 158 936 q 393 994 308 994 q 553 972 481 994 q 683 899 626 949 l 683 722 q 594 797 643 768 q 497 839 546 825 q 400 853 447 853 q 281 824 325 853 q 236 744 236 796 q 264 677 236 706 q 337 626 292 649 q 437 581 382 603 q 546 531 492 558 q 646 468 600 504 q 719 379 692 432 q 746 254 746 326 q 717 132 746 183 q 638 47 688 81 q 524 -1 588 14 q 392 -17 460 -17 m 325 1071 l 457 1294 l 629 1250 l 442 1071 l 325 1071 z "},"Š":{"ha":801,"x_min":38,"x_max":746,"o":"m 392 -17 q 203 13 293 -17 q 38 114 113 43 l 38 281 q 154 194 93 228 q 277 143 215 160 q 396 126 339 126 q 477 138 436 126 q 547 175 518 149 q 576 249 576 201 q 549 323 576 292 q 476 379 522 354 q 376 426 431 404 q 267 476 322 449 q 167 538 213 503 q 94 622 121 572 q 67 739 67 671 q 113 879 67 822 q 233 965 158 936 q 393 994 308 994 q 553 972 481 994 q 683 899 626 949 l 683 722 q 594 797 643 768 q 497 839 546 825 q 400 853 447 853 q 281 824 325 853 q 236 744 236 796 q 264 677 236 706 q 337 626 292 649 q 437 581 382 603 q 546 531 492 558 q 646 468 600 504 q 719 379 692 432 q 746 254 746 326 q 717 132 746 183 q 638 47 688 81 q 524 -1 588 14 q 392 -17 460 -17 m 336 1071 l 165 1290 l 297 1290 l 396 1182 l 493 1290 l 622 1290 l 451 1071 l 336 1071 z "},"Ş":{"ha":801,"x_min":38,"x_max":746,"o":"m 392 -17 q 203 13 293 -17 q 38 114 113 43 l 38 281 q 154 194 93 228 q 277 143 215 160 q 396 126 339 126 q 477 138 436 126 q 547 175 518 149 q 576 249 576 201 q 549 323 576 292 q 476 379 522 354 q 376 426 431 404 q 267 476 322 449 q 167 538 213 503 q 94 622 121 572 q 67 739 67 671 q 113 879 67 822 q 233 965 158 936 q 393 994 308 994 q 553 972 481 994 q 683 899 626 949 l 683 722 q 594 797 643 768 q 497 839 546 825 q 400 853 447 853 q 281 824 325 853 q 236 744 236 796 q 264 677 236 706 q 337 626 292 649 q 437 581 382 603 q 546 531 492 558 q 646 468 600 504 q 719 379 692 432 q 746 254 746 326 q 717 132 746 183 q 638 47 688 81 q 524 -1 588 14 q 392 -17 460 -17 m 339 -318 q 274 -310 306 -318 q 213 -287 242 -303 l 235 -225 q 277 -237 257 -233 q 313 -242 297 -242 q 349 -236 329 -242 q 383 -218 368 -231 q 397 -185 397 -206 q 383 -155 397 -165 q 343 -144 368 -144 q 318 -148 329 -144 q 292 -157 307 -151 l 263 -133 l 351 0 l 443 0 l 385 -97 l 392 -97 q 445 -106 418 -97 q 490 -136 472 -115 q 508 -194 508 -157 q 481 -267 508 -240 q 415 -306 454 -294 q 339 -318 376 -318 z "},"Ŝ":{"ha":801,"x_min":38,"x_max":746,"o":"m 392 -17 q 203 13 293 -17 q 38 114 113 43 l 38 281 q 154 194 93 228 q 277 143 215 160 q 396 126 339 126 q 477 138 436 126 q 547 175 518 149 q 576 249 576 201 q 549 323 576 292 q 476 379 522 354 q 376 426 431 404 q 267 476 322 449 q 167 538 213 503 q 94 622 121 572 q 67 739 67 671 q 113 879 67 822 q 233 965 158 936 q 393 994 308 994 q 553 972 481 994 q 683 899 626 949 l 683 722 q 594 797 643 768 q 497 839 546 825 q 400 853 447 853 q 281 824 325 853 q 236 744 236 796 q 264 677 236 706 q 337 626 292 649 q 437 581 382 603 q 546 531 492 558 q 646 468 600 504 q 719 379 692 432 q 746 254 746 326 q 717 132 746 183 q 638 47 688 81 q 524 -1 588 14 q 392 -17 460 -17 m 176 1092 l 339 1308 l 453 1308 l 615 1092 l 494 1092 l 396 1196 l 297 1092 l 176 1092 z "},"Ș":{"ha":829,"x_min":65,"x_max":774,"o":"m 419 -17 q 231 13 321 -17 q 65 114 140 43 l 65 281 q 182 194 121 228 q 305 143 243 160 q 424 126 367 126 q 505 138 464 126 q 575 175 546 149 q 604 249 604 201 q 577 323 604 292 q 504 379 550 354 q 404 426 458 404 q 295 476 350 449 q 194 538 240 503 q 122 622 149 572 q 94 739 94 671 q 140 879 94 822 q 261 965 186 936 q 421 994 336 994 q 581 972 508 994 q 711 899 654 949 l 711 722 q 622 797 671 768 q 524 839 574 825 q 428 853 475 853 q 308 824 353 853 q 264 744 264 796 q 292 677 264 706 q 365 626 319 649 q 465 581 410 603 q 574 531 519 558 q 674 468 628 504 q 747 379 719 432 q 774 254 774 326 q 744 132 774 183 q 665 47 715 81 q 551 -1 615 14 q 419 -17 488 -17 m 286 -346 l 332 -82 l 467 -82 l 392 -346 l 286 -346 z "},"ẞ":{"ha":824,"x_min":14,"x_max":778,"o":"m 335 -4 l 335 119 q 544 163 472 119 q 615 296 615 206 q 553 424 615 382 q 388 474 492 467 l 388 578 l 557 756 q 506 860 557 824 q 376 897 456 897 q 266 870 311 897 q 198 797 221 843 q 175 690 175 750 l 175 0 l 14 0 l 14 694 q 54 871 14 793 q 176 994 94 949 q 382 1040 257 1040 q 557 1005 482 1040 q 675 904 632 969 q 718 749 718 839 l 522 557 q 708 476 638 546 q 778 297 778 407 q 744 157 778 215 q 651 63 711 99 q 510 10 590 26 q 335 -4 429 -7 z "},"T":{"ha":776,"x_min":13,"x_max":764,"o":"m 304 0 l 304 828 l 13 828 l 13 976 l 764 976 l 764 828 l 472 828 l 472 0 l 304 0 z "},"Ŧ":{"ha":776,"x_min":13,"x_max":764,"o":"m 304 0 l 304 828 l 13 828 l 13 976 l 764 976 l 764 828 l 472 828 l 472 0 l 304 0 m 163 494 l 163 601 l 614 601 l 614 494 l 163 494 z "},"Ť":{"ha":776,"x_min":13,"x_max":764,"o":"m 304 0 l 304 828 l 13 828 l 13 976 l 764 976 l 764 828 l 472 828 l 472 0 l 304 0 m 329 1071 l 158 1290 l 290 1290 l 389 1182 l 486 1290 l 615 1290 l 444 1071 l 329 1071 z "},"Ţ":{"ha":776,"x_min":13,"x_max":764,"o":"m 304 0 l 304 828 l 13 828 l 13 976 l 764 976 l 764 828 l 472 828 l 472 0 l 304 0 m 335 -318 q 269 -310 301 -318 q 208 -287 238 -303 l 231 -225 q 273 -237 253 -233 q 308 -242 293 -242 q 344 -236 325 -242 q 378 -218 364 -231 q 393 -185 393 -206 q 378 -155 393 -165 q 339 -144 364 -144 q 314 -148 325 -144 q 288 -157 303 -151 l 258 -133 l 347 0 l 439 0 l 381 -97 l 388 -97 q 441 -106 414 -97 q 486 -136 468 -115 q 504 -194 504 -157 q 477 -267 504 -240 q 411 -306 450 -294 q 335 -318 372 -318 z "},"Ț":{"ha":776,"x_min":13,"x_max":764,"o":"m 304 0 l 304 828 l 13 828 l 13 976 l 764 976 l 764 828 l 472 828 l 472 0 l 304 0 m 263 -346 l 308 -82 l 443 -82 l 368 -346 l 263 -346 z "},"U":{"ha":1000,"x_min":90,"x_max":908,"o":"m 500 -21 q 278 29 369 -21 q 138 174 186 79 q 90 406 90 269 l 90 978 l 260 978 l 260 411 q 319 206 260 279 q 500 133 379 133 q 678 201 615 133 q 740 406 740 268 l 740 978 l 908 978 l 908 410 q 861 176 908 272 q 723 29 814 79 q 500 -21 632 -21 z "},"Ú":{"ha":1000,"x_min":90,"x_max":908,"o":"m 500 -21 q 278 29 369 -21 q 138 174 186 79 q 90 406 90 269 l 90 978 l 260 978 l 260 411 q 319 206 260 279 q 500 133 379 133 q 678 201 615 133 q 740 406 740 268 l 740 978 l 908 978 l 908 410 q 861 176 908 272 q 723 29 814 79 q 500 -21 632 -21 m 435 1071 l 567 1294 l 739 1250 l 551 1071 l 435 1071 z "},"Ŭ":{"ha":1000,"x_min":90,"x_max":908,"o":"m 500 -21 q 278 29 369 -21 q 138 174 186 79 q 90 406 90 269 l 90 978 l 260 978 l 260 411 q 319 206 260 279 q 500 133 379 133 q 678 201 615 133 q 740 406 740 268 l 740 978 l 908 978 l 908 410 q 861 176 908 272 q 723 29 814 79 q 500 -21 632 -21 m 501 1051 q 396 1078 442 1051 q 322 1154 350 1106 q 285 1267 293 1203 l 385 1267 q 428 1193 397 1218 q 506 1168 460 1168 q 579 1193 549 1168 q 622 1267 610 1218 l 719 1267 q 685 1154 714 1203 q 608 1078 656 1106 q 501 1051 561 1051 z "},"Û":{"ha":1000,"x_min":90,"x_max":908,"o":"m 500 -21 q 278 29 369 -21 q 138 174 186 79 q 90 406 90 269 l 90 978 l 260 978 l 260 411 q 319 206 260 279 q 500 133 379 133 q 678 201 615 133 q 740 406 740 268 l 740 978 l 908 978 l 908 410 q 861 176 908 272 q 723 29 814 79 q 500 -21 632 -21 m 286 1092 l 449 1308 l 563 1308 l 725 1092 l 604 1092 l 506 1196 l 407 1092 l 286 1092 z "},"Ü":{"ha":1000,"x_min":90,"x_max":908,"o":"m 500 -21 q 278 29 369 -21 q 138 174 186 79 q 90 406 90 269 l 90 978 l 260 978 l 260 411 q 319 206 260 279 q 500 133 379 133 q 678 201 615 133 q 740 406 740 268 l 740 978 l 908 978 l 908 410 q 861 176 908 272 q 723 29 814 79 q 500 -21 632 -21 m 357 1100 q 288 1126 315 1100 q 261 1194 261 1151 q 288 1262 261 1236 q 357 1288 315 1288 q 425 1262 396 1288 q 454 1194 454 1236 q 425 1126 454 1151 q 357 1100 396 1100 m 638 1100 q 572 1126 599 1100 q 544 1194 544 1151 q 571 1261 544 1235 q 638 1288 597 1288 q 707 1262 681 1288 q 733 1194 733 1236 q 707 1126 733 1151 q 638 1100 681 1100 z "},"Ù":{"ha":1000,"x_min":90,"x_max":908,"o":"m 500 -21 q 278 29 369 -21 q 138 174 186 79 q 90 406 90 269 l 90 978 l 260 978 l 260 411 q 319 206 260 279 q 500 133 379 133 q 678 201 615 133 q 740 406 740 268 l 740 978 l 908 978 l 908 410 q 861 176 908 272 q 723 29 814 79 q 500 -21 632 -21 m 456 1071 l 269 1250 l 439 1294 l 576 1071 l 456 1071 z "},"Ű":{"ha":1000,"x_min":90,"x_max":908,"o":"m 500 -21 q 278 29 369 -21 q 138 174 186 79 q 90 406 90 269 l 90 978 l 260 978 l 260 411 q 319 206 260 279 q 500 133 379 133 q 678 201 615 133 q 740 406 740 268 l 740 978 l 908 978 l 908 410 q 861 176 908 272 q 723 29 814 79 q 500 -21 632 -21 m 557 1068 l 711 1297 l 865 1267 l 676 1068 l 557 1068 m 308 1068 l 463 1297 l 617 1269 l 428 1068 l 308 1068 z "},"Ū":{"ha":1000,"x_min":90,"x_max":908,"o":"m 500 -21 q 278 29 369 -21 q 138 174 186 79 q 90 406 90 269 l 90 978 l 260 978 l 260 411 q 319 206 260 279 q 500 133 379 133 q 678 201 615 133 q 740 406 740 268 l 740 978 l 908 978 l 908 410 q 861 176 908 272 q 723 29 814 79 q 500 -21 632 -21 m 281 1064 l 281 1171 l 732 1171 l 732 1064 l 281 1064 z "},"Ų":{"ha":1000,"x_min":90,"x_max":908,"o":"m 500 -21 q 278 29 369 -21 q 138 174 186 79 q 90 406 90 269 l 90 978 l 260 978 l 260 411 q 319 206 260 279 q 500 133 379 133 q 678 201 615 133 q 740 406 740 268 l 740 978 l 908 978 l 908 410 q 861 176 908 272 q 723 29 814 79 q 500 -21 632 -21 m 536 -293 q 421 -257 467 -293 q 375 -156 375 -221 q 399 -72 375 -111 q 449 0 422 -33 l 563 0 q 510 -79 526 -50 q 494 -136 494 -108 q 513 -181 494 -164 q 561 -199 532 -199 q 590 -195 575 -199 q 628 -183 606 -192 l 647 -267 q 590 -287 618 -281 q 536 -293 563 -293 z "},"Ů":{"ha":1000,"x_min":90,"x_max":908,"o":"m 500 -21 q 278 29 369 -21 q 138 174 186 79 q 90 406 90 269 l 90 978 l 260 978 l 260 411 q 319 206 260 279 q 500 133 379 133 q 678 201 615 133 q 740 406 740 268 l 740 978 l 908 978 l 908 410 q 861 176 908 272 q 723 29 814 79 q 500 -21 632 -21 m 503 1069 q 430 1089 464 1069 q 375 1142 396 1108 q 354 1217 354 1175 q 375 1293 354 1260 q 430 1346 396 1326 q 503 1365 464 1365 q 579 1345 544 1365 q 635 1292 614 1325 q 656 1215 656 1258 q 635 1141 656 1174 q 580 1089 614 1108 q 503 1069 546 1069 m 504 1154 q 552 1172 535 1154 q 569 1217 569 1190 q 551 1263 569 1246 q 504 1281 533 1281 q 459 1263 478 1281 q 440 1218 440 1244 q 459 1172 440 1189 q 504 1154 478 1154 z "},"Ũ":{"ha":1000,"x_min":90,"x_max":908,"o":"m 500 -21 q 278 29 369 -21 q 138 174 186 79 q 90 406 90 269 l 90 978 l 260 978 l 260 411 q 319 206 260 279 q 500 133 379 133 q 678 201 615 133 q 740 406 740 268 l 740 978 l 908 978 l 908 410 q 861 176 908 272 q 723 29 814 79 q 500 -21 632 -21 m 376 1065 l 279 1082 q 339 1202 300 1157 q 436 1247 378 1247 q 499 1235 469 1247 q 556 1210 529 1224 q 604 1197 582 1197 q 640 1212 626 1197 q 664 1260 653 1226 l 760 1240 q 703 1122 738 1167 q 614 1078 669 1078 q 555 1091 583 1078 q 500 1117 526 1104 q 447 1129 474 1129 q 406 1115 425 1129 q 376 1065 388 1100 z "},"V":{"ha":938,"x_min":-8,"x_max":943,"o":"m 381 -3 l -8 976 l 181 976 l 471 200 l 760 976 l 943 976 l 558 -3 l 381 -3 z "},"W":{"ha":1421,"x_min":3,"x_max":1418,"o":"m 329 -3 l 3 976 l 182 976 l 414 253 l 636 978 l 789 978 l 1015 253 l 1243 976 l 1418 976 l 1093 -3 l 940 -3 l 708 722 l 485 -3 l 329 -3 z "},"Ẃ":{"ha":1421,"x_min":3,"x_max":1418,"o":"m 329 -3 l 3 976 l 182 976 l 414 253 l 636 978 l 789 978 l 1015 253 l 1243 976 l 1418 976 l 1093 -3 l 940 -3 l 708 722 l 485 -3 l 329 -3 m 656 1071 l 788 1294 l 960 1250 l 772 1071 l 656 1071 z "},"Ŵ":{"ha":1421,"x_min":3,"x_max":1418,"o":"m 329 -3 l 3 976 l 182 976 l 414 253 l 636 978 l 789 978 l 1015 253 l 1243 976 l 1418 976 l 1093 -3 l 940 -3 l 708 722 l 485 -3 l 329 -3 m 490 1092 l 653 1308 l 767 1308 l 929 1092 l 808 1092 l 710 1196 l 611 1092 l 490 1092 z "},"Ẅ":{"ha":1421,"x_min":3,"x_max":1418,"o":"m 329 -3 l 3 976 l 182 976 l 414 253 l 636 978 l 789 978 l 1015 253 l 1243 976 l 1418 976 l 1093 -3 l 940 -3 l 708 722 l 485 -3 l 329 -3 m 568 1100 q 499 1126 526 1100 q 472 1194 472 1151 q 499 1262 472 1236 q 568 1288 526 1288 q 636 1262 607 1288 q 665 1194 665 1236 q 636 1126 665 1151 q 568 1100 607 1100 m 849 1100 q 783 1126 810 1100 q 756 1194 756 1151 q 782 1261 756 1235 q 849 1288 808 1288 q 918 1262 892 1288 q 944 1194 944 1236 q 918 1126 944 1151 q 849 1100 892 1100 z "},"Ẁ":{"ha":1421,"x_min":3,"x_max":1418,"o":"m 329 -3 l 3 976 l 182 976 l 414 253 l 636 978 l 789 978 l 1015 253 l 1243 976 l 1418 976 l 1093 -3 l 940 -3 l 708 722 l 485 -3 l 329 -3 m 674 1071 l 488 1250 l 657 1294 l 794 1071 l 674 1071 z "},"X":{"ha":910,"x_min":8,"x_max":900,"o":"m 8 0 l 357 499 l 25 976 l 221 976 l 458 628 l 693 976 l 882 976 l 554 501 l 900 0 l 707 0 l 454 372 l 201 0 l 8 0 z "},"Y":{"ha":904,"x_min":-6,"x_max":910,"o":"m 368 0 l 368 381 l -6 976 l 189 976 l 456 538 l 722 976 l 910 976 l 538 382 l 538 0 l 368 0 z "},"Ý":{"ha":904,"x_min":-6,"x_max":910,"o":"m 368 0 l 368 381 l -6 976 l 189 976 l 456 538 l 722 976 l 910 976 l 538 382 l 538 0 l 368 0 m 375 1071 l 507 1294 l 679 1250 l 492 1071 l 375 1071 z "},"Ŷ":{"ha":904,"x_min":-6,"x_max":910,"o":"m 368 0 l 368 381 l -6 976 l 189 976 l 456 538 l 722 976 l 910 976 l 538 382 l 538 0 l 368 0 m 238 1092 l 400 1308 l 514 1308 l 676 1092 l 556 1092 l 457 1196 l 358 1092 l 238 1092 z "},"Ÿ":{"ha":904,"x_min":-6,"x_max":910,"o":"m 368 0 l 368 381 l -6 976 l 189 976 l 456 538 l 722 976 l 910 976 l 538 382 l 538 0 l 368 0 m 314 1100 q 245 1126 272 1100 q 218 1194 218 1151 q 245 1262 218 1236 q 314 1288 272 1288 q 382 1262 353 1288 q 411 1194 411 1236 q 382 1126 411 1151 q 314 1100 353 1100 m 594 1100 q 528 1126 556 1100 q 501 1194 501 1151 q 528 1261 501 1235 q 594 1288 554 1288 q 664 1262 638 1288 q 690 1194 690 1236 q 664 1126 690 1151 q 594 1100 638 1100 z "},"Ỳ":{"ha":904,"x_min":-6,"x_max":910,"o":"m 368 0 l 368 381 l -6 976 l 189 976 l 456 538 l 722 976 l 910 976 l 538 382 l 538 0 l 368 0 m 408 1071 l 222 1250 l 392 1294 l 529 1071 l 408 1071 z "},"Z":{"ha":883,"x_min":11,"x_max":857,"o":"m 11 0 l 11 132 l 636 831 l 42 831 l 42 976 l 857 976 l 857 844 l 236 146 l 836 146 l 836 0 l 11 0 z "},"Ź":{"ha":883,"x_min":11,"x_max":857,"o":"m 11 0 l 11 132 l 636 831 l 42 831 l 42 976 l 857 976 l 857 844 l 236 146 l 836 146 l 836 0 l 11 0 m 376 1071 l 508 1294 l 681 1250 l 493 1071 l 376 1071 z "},"Ž":{"ha":883,"x_min":11,"x_max":857,"o":"m 11 0 l 11 132 l 636 831 l 42 831 l 42 976 l 857 976 l 857 844 l 236 146 l 836 146 l 836 0 l 11 0 m 406 1071 l 235 1290 l 367 1290 l 465 1182 l 563 1290 l 692 1290 l 521 1071 l 406 1071 z "},"Ż":{"ha":883,"x_min":11,"x_max":857,"o":"m 11 0 l 11 132 l 636 831 l 42 831 l 42 976 l 857 976 l 857 844 l 236 146 l 836 146 l 836 0 l 11 0 m 453 1072 q 379 1100 410 1072 q 349 1172 349 1128 q 378 1245 349 1218 q 453 1272 408 1272 q 528 1246 499 1272 q 558 1172 558 1219 q 528 1100 558 1128 q 453 1072 499 1072 z "},"a":{"ha":790,"x_min":46,"x_max":703,"o":"m 317 -15 q 188 13 250 -15 q 85 97 125 42 q 46 232 46 151 q 70 339 46 296 q 136 409 94 382 q 231 448 178 436 q 339 460 283 460 q 449 449 397 460 q 542 418 500 439 l 542 440 q 489 547 542 515 q 347 578 436 578 q 222 564 283 578 q 97 517 160 550 l 97 651 q 220 692 151 674 q 372 710 289 710 q 544 678 469 710 q 660 585 618 647 q 703 429 703 522 l 703 -6 l 539 71 q 442 7 494 29 q 317 -15 389 -15 m 367 101 q 467 122 424 101 q 542 178 510 142 l 542 314 q 473 342 513 329 q 378 356 433 356 q 297 342 336 356 q 232 300 257 328 q 207 228 207 272 q 229 158 207 186 q 288 115 251 129 q 367 101 325 101 z "},"á":{"ha":790,"x_min":46,"x_max":703,"o":"m 317 -15 q 188 13 250 -15 q 85 97 125 42 q 46 232 46 151 q 70 339 46 296 q 136 409 94 382 q 231 448 178 436 q 339 460 283 460 q 449 449 397 460 q 542 418 500 439 l 542 440 q 489 547 542 515 q 347 578 436 578 q 222 564 283 578 q 97 517 160 550 l 97 651 q 220 692 151 674 q 372 710 289 710 q 544 678 469 710 q 660 585 618 647 q 703 429 703 522 l 703 -6 l 539 71 q 442 7 494 29 q 317 -15 389 -15 m 367 101 q 467 122 424 101 q 542 178 510 142 l 542 314 q 473 342 513 329 q 378 356 433 356 q 297 342 336 356 q 232 300 257 328 q 207 228 207 272 q 229 158 207 186 q 288 115 251 129 q 367 101 325 101 m 324 856 l 456 1079 l 628 1035 l 440 856 l 324 856 z "},"ă":{"ha":790,"x_min":46,"x_max":703,"o":"m 317 -15 q 188 13 250 -15 q 85 97 125 42 q 46 232 46 151 q 70 339 46 296 q 136 409 94 382 q 231 448 178 436 q 339 460 283 460 q 449 449 397 460 q 542 418 500 439 l 542 440 q 489 547 542 515 q 347 578 436 578 q 222 564 283 578 q 97 517 160 550 l 97 651 q 220 692 151 674 q 372 710 289 710 q 544 678 469 710 q 660 585 618 647 q 703 429 703 522 l 703 -6 l 539 71 q 442 7 494 29 q 317 -15 389 -15 m 367 101 q 467 122 424 101 q 542 178 510 142 l 542 314 q 473 342 513 329 q 378 356 433 356 q 297 342 336 356 q 232 300 257 328 q 207 228 207 272 q 229 158 207 186 q 288 115 251 129 q 367 101 325 101 m 399 822 q 293 849 339 822 q 219 925 247 876 q 182 1038 190 974 l 282 1038 q 326 964 294 989 q 403 939 357 939 q 476 964 446 939 q 519 1038 507 989 l 617 1038 q 582 925 611 974 q 506 849 553 876 q 399 822 458 822 z "},"ǎ":{"ha":790,"x_min":46,"x_max":703,"o":"m 317 -15 q 188 13 250 -15 q 85 97 125 42 q 46 232 46 151 q 70 339 46 296 q 136 409 94 382 q 231 448 178 436 q 339 460 283 460 q 449 449 397 460 q 542 418 500 439 l 542 440 q 489 547 542 515 q 347 578 436 578 q 222 564 283 578 q 97 517 160 550 l 97 651 q 220 692 151 674 q 372 710 289 710 q 544 678 469 710 q 660 585 618 647 q 703 429 703 522 l 703 -6 l 539 71 q 442 7 494 29 q 317 -15 389 -15 m 367 101 q 467 122 424 101 q 542 178 510 142 l 542 314 q 473 342 513 329 q 378 356 433 356 q 297 342 336 356 q 232 300 257 328 q 207 228 207 272 q 229 158 207 186 q 288 115 251 129 q 367 101 325 101 m 338 833 l 167 1054 l 299 1054 l 397 944 l 494 1054 l 624 1054 l 453 833 l 338 833 z "},"â":{"ha":790,"x_min":46,"x_max":703,"o":"m 317 -15 q 188 13 250 -15 q 85 97 125 42 q 46 232 46 151 q 70 339 46 296 q 136 409 94 382 q 231 448 178 436 q 339 460 283 460 q 449 449 397 460 q 542 418 500 439 l 542 440 q 489 547 542 515 q 347 578 436 578 q 222 564 283 578 q 97 517 160 550 l 97 651 q 220 692 151 674 q 372 710 289 710 q 544 678 469 710 q 660 585 618 647 q 703 429 703 522 l 703 -6 l 539 71 q 442 7 494 29 q 317 -15 389 -15 m 367 101 q 467 122 424 101 q 542 178 510 142 l 542 314 q 473 342 513 329 q 378 356 433 356 q 297 342 336 356 q 232 300 257 328 q 207 228 207 272 q 229 158 207 186 q 288 115 251 129 q 367 101 325 101 m 178 863 l 340 1079 l 454 1079 l 617 863 l 496 863 l 397 967 l 299 863 l 178 863 z "},"ä":{"ha":790,"x_min":46,"x_max":703,"o":"m 317 -15 q 188 13 250 -15 q 85 97 125 42 q 46 232 46 151 q 70 339 46 296 q 136 409 94 382 q 231 448 178 436 q 339 460 283 460 q 449 449 397 460 q 542 418 500 439 l 542 440 q 489 547 542 515 q 347 578 436 578 q 222 564 283 578 q 97 517 160 550 l 97 651 q 220 692 151 674 q 372 710 289 710 q 544 678 469 710 q 660 585 618 647 q 703 429 703 522 l 703 -6 l 539 71 q 442 7 494 29 q 317 -15 389 -15 m 367 101 q 467 122 424 101 q 542 178 510 142 l 542 314 q 473 342 513 329 q 378 356 433 356 q 297 342 336 356 q 232 300 257 328 q 207 228 207 272 q 229 158 207 186 q 288 115 251 129 q 367 101 325 101 m 257 871 q 192 896 218 871 q 167 960 167 921 q 192 1024 167 999 q 257 1049 218 1049 q 322 1024 294 1049 q 349 960 349 999 q 322 896 349 921 q 257 871 294 871 m 531 871 q 469 896 494 871 q 443 960 443 921 q 468 1023 443 997 q 531 1049 493 1049 q 595 1024 569 1049 q 621 960 621 999 q 595 896 621 921 q 531 871 569 871 z "},"à":{"ha":790,"x_min":46,"x_max":703,"o":"m 317 -15 q 188 13 250 -15 q 85 97 125 42 q 46 232 46 151 q 70 339 46 296 q 136 409 94 382 q 231 448 178 436 q 339 460 283 460 q 449 449 397 460 q 542 418 500 439 l 542 440 q 489 547 542 515 q 347 578 436 578 q 222 564 283 578 q 97 517 160 550 l 97 651 q 220 692 151 674 q 372 710 289 710 q 544 678 469 710 q 660 585 618 647 q 703 429 703 522 l 703 -6 l 539 71 q 442 7 494 29 q 317 -15 389 -15 m 367 101 q 467 122 424 101 q 542 178 510 142 l 542 314 q 473 342 513 329 q 378 356 433 356 q 297 342 336 356 q 232 300 257 328 q 207 228 207 272 q 229 158 207 186 q 288 115 251 129 q 367 101 325 101 m 363 856 l 176 1035 l 346 1079 l 483 856 l 363 856 z "},"ā":{"ha":790,"x_min":46,"x_max":703,"o":"m 317 -15 q 188 13 250 -15 q 85 97 125 42 q 46 232 46 151 q 70 339 46 296 q 136 409 94 382 q 231 448 178 436 q 339 460 283 460 q 449 449 397 460 q 542 418 500 439 l 542 440 q 489 547 542 515 q 347 578 436 578 q 222 564 283 578 q 97 517 160 550 l 97 651 q 220 692 151 674 q 372 710 289 710 q 544 678 469 710 q 660 585 618 647 q 703 429 703 522 l 703 -6 l 539 71 q 442 7 494 29 q 317 -15 389 -15 m 367 101 q 467 122 424 101 q 542 178 510 142 l 542 314 q 473 342 513 329 q 378 356 433 356 q 297 342 336 356 q 232 300 257 328 q 207 228 207 272 q 229 158 207 186 q 288 115 251 129 q 367 101 325 101 m 160 835 l 160 942 l 611 942 l 611 835 l 160 835 z "},"ą":{"ha":790,"x_min":46,"x_max":788,"o":"m 317 -15 q 188 13 250 -15 q 85 97 125 42 q 46 232 46 151 q 70 339 46 296 q 136 409 94 382 q 231 448 178 436 q 339 460 283 460 q 449 449 397 460 q 542 418 500 439 l 542 440 q 489 547 542 515 q 347 578 436 578 q 222 564 283 578 q 97 517 160 550 l 97 651 q 220 692 151 674 q 372 710 289 710 q 544 678 469 710 q 660 585 618 647 q 703 429 703 522 l 703 -6 l 539 71 q 442 7 494 29 q 317 -15 389 -15 m 367 101 q 467 122 424 101 q 542 178 510 142 l 542 314 q 473 342 513 329 q 378 356 433 356 q 297 342 336 356 q 232 300 257 328 q 207 228 207 272 q 229 158 207 186 q 288 115 251 129 q 367 101 325 101 m 676 -293 q 561 -256 607 -293 q 515 -153 515 -218 q 542 -62 515 -107 q 624 43 568 -17 l 703 -6 q 651 -78 667 -49 q 635 -132 635 -108 q 652 -180 635 -161 q 701 -199 669 -199 q 731 -195 715 -199 q 768 -183 746 -192 l 788 -267 q 731 -287 758 -281 q 676 -293 703 -293 z "},"å":{"ha":790,"x_min":46,"x_max":703,"o":"m 317 -15 q 188 13 250 -15 q 85 97 125 42 q 46 232 46 151 q 70 339 46 296 q 136 409 94 382 q 231 448 178 436 q 339 460 283 460 q 449 449 397 460 q 542 418 500 439 l 542 440 q 489 547 542 515 q 347 578 436 578 q 222 564 283 578 q 97 517 160 550 l 97 651 q 220 692 151 674 q 372 710 289 710 q 544 678 469 710 q 660 585 618 647 q 703 429 703 522 l 703 -6 l 539 71 q 442 7 494 29 q 317 -15 389 -15 m 367 101 q 467 122 424 101 q 542 178 510 142 l 542 314 q 473 342 513 329 q 378 356 433 356 q 297 342 336 356 q 232 300 257 328 q 207 228 207 272 q 229 158 207 186 q 288 115 251 129 q 367 101 325 101 m 388 817 q 315 836 349 817 q 260 889 281 856 q 239 964 239 922 q 260 1040 239 1007 q 315 1093 281 1074 q 388 1113 349 1113 q 464 1092 429 1113 q 519 1039 499 1072 q 540 963 540 1006 q 519 888 540 921 q 465 836 499 856 q 388 817 431 817 m 389 901 q 437 919 419 901 q 454 964 454 938 q 436 1010 454 993 q 389 1028 418 1028 q 344 1010 363 1028 q 325 965 325 992 q 344 919 325 936 q 389 901 363 901 z "},"ã":{"ha":790,"x_min":46,"x_max":703,"o":"m 317 -15 q 188 13 250 -15 q 85 97 125 42 q 46 232 46 151 q 70 339 46 296 q 136 409 94 382 q 231 448 178 436 q 339 460 283 460 q 449 449 397 460 q 542 418 500 439 l 542 440 q 489 547 542 515 q 347 578 436 578 q 222 564 283 578 q 97 517 160 550 l 97 651 q 220 692 151 674 q 372 710 289 710 q 544 678 469 710 q 660 585 618 647 q 703 429 703 522 l 703 -6 l 539 71 q 442 7 494 29 q 317 -15 389 -15 m 367 101 q 467 122 424 101 q 542 178 510 142 l 542 314 q 473 342 513 329 q 378 356 433 356 q 297 342 336 356 q 232 300 257 328 q 207 228 207 272 q 229 158 207 186 q 288 115 251 129 q 367 101 325 101 m 263 836 l 165 853 q 225 973 186 928 q 322 1018 264 1018 q 385 1006 356 1018 q 442 981 415 994 q 490 968 468 968 q 526 983 513 968 q 550 1031 539 997 l 646 1011 q 590 893 624 938 q 500 849 556 849 q 441 862 469 849 q 386 888 413 875 q 333 900 360 900 q 292 885 311 900 q 263 836 274 871 z "},"æ":{"ha":1274,"x_min":42,"x_max":1231,"o":"m 915 -18 q 764 10 835 -18 q 640 97 693 38 q 495 12 576 39 q 328 -15 414 -15 q 188 13 254 -15 q 82 94 122 40 q 42 226 42 149 q 67 334 42 290 q 133 406 92 378 q 228 447 175 433 q 333 460 281 460 q 444 449 393 460 q 536 418 496 439 l 536 440 q 483 547 536 515 q 342 578 431 578 q 214 563 278 578 q 93 517 150 549 l 93 651 q 215 692 146 675 q 361 710 283 710 q 466 698 413 710 q 566 662 519 686 q 642 600 613 638 q 747 682 685 651 q 890 713 810 713 q 1028 684 968 713 q 1132 606 1089 656 q 1200 493 1175 557 q 1231 358 1225 429 l 718 231 q 790 143 742 176 q 913 110 839 110 q 1004 122 960 110 q 1090 156 1049 133 q 1164 211 1132 179 l 1164 61 q 1052 3 1115 25 q 915 -18 989 -18 m 363 101 q 461 122 418 101 q 536 178 504 142 l 536 314 q 467 342 507 329 q 374 356 428 356 q 292 342 331 356 q 227 300 253 328 q 201 228 201 272 q 224 158 201 186 q 283 115 246 129 q 363 101 319 101 m 703 354 l 1067 440 q 1004 542 1050 503 q 888 582 958 582 q 785 549 826 582 q 723 463 743 515 q 703 354 703 411 z "},"ǽ":{"ha":1274,"x_min":42,"x_max":1231,"o":"m 915 -18 q 764 10 835 -18 q 640 97 693 38 q 495 12 576 39 q 328 -15 414 -15 q 188 13 254 -15 q 82 94 122 40 q 42 226 42 149 q 67 334 42 290 q 133 406 92 378 q 228 447 175 433 q 333 460 281 460 q 444 449 393 460 q 536 418 496 439 l 536 440 q 483 547 536 515 q 342 578 431 578 q 214 563 278 578 q 93 517 150 549 l 93 651 q 215 692 146 675 q 361 710 283 710 q 466 698 413 710 q 566 662 519 686 q 642 600 613 638 q 747 682 685 651 q 890 713 810 713 q 1028 684 968 713 q 1132 606 1089 656 q 1200 493 1175 557 q 1231 358 1225 429 l 718 231 q 790 143 742 176 q 913 110 839 110 q 1004 122 960 110 q 1090 156 1049 133 q 1164 211 1132 179 l 1164 61 q 1052 3 1115 25 q 915 -18 989 -18 m 363 101 q 461 122 418 101 q 536 178 504 142 l 536 314 q 467 342 507 329 q 374 356 428 356 q 292 342 331 356 q 227 300 253 328 q 201 228 201 272 q 224 158 201 186 q 283 115 246 129 q 363 101 319 101 m 703 354 l 1067 440 q 1004 542 1050 503 q 888 582 958 582 q 785 549 826 582 q 723 463 743 515 q 703 354 703 411 m 579 842 l 711 1065 l 883 1021 l 696 842 l 579 842 z "},"b":{"ha":874,"x_min":86,"x_max":828,"o":"m 496 -14 q 258 96 349 -14 l 86 -4 l 86 1017 l 250 1017 l 250 582 q 355 677 294 640 q 499 714 415 714 q 664 669 589 714 q 783 542 739 624 q 828 349 828 460 q 783 157 828 239 q 663 31 738 75 q 496 -14 588 -14 m 456 124 q 564 152 517 124 q 639 231 611 181 q 667 347 667 282 q 640 460 667 408 q 567 542 614 511 q 456 572 521 572 q 351 544 399 572 q 274 465 303 515 q 246 349 246 414 q 274 233 246 283 q 351 153 303 182 q 456 124 399 124 z "},"c":{"ha":654,"x_min":46,"x_max":596,"o":"m 404 -15 q 263 13 328 -15 q 149 90 197 40 q 73 205 100 139 q 46 347 46 271 q 92 528 46 446 q 220 661 138 611 q 411 711 303 711 q 506 701 458 711 q 589 667 554 690 l 589 496 q 510 553 553 533 q 418 574 468 574 q 310 544 358 574 q 235 466 263 515 q 208 353 208 417 q 237 239 208 292 q 314 155 265 186 q 422 124 363 124 q 515 144 471 124 q 596 201 560 164 l 596 35 q 508 -1 557 14 q 404 -15 460 -15 z "},"ć":{"ha":675,"x_min":46,"x_max":636,"o":"m 404 -15 q 263 13 328 -15 q 149 90 197 40 q 73 205 100 139 q 46 347 46 271 q 92 528 46 446 q 220 661 138 611 q 411 711 303 711 q 506 701 458 711 q 589 667 554 690 l 589 496 q 510 553 553 533 q 418 574 468 574 q 310 544 358 574 q 235 466 263 515 q 208 353 208 417 q 237 239 208 292 q 314 155 265 186 q 422 124 363 124 q 515 144 471 124 q 596 201 560 164 l 596 35 q 508 -1 557 14 q 404 -15 460 -15 m 332 856 l 464 1079 l 636 1035 l 449 856 l 332 856 z "},"č":{"ha":654,"x_min":46,"x_max":619,"o":"m 404 -15 q 263 13 328 -15 q 149 90 197 40 q 73 205 100 139 q 46 347 46 271 q 92 528 46 446 q 220 661 138 611 q 411 711 303 711 q 506 701 458 711 q 589 667 554 690 l 589 496 q 510 553 553 533 q 418 574 468 574 q 310 544 358 574 q 235 466 263 515 q 208 353 208 417 q 237 239 208 292 q 314 155 265 186 q 422 124 363 124 q 515 144 471 124 q 596 201 560 164 l 596 35 q 508 -1 557 14 q 404 -15 460 -15 m 333 833 l 163 1054 l 294 1054 l 393 944 l 490 1054 l 619 1054 l 449 833 l 333 833 z "},"ç":{"ha":654,"x_min":46,"x_max":596,"o":"m 404 -15 q 263 13 328 -15 q 149 90 197 40 q 73 205 100 139 q 46 347 46 271 q 92 528 46 446 q 220 661 138 611 q 411 711 303 711 q 506 701 458 711 q 589 667 554 690 l 589 496 q 510 553 553 533 q 418 574 468 574 q 310 544 358 574 q 235 466 263 515 q 208 353 208 417 q 237 239 208 292 q 314 155 265 186 q 422 124 363 124 q 515 144 471 124 q 596 201 560 164 l 596 35 q 508 -1 557 14 q 404 -15 460 -15 m 335 -318 q 269 -310 301 -318 q 208 -287 238 -303 l 231 -225 q 273 -237 253 -233 q 308 -242 293 -242 q 344 -236 325 -242 q 378 -218 364 -231 q 393 -185 393 -206 q 378 -155 393 -165 q 339 -144 364 -144 q 314 -148 325 -144 q 288 -157 303 -151 l 258 -133 l 347 0 l 439 0 l 381 -97 l 388 -97 q 441 -106 414 -97 q 486 -136 468 -115 q 504 -194 504 -157 q 477 -267 504 -240 q 411 -306 450 -294 q 335 -318 372 -318 z "},"ĉ":{"ha":654,"x_min":46,"x_max":606,"o":"m 404 -15 q 263 13 328 -15 q 149 90 197 40 q 73 205 100 139 q 46 347 46 271 q 92 528 46 446 q 220 661 138 611 q 411 711 303 711 q 506 701 458 711 q 589 667 554 690 l 589 496 q 510 553 553 533 q 418 574 468 574 q 310 544 358 574 q 235 466 263 515 q 208 353 208 417 q 237 239 208 292 q 314 155 265 186 q 422 124 363 124 q 515 144 471 124 q 596 201 560 164 l 596 35 q 508 -1 557 14 q 404 -15 460 -15 m 167 863 l 329 1079 l 443 1079 l 606 863 l 485 863 l 386 967 l 288 863 l 167 863 z "},"ċ":{"ha":621,"x_min":44,"x_max":593,"o":"m 401 -15 q 260 13 325 -15 q 146 90 194 40 q 70 205 97 139 q 43 347 43 271 q 89 528 43 446 q 217 661 135 611 q 408 711 300 711 q 503 701 456 711 q 586 667 551 690 l 586 496 q 508 553 550 533 q 415 574 465 574 q 308 544 356 574 q 233 466 260 515 q 206 353 206 417 q 234 239 206 292 q 311 155 263 186 q 419 124 360 124 q 513 144 468 124 q 593 201 557 164 l 593 35 q 506 -1 554 14 q 401 -15 457 -15 m 386 843 q 313 871 343 843 q 282 943 282 899 q 312 1016 282 989 q 386 1043 342 1043 q 462 1017 432 1043 q 492 943 492 990 q 462 871 492 899 q 386 843 432 843 z "},"d":{"ha":874,"x_min":46,"x_max":786,"o":"m 378 -14 q 212 31 288 -14 q 91 156 136 75 q 46 349 46 238 q 91 542 46 461 q 211 669 136 624 q 375 714 286 714 q 521 679 460 714 q 622 589 582 644 l 622 1017 l 786 1017 l 786 -4 l 614 104 q 515 19 571 53 q 378 -14 460 -14 m 414 124 q 520 153 472 124 q 597 233 568 182 q 626 350 626 285 q 597 466 626 415 q 519 546 567 517 q 414 575 471 575 q 313 547 360 575 q 237 468 265 518 q 208 350 208 418 q 233 239 208 290 q 304 156 258 188 q 414 124 350 124 z "},"ď":{"ha":874,"x_min":46,"x_max":1015,"o":"m 378 -14 q 212 31 288 -14 q 91 156 136 75 q 46 349 46 238 q 91 542 46 461 q 211 669 136 624 q 375 714 286 714 q 521 679 460 714 q 622 589 582 644 l 622 1017 l 786 1017 l 786 -4 l 614 104 q 515 19 571 53 q 378 -14 460 -14 m 414 124 q 520 153 472 124 q 597 233 568 182 q 626 350 626 285 q 597 466 626 415 q 519 546 567 517 q 414 575 471 575 q 313 547 360 575 q 237 468 265 518 q 208 350 208 418 q 233 239 208 290 q 304 156 258 188 q 414 124 350 124 m 835 819 l 881 1083 l 1015 1083 l 939 819 l 835 819 z "},"đ":{"ha":854,"x_min":46,"x_max":861,"o":"m 378 -14 q 213 31 289 -14 q 92 156 138 75 q 46 349 46 238 q 91 542 46 461 q 212 669 136 624 q 376 714 288 714 q 522 679 461 714 q 622 589 582 644 l 622 1017 l 786 1017 l 786 -4 l 614 104 q 516 19 571 53 q 378 -14 461 -14 m 414 124 q 521 153 472 124 q 598 233 569 182 q 626 350 626 285 q 597 466 626 415 q 520 546 568 517 q 414 575 472 575 q 313 547 360 575 q 238 468 267 518 q 210 350 210 418 q 235 240 210 290 q 306 156 260 189 q 414 124 351 124 m 458 792 l 458 940 l 861 940 l 861 792 l 458 792 z "},"ð":{"ha":771,"x_min":46,"x_max":725,"o":"m 386 -15 q 258 8 319 -15 q 149 76 197 32 q 74 180 101 119 q 46 314 46 240 q 88 478 46 404 q 203 597 131 553 q 365 640 275 640 q 446 629 413 640 q 502 603 479 618 q 538 578 525 588 q 456 719 506 656 q 344 839 406 782 l 176 732 l 115 794 l 279 899 q 224 945 258 919 q 131 1008 189 971 l 225 1085 q 290 1046 264 1064 q 340 1010 317 1028 q 390 967 363 992 l 563 1075 l 622 1014 l 457 907 q 540 817 494 871 q 628 694 586 764 q 698 537 671 624 q 725 347 725 450 q 694 181 725 250 q 612 69 663 113 q 502 5 561 25 q 386 -15 443 -15 m 389 136 q 476 160 438 136 q 535 226 514 185 q 556 317 556 267 q 535 405 556 364 q 476 471 514 446 q 386 496 438 496 q 299 472 338 496 q 239 407 261 447 q 217 317 217 367 q 239 226 217 268 q 299 160 261 185 q 389 136 338 136 z "},"e":{"ha":776,"x_min":46,"x_max":731,"o":"m 408 -18 q 222 29 304 -18 q 93 158 140 76 q 46 346 46 240 q 90 533 46 450 q 211 664 133 615 q 392 713 289 713 q 530 684 469 713 q 633 606 590 656 q 701 493 676 557 q 731 358 725 429 l 219 231 q 292 143 243 176 q 414 110 340 110 q 505 122 460 110 q 592 156 550 133 q 665 211 633 179 l 665 61 q 547 3 614 24 q 408 -18 479 -18 m 207 347 l 567 440 q 505 542 551 503 q 388 582 458 582 q 285 549 326 582 q 224 464 244 515 q 204 357 204 413 l 207 347 z "},"é":{"ha":776,"x_min":46,"x_max":731,"o":"m 408 -18 q 222 29 304 -18 q 93 158 140 76 q 46 346 46 240 q 90 533 46 450 q 211 664 133 615 q 392 713 289 713 q 530 684 469 713 q 633 606 590 656 q 701 493 676 557 q 731 358 725 429 l 219 231 q 292 143 243 176 q 414 110 340 110 q 505 122 460 110 q 592 156 550 133 q 665 211 633 179 l 665 61 q 547 3 614 24 q 408 -18 479 -18 m 207 347 l 567 440 q 505 542 551 503 q 388 582 458 582 q 285 549 326 582 q 224 464 244 515 q 204 357 204 413 l 207 347 m 338 856 l 469 1079 l 642 1035 l 454 856 l 338 856 z "},"ĕ":{"ha":776,"x_min":46,"x_max":731,"o":"m 408 -18 q 222 29 304 -18 q 93 158 140 76 q 46 346 46 240 q 90 533 46 450 q 211 664 133 615 q 392 713 289 713 q 530 684 469 713 q 633 606 590 656 q 701 493 676 557 q 731 358 725 429 l 219 231 q 292 143 243 176 q 414 110 340 110 q 505 122 460 110 q 592 156 550 133 q 665 211 633 179 l 665 61 q 547 3 614 24 q 408 -18 479 -18 m 207 347 l 567 440 q 505 542 551 503 q 388 582 458 582 q 285 549 326 582 q 224 464 244 515 q 204 357 204 413 l 207 347 m 403 822 q 297 849 343 822 q 223 925 251 876 q 186 1038 194 974 l 286 1038 q 330 964 299 989 q 407 939 361 939 q 481 964 450 939 q 524 1038 511 989 l 621 1038 q 586 925 615 974 q 510 849 557 876 q 403 822 463 822 z "},"ě":{"ha":776,"x_min":46,"x_max":731,"o":"m 408 -18 q 222 29 304 -18 q 93 158 140 76 q 46 346 46 240 q 90 533 46 450 q 211 664 133 615 q 392 713 289 713 q 530 684 469 713 q 633 606 590 656 q 701 493 676 557 q 731 358 725 429 l 219 231 q 292 143 243 176 q 414 110 340 110 q 505 122 460 110 q 592 156 550 133 q 665 211 633 179 l 665 61 q 547 3 614 24 q 408 -18 479 -18 m 207 347 l 567 440 q 505 542 551 503 q 388 582 458 582 q 285 549 326 582 q 224 464 244 515 q 204 357 204 413 l 207 347 m 333 833 l 163 1054 l 294 1054 l 393 944 l 490 1054 l 619 1054 l 449 833 l 333 833 z "},"ê":{"ha":776,"x_min":46,"x_max":731,"o":"m 408 -18 q 222 29 304 -18 q 93 158 140 76 q 46 346 46 240 q 90 533 46 450 q 211 664 133 615 q 392 713 289 713 q 530 684 469 713 q 633 606 590 656 q 701 493 676 557 q 731 358 725 429 l 219 231 q 292 143 243 176 q 414 110 340 110 q 505 122 460 110 q 592 156 550 133 q 665 211 633 179 l 665 61 q 547 3 614 24 q 408 -18 479 -18 m 207 347 l 567 440 q 505 542 551 503 q 388 582 458 582 q 285 549 326 582 q 224 464 244 515 q 204 357 204 413 l 207 347 m 186 863 l 349 1079 l 463 1079 l 625 863 l 504 863 l 406 967 l 307 863 l 186 863 z "},"ë":{"ha":776,"x_min":46,"x_max":731,"o":"m 408 -18 q 222 29 304 -18 q 93 158 140 76 q 46 346 46 240 q 90 533 46 450 q 211 664 133 615 q 392 713 289 713 q 530 684 469 713 q 633 606 590 656 q 701 493 676 557 q 731 358 725 429 l 219 231 q 292 143 243 176 q 414 110 340 110 q 505 122 460 110 q 592 156 550 133 q 665 211 633 179 l 665 61 q 547 3 614 24 q 408 -18 479 -18 m 207 347 l 567 440 q 505 542 551 503 q 388 582 458 582 q 285 549 326 582 q 224 464 244 515 q 204 357 204 413 l 207 347 m 264 871 q 199 896 225 871 q 174 960 174 921 q 199 1024 174 999 q 264 1049 225 1049 q 328 1024 301 1049 q 356 960 356 999 q 328 896 356 921 q 264 871 301 871 m 538 871 q 476 896 501 871 q 450 960 450 921 q 475 1023 450 997 q 538 1049 500 1049 q 602 1024 576 1049 q 628 960 628 999 q 602 896 628 921 q 538 871 576 871 z "},"ė":{"ha":776,"x_min":46,"x_max":731,"o":"m 408 -18 q 222 29 304 -18 q 93 158 140 76 q 46 346 46 240 q 90 533 46 450 q 211 664 133 615 q 392 713 289 713 q 530 684 469 713 q 633 606 590 656 q 701 493 676 557 q 731 358 725 429 l 219 231 q 292 143 243 176 q 414 110 340 110 q 505 122 460 110 q 592 156 550 133 q 665 211 633 179 l 665 61 q 547 3 614 24 q 408 -18 479 -18 m 207 347 l 567 440 q 505 542 551 503 q 388 582 458 582 q 285 549 326 582 q 224 464 244 515 q 204 357 204 413 l 207 347 m 404 843 q 331 871 361 843 q 300 943 300 899 q 330 1016 300 989 q 404 1043 360 1043 q 480 1017 450 1043 q 510 943 510 990 q 480 871 510 899 q 404 843 450 843 z "},"è":{"ha":776,"x_min":46,"x_max":731,"o":"m 408 -18 q 222 29 304 -18 q 93 158 140 76 q 46 346 46 240 q 90 533 46 450 q 211 664 133 615 q 392 713 289 713 q 530 684 469 713 q 633 606 590 656 q 701 493 676 557 q 731 358 725 429 l 219 231 q 292 143 243 176 q 414 110 340 110 q 505 122 460 110 q 592 156 550 133 q 665 211 633 179 l 665 61 q 547 3 614 24 q 408 -18 479 -18 m 207 347 l 567 440 q 505 542 551 503 q 388 582 458 582 q 285 549 326 582 q 224 464 244 515 q 204 357 204 413 l 207 347 m 326 856 l 140 1035 l 310 1079 l 447 856 l 326 856 z "},"ē":{"ha":776,"x_min":46,"x_max":731,"o":"m 408 -18 q 222 29 304 -18 q 93 158 140 76 q 46 346 46 240 q 90 533 46 450 q 211 664 133 615 q 392 713 289 713 q 530 684 469 713 q 633 606 590 656 q 701 493 676 557 q 731 358 725 429 l 219 231 q 292 143 243 176 q 414 110 340 110 q 505 122 460 110 q 592 156 550 133 q 665 211 633 179 l 665 61 q 547 3 614 24 q 408 -18 479 -18 m 207 347 l 567 440 q 505 542 551 503 q 388 582 458 582 q 285 549 326 582 q 224 464 244 515 q 204 357 204 413 l 207 347 m 171 835 l 171 942 l 622 942 l 622 835 l 171 835 z "},"ę":{"ha":776,"x_min":46,"x_max":731,"o":"m 408 -18 q 222 29 304 -18 q 93 158 140 76 q 46 346 46 240 q 90 533 46 450 q 211 664 133 615 q 392 713 289 713 q 530 684 469 713 q 633 606 590 656 q 701 493 676 557 q 731 358 725 429 l 219 231 q 292 143 243 176 q 414 110 340 110 q 505 122 460 110 q 592 156 550 133 q 665 211 633 179 l 665 61 q 547 3 614 24 q 408 -18 479 -18 m 207 347 l 567 440 q 505 542 551 503 q 388 582 458 582 q 285 549 326 582 q 224 464 244 515 q 204 357 204 413 l 207 347 m 571 -292 q 456 -256 501 -292 q 410 -154 410 -219 q 432 -69 410 -108 q 483 1 454 -29 l 665 63 q 579 -26 608 11 q 540 -88 550 -62 q 529 -132 529 -114 q 548 -180 529 -162 q 596 -197 567 -197 q 625 -194 610 -197 q 663 -182 640 -190 l 682 -265 q 625 -285 653 -279 q 571 -292 597 -292 z "},"f":{"ha":483,"x_min":14,"x_max":488,"o":"m 144 0 l 144 563 l 14 563 l 144 696 l 144 771 q 207 963 144 904 q 376 1022 269 1022 q 439 1018 411 1022 q 488 1006 467 1014 l 488 881 q 447 892 468 888 q 404 896 425 896 q 319 863 350 896 q 289 765 289 831 l 289 694 l 472 694 l 472 563 l 304 563 l 304 0 l 144 0 z "},"g":{"ha":881,"x_min":51,"x_max":793,"o":"m 386 -256 q 228 -235 299 -256 q 97 -182 158 -215 l 97 -29 q 182 -79 136 -57 q 279 -114 228 -101 q 386 -126 331 -126 q 567 -73 503 -126 q 632 101 632 -19 l 632 167 q 525 75 585 110 q 381 40 465 40 q 215 83 289 40 q 96 200 140 125 q 51 374 51 275 q 97 553 51 476 q 217 672 142 629 q 381 714 292 714 q 520 683 464 714 q 619 603 576 651 l 793 697 l 793 113 q 741 -90 793 -8 q 598 -214 689 -172 q 386 -256 507 -256 m 422 174 q 528 199 481 174 q 604 272 576 225 q 632 376 632 318 q 604 482 632 436 q 528 554 576 528 q 421 581 481 581 q 316 554 363 581 q 243 483 269 528 q 217 378 217 438 q 243 274 217 319 q 316 201 269 228 q 422 174 363 174 z "},"ğ":{"ha":881,"x_min":51,"x_max":793,"o":"m 386 -256 q 228 -235 299 -256 q 97 -182 158 -215 l 97 -29 q 182 -79 136 -57 q 279 -114 228 -101 q 386 -126 331 -126 q 567 -73 503 -126 q 632 101 632 -19 l 632 167 q 525 75 585 110 q 381 40 465 40 q 215 83 289 40 q 96 200 140 125 q 51 374 51 275 q 97 553 51 476 q 217 672 142 629 q 381 714 292 714 q 520 683 464 714 q 619 603 576 651 l 793 697 l 793 113 q 741 -90 793 -8 q 598 -214 689 -172 q 386 -256 507 -256 m 422 174 q 528 199 481 174 q 604 272 576 225 q 632 376 632 318 q 604 482 632 436 q 528 554 576 528 q 421 581 481 581 q 316 554 363 581 q 243 483 269 528 q 217 378 217 438 q 243 274 217 319 q 316 201 269 228 q 422 174 363 174 m 450 822 q 344 849 390 822 q 270 925 299 876 q 233 1038 242 974 l 333 1038 q 377 964 346 989 q 454 939 408 939 q 528 964 497 939 q 571 1038 558 989 l 668 1038 q 633 925 663 974 q 557 849 604 876 q 450 822 510 822 z "},"ĝ":{"ha":881,"x_min":51,"x_max":793,"o":"m 386 -256 q 228 -235 299 -256 q 97 -182 158 -215 l 97 -29 q 182 -79 136 -57 q 279 -114 228 -101 q 386 -126 331 -126 q 567 -73 503 -126 q 632 101 632 -19 l 632 167 q 525 75 585 110 q 381 40 465 40 q 215 83 289 40 q 96 200 140 125 q 51 374 51 275 q 97 553 51 476 q 217 672 142 629 q 381 714 292 714 q 520 683 464 714 q 619 603 576 651 l 793 697 l 793 113 q 741 -90 793 -8 q 598 -214 689 -172 q 386 -256 507 -256 m 422 174 q 528 199 481 174 q 604 272 576 225 q 632 376 632 318 q 604 482 632 436 q 528 554 576 528 q 421 581 481 581 q 316 554 363 581 q 243 483 269 528 q 217 378 217 438 q 243 274 217 319 q 316 201 269 228 q 422 174 363 174 m 214 863 l 376 1079 l 490 1079 l 653 863 l 532 863 l 433 967 l 335 863 l 214 863 z "},"ģ":{"ha":886,"x_min":51,"x_max":793,"o":"m 386 -256 q 228 -235 299 -256 q 97 -182 158 -215 l 97 -29 q 182 -79 136 -57 q 279 -114 228 -101 q 386 -126 331 -126 q 567 -73 503 -126 q 632 101 632 -19 l 632 167 q 525 75 585 110 q 381 40 465 40 q 215 83 289 40 q 96 200 140 125 q 51 374 51 275 q 97 553 51 476 q 217 672 142 629 q 381 714 292 714 q 520 683 464 714 q 619 603 576 651 l 793 697 l 793 113 q 741 -90 793 -8 q 598 -214 689 -172 q 386 -256 507 -256 m 422 174 q 528 199 481 174 q 604 272 576 225 q 632 376 632 318 q 604 482 632 436 q 528 554 576 528 q 421 581 481 581 q 316 554 363 581 q 243 483 269 528 q 217 378 217 438 q 243 274 217 319 q 316 201 269 228 q 422 174 363 174 m 365 804 l 474 1088 l 594 1088 l 533 804 l 365 804 z "},"ġ":{"ha":860,"x_min":46,"x_max":788,"o":"m 379 -256 q 222 -235 292 -256 q 90 -182 151 -215 l 90 -29 q 175 -79 129 -57 q 272 -114 221 -101 q 379 -126 324 -126 q 560 -73 496 -126 q 625 101 625 -19 l 625 167 q 518 75 578 110 q 374 40 458 40 q 208 83 282 40 q 89 200 133 125 q 44 374 44 275 q 90 553 44 476 q 210 672 135 629 q 374 714 285 714 q 513 683 457 714 q 613 603 569 651 l 786 697 l 786 113 q 734 -90 786 -8 q 591 -214 682 -172 q 379 -256 500 -256 m 415 174 q 522 199 474 174 q 597 272 569 225 q 625 376 625 318 q 597 482 625 436 q 522 554 569 528 q 414 581 474 581 q 309 554 356 581 q 236 483 263 528 q 210 378 210 438 q 236 274 210 319 q 309 201 263 228 q 415 174 356 174 m 435 843 q 361 871 392 843 q 331 943 331 899 q 360 1016 331 989 q 435 1043 390 1043 q 510 1017 481 1043 q 540 943 540 990 q 510 871 540 899 q 435 843 481 843 z "},"h":{"ha":796,"x_min":85,"x_max":718,"o":"m 85 0 l 85 1017 l 243 1017 l 243 601 q 337 680 279 647 q 474 713 394 713 q 608 680 554 713 q 690 587 663 647 q 718 444 718 526 l 718 0 l 554 0 l 554 394 q 518 518 554 478 q 415 558 482 558 q 335 541 374 558 q 272 487 296 524 q 249 394 249 450 l 249 0 l 85 0 z "},"ħ":{"ha":792,"x_min":-12,"x_max":714,"o":"m 81 0 l 81 1017 l 239 1017 l 239 601 q 333 680 275 647 q 469 713 390 713 q 604 680 550 713 q 686 587 658 647 q 714 444 714 526 l 714 0 l 550 0 l 550 394 q 514 518 550 478 q 411 558 478 558 q 331 541 369 558 q 268 487 292 524 q 244 394 244 450 l 244 0 l 81 0 m -12 835 l -12 942 l 439 942 l 439 835 l -12 835 z "},"ĥ":{"ha":833,"x_min":-49,"x_max":722,"o":"m 89 0 l 89 1017 l 247 1017 l 247 601 q 341 680 283 647 q 478 713 399 713 q 613 680 558 713 q 694 587 667 647 q 722 444 722 526 l 722 0 l 558 0 l 558 394 q 522 518 558 478 q 419 558 486 558 q 339 541 378 558 q 276 487 300 524 q 253 394 253 450 l 253 0 l 89 0 m -47 1122 l 115 1339 l 229 1339 l 392 1122 l 271 1122 l 172 1226 l 74 1122 l -47 1122 z "},"i":{"ha":346,"x_min":67,"x_max":278,"o":"m 92 0 l 92 697 l 254 697 l 254 0 l 92 0 m 171 807 q 98 835 129 807 q 67 907 67 863 q 97 981 67 953 q 171 1008 126 1008 q 247 981 217 1008 q 278 907 278 954 q 247 835 278 863 q 171 807 217 807 z "},"ı":{"ha":338,"x_min":85,"x_max":249,"o":"m 85 0 l 85 697 l 249 697 l 249 0 l 85 0 z "},"í":{"ha":338,"x_min":56,"x_max":375,"o":"m 56 0 l 56 697 l 219 697 l 219 0 l 56 0 m 71 856 l 203 1079 l 375 1035 l 188 856 l 71 856 z "},"ĭ":{"ha":338,"x_min":-49,"x_max":386,"o":"m 85 0 l 85 697 l 249 697 l 249 0 l 85 0 m 168 822 q 63 849 108 822 q -12 925 17 876 q -49 1038 -40 974 l 51 1038 q 95 964 64 989 q 172 939 126 939 q 246 964 215 939 q 289 1038 276 989 l 386 1038 q 351 925 381 974 q 275 849 322 876 q 168 822 228 822 z "},"î":{"ha":338,"x_min":-53,"x_max":388,"o":"m 85 0 l 85 697 l 249 697 l 249 0 l 85 0 m -53 863 l 110 1079 l 224 1079 l 386 863 l 265 863 l 167 967 l 68 863 l -53 863 z "},"ï":{"ha":356,"x_min":-50,"x_max":404,"o":"m 93 0 l 93 697 l 257 697 l 257 0 l 93 0 m 40 871 q -24 896 1 871 q -50 960 -50 921 q -24 1024 -50 999 q 40 1049 1 1049 q 105 1024 78 1049 q 132 960 132 999 q 105 896 132 921 q 40 871 78 871 m 314 871 q 252 896 278 871 q 226 960 226 921 q 251 1023 226 997 q 314 1049 276 1049 q 378 1024 353 1049 q 404 960 404 999 q 378 896 404 921 q 314 871 353 871 z "},"ì":{"ha":329,"x_min":-71,"x_max":243,"o":"m 78 0 l 78 697 l 242 697 l 242 0 l 78 0 m 114 856 l -72 1035 l 97 1079 l 235 856 l 114 856 z "},"ī":{"ha":338,"x_min":-57,"x_max":393,"o":"m 85 0 l 85 697 l 249 697 l 249 0 l 85 0 m -58 835 l -58 942 l 393 942 l 393 835 l -58 835 z "},"į":{"ha":346,"x_min":67,"x_max":340,"o":"m 92 0 l 92 697 l 254 697 l 254 0 l 92 0 m 171 807 q 98 835 129 807 q 67 907 67 863 q 97 981 67 953 q 171 1008 126 1008 q 247 981 217 1008 q 278 907 278 954 q 247 835 278 863 q 171 807 217 807 m 228 -293 q 113 -257 158 -293 q 67 -156 67 -221 q 90 -72 67 -111 q 140 0 114 -33 l 254 0 q 202 -79 218 -50 q 186 -136 186 -108 q 205 -181 186 -164 q 253 -199 224 -199 q 282 -195 267 -199 q 319 -183 297 -192 l 339 -267 q 282 -287 310 -281 q 228 -293 254 -293 z "},"ĩ":{"ha":338,"x_min":-69,"x_max":411,"o":"m 85 0 l 85 697 l 249 697 l 249 0 l 85 0 m 28 836 l -69 853 q -10 973 -49 928 q 88 1018 29 1018 q 151 1006 121 1018 q 207 981 181 994 q 256 968 233 968 q 291 983 278 968 q 315 1031 304 997 l 411 1011 q 355 893 389 938 q 265 849 321 849 q 206 862 235 849 q 151 888 178 875 q 99 900 125 900 q 58 885 76 900 q 28 836 39 871 z "},"ĳ":{"ha":667,"x_min":67,"x_max":599,"o":"m 92 0 l 92 697 l 254 697 l 254 0 l 92 0 m 171 807 q 98 835 129 807 q 67 907 67 863 q 97 981 67 953 q 171 1008 126 1008 q 247 981 217 1008 q 278 907 278 954 q 247 835 278 863 q 171 807 217 807 m 383 -256 q 339 -253 358 -256 q 301 -246 319 -250 l 301 -121 q 326 -127 314 -125 q 349 -129 338 -129 q 401 -105 388 -129 q 415 -42 415 -81 l 415 697 l 578 697 l 578 -24 q 560 -147 578 -94 q 501 -227 543 -199 q 383 -256 460 -256 m 493 807 q 418 835 449 807 q 388 907 388 863 q 418 981 388 953 q 493 1008 449 1008 q 567 981 535 1008 q 599 907 599 954 q 567 835 599 863 q 493 807 535 807 z "},"j":{"ha":432,"x_min":67,"x_max":364,"o":"m 149 -256 q 104 -253 124 -256 q 67 -246 85 -250 l 67 -121 q 91 -127 79 -125 q 114 -129 103 -129 q 167 -105 153 -129 q 181 -42 181 -81 l 181 697 l 343 697 l 343 -24 q 326 -147 343 -94 q 267 -227 308 -199 q 149 -256 225 -256 m 258 807 q 183 835 214 807 q 153 907 153 863 q 183 981 153 953 q 258 1008 214 1008 q 332 981 300 1008 q 364 907 364 954 q 332 835 364 863 q 258 807 300 807 z "},"ȷ":{"ha":300,"x_min":-35,"x_max":242,"o":"m 47 -256 q 3 -253 22 -256 q -35 -246 -17 -250 l -35 -121 q -10 -127 -22 -125 q 13 -129 1 -129 q 65 -105 51 -129 q 79 -42 79 -81 l 79 697 l 242 697 l 242 -24 q 224 -147 242 -94 q 165 -227 207 -199 q 47 -256 124 -256 z "},"ĵ":{"ha":300,"x_min":-61,"x_max":378,"o":"m 47 -256 q 3 -253 22 -256 q -35 -246 -17 -250 l -35 -121 q -10 -127 -22 -125 q 13 -129 1 -129 q 65 -105 51 -129 q 79 -42 79 -81 l 79 697 l 242 697 l 242 -24 q 224 -147 242 -94 q 165 -227 207 -199 q 47 -256 124 -256 m -61 863 l 101 1079 l 215 1079 l 378 863 l 257 863 l 158 967 l 60 863 l -61 863 z "},"k":{"ha":696,"x_min":85,"x_max":696,"o":"m 85 0 l 85 1017 l 249 1017 l 249 426 l 488 697 l 685 697 l 396 386 l 696 0 l 506 0 l 249 331 l 249 0 l 85 0 z "},"ķ":{"ha":696,"x_min":85,"x_max":696,"o":"m 85 0 l 85 1017 l 249 1017 l 249 426 l 488 697 l 685 697 l 396 386 l 696 0 l 506 0 l 249 331 l 249 0 l 85 0 m 229 -346 l 275 -82 l 410 -82 l 335 -346 l 229 -346 z "},"ĸ":{"ha":703,"x_min":85,"x_max":696,"o":"m 85 0 l 85 697 l 249 697 l 249 426 l 488 697 l 685 697 l 396 386 l 696 0 l 506 0 l 249 331 l 249 0 l 85 0 z "},"l":{"ha":338,"x_min":85,"x_max":249,"o":"m 85 0 l 85 1017 l 249 1017 l 249 0 l 85 0 z "},"ĺ":{"ha":368,"x_min":100,"x_max":421,"o":"m 100 0 l 100 976 l 269 976 l 269 0 l 100 0 m 118 1071 l 250 1294 l 422 1250 l 235 1071 l 118 1071 z "},"ľ":{"ha":338,"x_min":85,"x_max":503,"o":"m 85 0 l 85 1017 l 249 1017 l 249 0 l 85 0 m 322 819 l 368 1083 l 503 1083 l 426 819 l 322 819 z "},"ļ":{"ha":368,"x_min":51,"x_max":269,"o":"m 100 0 l 100 976 l 269 976 l 269 0 l 100 0 m 51 -346 l 97 -82 l 232 -82 l 157 -346 l 51 -346 z "},"ŀ":{"ha":493,"x_min":85,"x_max":536,"o":"m 85 0 l 85 1017 l 249 1017 l 249 0 l 85 0 m 429 406 q 356 433 386 406 q 325 506 325 461 q 355 578 325 551 q 429 606 385 606 q 505 579 475 606 q 535 506 535 553 q 505 433 535 461 q 429 406 475 406 z "},"ł":{"ha":468,"x_min":49,"x_max":419,"o":"m 49 281 l 49 426 l 419 704 l 419 558 l 49 281 m 154 0 l 154 1017 l 318 1017 l 318 0 l 154 0 z "},"m":{"ha":1224,"x_min":85,"x_max":1147,"o":"m 85 0 l 85 696 l 247 608 q 342 687 286 661 q 463 713 399 713 q 586 684 531 713 q 669 589 642 656 q 769 681 708 649 q 907 713 829 713 q 1040 677 988 713 q 1120 581 1093 642 q 1147 446 1147 521 l 1147 0 l 983 0 l 983 394 q 947 526 983 485 q 847 568 910 568 q 765 544 799 568 q 714 481 731 519 q 697 394 697 442 l 697 0 l 533 0 l 533 394 q 502 519 533 471 q 400 568 471 568 q 319 545 353 568 q 267 483 285 522 q 249 394 249 444 l 249 0 l 85 0 z "},"n":{"ha":796,"x_min":85,"x_max":718,"o":"m 85 0 l 85 697 l 251 604 q 343 682 289 651 q 471 713 397 713 q 606 679 551 713 q 690 585 661 646 q 718 444 718 525 l 718 0 l 554 0 l 554 394 q 533 497 554 458 q 478 551 511 535 q 410 568 446 568 q 338 551 375 568 q 274 497 300 535 q 249 394 249 460 l 249 0 l 85 0 z "},"ń":{"ha":796,"x_min":85,"x_max":718,"o":"m 85 0 l 85 697 l 251 604 q 343 682 289 651 q 471 713 397 713 q 606 679 551 713 q 690 585 661 646 q 718 444 718 525 l 718 0 l 554 0 l 554 394 q 533 497 554 458 q 478 551 511 535 q 410 568 446 568 q 338 551 375 568 q 274 497 300 535 q 249 394 249 460 l 249 0 l 85 0 m 357 856 l 489 1079 l 661 1035 l 474 856 l 357 856 z "},"ň":{"ha":796,"x_min":85,"x_max":718,"o":"m 85 0 l 85 697 l 251 604 q 343 682 289 651 q 471 713 397 713 q 606 679 551 713 q 690 585 661 646 q 718 444 718 525 l 718 0 l 554 0 l 554 394 q 533 497 554 458 q 478 551 511 535 q 410 568 446 568 q 338 551 375 568 q 274 497 300 535 q 249 394 249 460 l 249 0 l 85 0 m 353 833 l 182 1054 l 314 1054 l 413 944 l 510 1054 l 639 1054 l 468 833 l 353 833 z "},"ņ":{"ha":817,"x_min":93,"x_max":725,"o":"m 92 0 l 92 697 l 258 604 q 350 682 296 651 q 478 713 404 713 q 613 679 558 713 q 697 585 668 646 q 725 444 725 525 l 725 0 l 561 0 l 561 394 q 540 497 561 458 q 485 551 518 535 q 417 568 453 568 q 344 551 382 568 q 281 497 307 535 q 256 394 256 460 l 256 0 l 92 0 m 278 -346 l 324 -82 l 458 -82 l 383 -346 l 278 -346 z "},"ñ":{"ha":796,"x_min":85,"x_max":718,"o":"m 85 0 l 85 697 l 251 604 q 343 682 289 651 q 471 713 397 713 q 606 679 551 713 q 690 585 661 646 q 718 444 718 525 l 718 0 l 554 0 l 554 394 q 533 497 554 458 q 478 551 511 535 q 410 568 446 568 q 338 551 375 568 q 274 497 300 535 q 249 394 249 460 l 249 0 l 85 0 m 275 836 l 178 853 q 238 973 199 928 q 335 1018 276 1018 q 398 1006 368 1018 q 454 981 428 994 q 503 968 481 968 q 538 983 525 968 q 563 1031 551 997 l 658 1011 q 602 893 636 938 q 513 849 568 849 q 453 862 482 849 q 399 888 425 875 q 346 900 372 900 q 305 885 324 900 q 275 836 286 871 z "},"ŋ":{"ha":796,"x_min":85,"x_max":718,"o":"m 522 -256 q 476 -253 496 -256 q 439 -246 457 -250 l 439 -121 q 464 -127 451 -125 q 488 -129 476 -129 q 540 -105 525 -129 q 554 -42 554 -81 l 554 394 q 533 497 554 458 q 478 551 511 535 q 410 568 446 568 q 338 551 375 568 q 274 497 300 535 q 249 394 249 460 l 249 0 l 85 0 l 85 697 l 251 604 q 343 682 289 651 q 471 713 397 713 q 601 681 546 713 q 688 590 657 650 q 718 444 718 531 l 718 -24 q 700 -147 718 -94 q 640 -227 682 -199 q 522 -256 597 -256 z "},"o":{"ha":847,"x_min":46,"x_max":801,"o":"m 421 -15 q 228 33 313 -15 q 94 164 143 81 q 46 347 46 247 q 74 490 46 424 q 152 607 101 557 q 272 685 203 657 q 422 714 342 714 q 617 665 532 714 q 752 533 703 615 q 801 350 801 451 q 772 206 801 272 q 690 89 743 139 q 569 12 638 39 q 421 -15 500 -15 m 422 124 q 535 155 486 124 q 611 238 583 186 q 639 349 639 289 q 611 461 639 410 q 535 544 583 513 q 421 575 486 575 q 309 544 357 575 q 235 463 261 514 q 208 350 208 413 q 237 235 208 286 q 314 153 265 183 q 422 124 363 124 z "},"ó":{"ha":847,"x_min":46,"x_max":801,"o":"m 421 -15 q 228 33 313 -15 q 94 164 143 81 q 46 347 46 247 q 74 490 46 424 q 152 607 101 557 q 272 685 203 657 q 422 714 342 714 q 617 665 532 714 q 752 533 703 615 q 801 350 801 451 q 772 206 801 272 q 690 89 743 139 q 569 12 638 39 q 421 -15 500 -15 m 422 124 q 535 155 486 124 q 611 238 583 186 q 639 349 639 289 q 611 461 639 410 q 535 544 583 513 q 421 575 486 575 q 309 544 357 575 q 235 463 261 514 q 208 350 208 413 q 237 235 208 286 q 314 153 265 183 q 422 124 363 124 m 368 856 l 500 1079 l 672 1035 l 485 856 l 368 856 z "},"ŏ":{"ha":847,"x_min":46,"x_max":801,"o":"m 421 -15 q 228 33 313 -15 q 94 164 143 81 q 46 347 46 247 q 74 490 46 424 q 152 607 101 557 q 272 685 203 657 q 422 714 342 714 q 617 665 532 714 q 752 533 703 615 q 801 350 801 451 q 772 206 801 272 q 690 89 743 139 q 569 12 638 39 q 421 -15 500 -15 m 422 124 q 535 155 486 124 q 611 238 583 186 q 639 349 639 289 q 611 461 639 410 q 535 544 583 513 q 421 575 486 575 q 309 544 357 575 q 235 463 261 514 q 208 350 208 413 q 237 235 208 286 q 314 153 265 183 q 422 124 363 124 m 426 822 q 321 849 367 822 q 247 925 275 876 q 210 1038 218 974 l 310 1038 q 353 964 322 989 q 431 939 385 939 q 504 964 474 939 q 547 1038 535 989 l 644 1038 q 610 925 639 974 q 533 849 581 876 q 426 822 486 822 z "},"ô":{"ha":847,"x_min":46,"x_max":801,"o":"m 421 -15 q 228 33 313 -15 q 94 164 143 81 q 46 347 46 247 q 74 490 46 424 q 152 607 101 557 q 272 685 203 657 q 422 714 342 714 q 617 665 532 714 q 752 533 703 615 q 801 350 801 451 q 772 206 801 272 q 690 89 743 139 q 569 12 638 39 q 421 -15 500 -15 m 422 124 q 535 155 486 124 q 611 238 583 186 q 639 349 639 289 q 611 461 639 410 q 535 544 583 513 q 421 575 486 575 q 309 544 357 575 q 235 463 261 514 q 208 350 208 413 q 237 235 208 286 q 314 153 265 183 q 422 124 363 124 m 206 863 l 368 1079 l 482 1079 l 644 863 l 524 863 l 425 967 l 326 863 l 206 863 z "},"ö":{"ha":847,"x_min":46,"x_max":801,"o":"m 421 -15 q 228 33 313 -15 q 94 164 143 81 q 46 347 46 247 q 74 490 46 424 q 152 607 101 557 q 272 685 203 657 q 422 714 342 714 q 617 665 532 714 q 752 533 703 615 q 801 350 801 451 q 772 206 801 272 q 690 89 743 139 q 569 12 638 39 q 421 -15 500 -15 m 422 124 q 535 155 486 124 q 611 238 583 186 q 639 349 639 289 q 611 461 639 410 q 535 544 583 513 q 421 575 486 575 q 309 544 357 575 q 235 463 261 514 q 208 350 208 413 q 237 235 208 286 q 314 153 265 183 q 422 124 363 124 m 286 871 q 222 896 247 871 q 196 960 196 921 q 222 1024 196 999 q 286 1049 247 1049 q 351 1024 324 1049 q 378 960 378 999 q 351 896 378 921 q 286 871 324 871 m 560 871 q 498 896 524 871 q 472 960 472 921 q 497 1023 472 997 q 560 1049 522 1049 q 624 1024 599 1049 q 650 960 650 999 q 624 896 650 921 q 560 871 599 871 z "},"ò":{"ha":847,"x_min":46,"x_max":801,"o":"m 421 -15 q 228 33 313 -15 q 94 164 143 81 q 46 347 46 247 q 74 490 46 424 q 152 607 101 557 q 272 685 203 657 q 422 714 342 714 q 617 665 532 714 q 752 533 703 615 q 801 350 801 451 q 772 206 801 272 q 690 89 743 139 q 569 12 638 39 q 421 -15 500 -15 m 422 124 q 535 155 486 124 q 611 238 583 186 q 639 349 639 289 q 611 461 639 410 q 535 544 583 513 q 421 575 486 575 q 309 544 357 575 q 235 463 261 514 q 208 350 208 413 q 237 235 208 286 q 314 153 265 183 q 422 124 363 124 m 360 856 l 174 1035 l 343 1079 l 481 856 l 360 856 z "},"ő":{"ha":857,"x_min":46,"x_max":801,"o":"m 421 -15 q 228 33 313 -15 q 94 164 143 81 q 46 347 46 247 q 74 490 46 424 q 152 607 101 557 q 272 685 203 657 q 422 714 342 714 q 617 665 532 714 q 752 533 703 615 q 801 350 801 451 q 772 206 801 272 q 690 89 743 139 q 569 12 638 39 q 421 -15 500 -15 m 422 124 q 535 155 486 124 q 611 238 583 186 q 639 349 639 289 q 611 461 639 410 q 535 544 583 513 q 421 575 486 575 q 309 544 357 575 q 235 463 261 514 q 208 350 208 413 q 237 235 208 286 q 314 153 265 183 q 422 124 363 124 m 485 839 l 639 1068 l 793 1038 l 604 839 l 485 839 m 236 839 l 390 1068 l 544 1040 l 356 839 l 236 839 z "},"ō":{"ha":847,"x_min":46,"x_max":801,"o":"m 421 -15 q 228 33 313 -15 q 94 164 143 81 q 46 347 46 247 q 74 490 46 424 q 152 607 101 557 q 272 685 203 657 q 422 714 342 714 q 617 665 532 714 q 752 533 703 615 q 801 350 801 451 q 772 206 801 272 q 690 89 743 139 q 569 12 638 39 q 421 -15 500 -15 m 422 124 q 535 155 486 124 q 611 238 583 186 q 639 349 639 289 q 611 461 639 410 q 535 544 583 513 q 421 575 486 575 q 309 544 357 575 q 235 463 261 514 q 208 350 208 413 q 237 235 208 286 q 314 153 265 183 q 422 124 363 124 m 197 835 l 197 942 l 649 942 l 649 835 l 197 835 z "},"ø":{"ha":828,"x_min":31,"x_max":790,"o":"m 100 -65 l 31 1 l 132 108 q 70 217 92 158 q 49 344 49 275 q 76 485 49 419 q 152 599 103 550 q 269 676 201 649 q 418 704 336 704 q 533 690 479 704 q 632 640 588 675 l 719 735 l 788 668 l 707 578 q 768 474 746 532 q 790 344 790 415 q 763 203 790 268 q 685 88 735 138 q 567 10 635 38 q 418 -17 499 -17 q 301 -1 353 -17 q 204 49 249 15 l 100 -65 m 415 114 q 532 144 483 114 q 607 227 581 175 q 633 344 633 279 q 625 410 633 381 q 601 467 617 440 l 299 150 q 352 123 324 132 q 415 114 381 114 m 236 218 l 536 535 q 485 563 514 553 q 418 572 456 572 q 305 541 353 572 q 231 458 257 510 q 204 344 204 407 q 211 276 204 306 q 236 218 218 246 z "},"ǿ":{"ha":828,"x_min":31,"x_max":790,"o":"m 100 -65 l 31 1 l 132 108 q 70 217 92 158 q 49 344 49 275 q 76 485 49 419 q 152 599 103 550 q 269 676 201 649 q 418 704 336 704 q 533 690 479 704 q 632 640 588 675 l 719 735 l 788 668 l 707 578 q 768 474 746 532 q 790 344 790 415 q 763 203 790 268 q 685 88 735 138 q 567 10 635 38 q 418 -17 499 -17 q 301 -1 353 -17 q 204 49 249 15 l 100 -65 m 415 114 q 532 144 483 114 q 607 227 581 175 q 633 344 633 279 q 625 410 633 381 q 601 467 617 440 l 299 150 q 352 123 324 132 q 415 114 381 114 m 236 218 l 536 535 q 485 563 514 553 q 418 572 456 572 q 305 541 353 572 q 231 458 257 510 q 204 344 204 407 q 211 276 204 306 q 236 218 218 246 m 369 842 l 501 1065 l 674 1021 l 486 842 l 369 842 z "},"õ":{"ha":847,"x_min":46,"x_max":801,"o":"m 421 -15 q 228 33 313 -15 q 94 164 143 81 q 46 347 46 247 q 74 490 46 424 q 152 607 101 557 q 272 685 203 657 q 422 714 342 714 q 617 665 532 714 q 752 533 703 615 q 801 350 801 451 q 772 206 801 272 q 690 89 743 139 q 569 12 638 39 q 421 -15 500 -15 m 422 124 q 535 155 486 124 q 611 238 583 186 q 639 349 639 289 q 611 461 639 410 q 535 544 583 513 q 421 575 486 575 q 309 544 357 575 q 235 463 261 514 q 208 350 208 413 q 237 235 208 286 q 314 153 265 183 q 422 124 363 124 m 289 836 l 192 853 q 251 973 213 928 q 349 1018 290 1018 q 412 1006 382 1018 q 468 981 442 994 q 517 968 494 968 q 552 983 539 968 q 576 1031 565 997 l 672 1011 q 616 893 650 938 q 526 849 582 849 q 467 862 496 849 q 413 888 439 875 q 360 900 386 900 q 319 885 338 900 q 289 836 300 871 z "},"œ":{"ha":1394,"x_min":46,"x_max":1347,"o":"m 1025 -18 q 849 25 924 -18 q 732 144 774 68 q 602 28 682 72 q 421 -15 522 -15 q 228 33 313 -15 q 94 164 143 81 q 46 347 46 247 q 74 490 46 424 q 152 607 101 557 q 272 685 203 657 q 422 714 342 714 q 606 670 525 714 q 735 553 686 626 q 842 669 774 626 q 1008 713 911 713 q 1147 684 1086 713 q 1250 606 1207 656 q 1317 493 1293 557 q 1347 358 1342 429 l 847 231 q 915 143 871 176 q 1031 110 958 110 q 1122 122 1076 110 q 1208 156 1167 133 q 1282 211 1250 179 l 1282 61 q 1163 3 1231 24 q 1025 -18 1096 -18 m 422 124 q 535 155 486 124 q 611 238 583 186 q 639 349 639 289 q 611 461 639 410 q 535 544 583 513 q 421 575 486 575 q 309 544 357 575 q 235 463 261 514 q 208 350 208 413 q 237 235 208 286 q 314 153 265 183 q 422 124 363 124 m 828 358 l 1168 440 q 1106 542 1153 503 q 989 582 1058 582 q 892 550 928 582 q 842 467 857 518 q 828 358 826 417 z "},"p":{"ha":874,"x_min":86,"x_max":829,"o":"m 86 -247 l 86 697 l 261 593 q 360 680 304 646 q 499 714 415 714 q 664 669 589 714 q 784 542 739 624 q 829 350 829 461 q 783 157 829 239 q 661 31 736 75 q 499 -14 586 -14 q 354 19 415 -14 q 250 108 293 51 l 250 -247 l 86 -247 m 458 124 q 565 151 518 124 q 640 231 611 179 q 668 350 668 282 q 642 462 668 411 q 569 542 615 513 q 457 572 522 572 q 351 544 400 572 q 274 465 303 515 q 246 349 246 414 q 276 233 246 283 q 354 153 306 182 q 458 124 403 124 z "},"þ":{"ha":785,"x_min":86,"x_max":740,"o":"m 86 -332 l 86 1075 l 242 1075 l 242 789 q 241 730 242 760 q 240 669 240 700 q 239 606 239 638 q 239 543 239 574 l 242 543 q 322 612 274 585 q 428 643 369 639 q 458 644 443 644 q 489 642 474 644 q 594 605 549 635 q 673 529 640 575 q 723 428 706 483 q 740 315 740 374 q 724 201 740 256 q 674 100 707 146 q 595 25 642 54 q 489 -12 549 -4 q 459 -16 474 -15 q 429 -14 444 -17 q 324 14 372 -11 q 243 83 275 39 l 239 83 l 242 -19 l 242 -332 l 86 -332 m 407 118 q 534 176 486 118 q 582 319 582 235 q 560 415 582 371 q 500 485 539 458 q 406 513 461 513 q 315 485 354 513 q 255 413 276 457 q 233 319 233 369 q 254 222 233 268 q 314 147 275 176 q 407 118 353 118 z "},"q":{"ha":874,"x_min":46,"x_max":786,"o":"m 622 -247 l 622 114 q 519 21 579 57 q 378 -15 460 -15 q 212 31 288 -15 q 91 158 136 76 q 46 349 46 240 q 91 542 46 461 q 212 669 136 624 q 378 714 288 714 q 516 681 461 714 q 614 600 571 649 l 786 697 l 786 -247 l 622 -247 m 417 124 q 523 153 475 124 q 600 234 571 182 q 629 350 629 286 q 600 466 629 415 q 523 546 571 517 q 417 575 475 575 q 311 547 358 575 q 236 468 264 518 q 208 351 208 418 q 235 240 208 293 q 308 156 261 188 q 417 124 354 124 z "},"r":{"ha":510,"x_min":85,"x_max":507,"o":"m 85 0 l 85 697 l 251 597 q 342 680 288 650 q 463 710 397 710 q 487 708 476 710 q 507 706 497 707 l 507 542 q 485 549 497 547 q 458 550 472 550 q 358 528 407 550 q 279 456 310 506 q 249 329 249 407 l 249 0 l 85 0 z "},"ŕ":{"ha":539,"x_min":85,"x_max":535,"o":"m 85 0 l 85 697 l 251 597 q 342 680 288 650 q 463 710 397 710 q 487 708 476 710 q 507 706 497 707 l 507 542 q 485 549 497 547 q 458 550 472 550 q 358 528 407 550 q 279 456 310 506 q 249 329 249 407 l 249 0 l 85 0 m 232 856 l 364 1079 l 536 1035 l 349 856 l 232 856 z "},"ř":{"ha":510,"x_min":67,"x_max":522,"o":"m 85 0 l 85 697 l 251 597 q 342 680 288 650 q 463 710 397 710 q 487 708 476 710 q 507 706 497 707 l 507 542 q 485 549 497 547 q 458 550 472 550 q 358 528 407 550 q 279 456 310 506 q 249 329 249 407 l 249 0 l 85 0 m 236 833 l 65 1054 l 197 1054 l 296 944 l 393 1054 l 522 1054 l 351 833 l 236 833 z "},"ŗ":{"ha":510,"x_min":49,"x_max":507,"o":"m 85 0 l 85 697 l 251 597 q 342 680 288 650 q 463 710 397 710 q 487 708 476 710 q 507 706 497 707 l 507 542 q 485 549 497 547 q 458 550 472 550 q 358 528 407 550 q 279 456 310 506 q 249 329 249 407 l 249 0 l 85 0 m 49 -346 l 94 -82 l 229 -82 l 154 -346 l 49 -346 z "},"s":{"ha":583,"x_min":32,"x_max":540,"o":"m 285 -14 q 146 8 206 -14 q 32 61 86 31 l 32 214 q 108 163 67 186 q 192 124 149 139 q 276 110 236 110 q 329 118 304 110 q 371 144 354 126 q 388 192 388 163 q 363 249 388 226 q 298 288 338 271 q 213 323 258 306 q 128 365 168 340 q 64 427 89 389 q 39 521 39 465 q 68 624 39 581 q 151 690 97 667 q 278 713 206 713 q 352 707 317 713 q 421 689 388 701 q 486 657 454 676 l 486 503 q 420 544 456 525 q 349 576 385 564 q 278 588 314 588 q 213 569 236 588 q 190 526 190 551 q 215 478 190 499 q 281 442 240 458 q 365 407 321 426 q 450 361 410 388 q 515 296 490 335 q 540 199 540 257 q 509 89 540 138 q 420 13 478 40 q 285 -14 363 -14 z "},"ś":{"ha":583,"x_min":32,"x_max":540,"o":"m 285 -14 q 146 8 206 -14 q 32 61 86 31 l 32 214 q 108 163 67 186 q 192 124 149 139 q 276 110 236 110 q 329 118 304 110 q 371 144 354 126 q 388 192 388 163 q 363 249 388 226 q 298 288 338 271 q 213 323 258 306 q 128 365 168 340 q 64 427 89 389 q 39 521 39 465 q 68 624 39 581 q 151 690 97 667 q 278 713 206 713 q 352 707 317 713 q 421 689 388 701 q 486 657 454 676 l 486 503 q 420 544 456 525 q 349 576 385 564 q 278 588 314 588 q 213 569 236 588 q 190 526 190 551 q 215 478 190 499 q 281 442 240 458 q 365 407 321 426 q 450 361 410 388 q 515 296 490 335 q 540 199 540 257 q 509 89 540 138 q 420 13 478 40 q 285 -14 363 -14 m 221 856 l 353 1079 l 525 1035 l 338 856 l 221 856 z "},"š":{"ha":583,"x_min":32,"x_max":540,"o":"m 285 -14 q 146 8 206 -14 q 32 61 86 31 l 32 214 q 108 163 67 186 q 192 124 149 139 q 276 110 236 110 q 329 118 304 110 q 371 144 354 126 q 388 192 388 163 q 363 249 388 226 q 298 288 338 271 q 213 323 258 306 q 128 365 168 340 q 64 427 89 389 q 39 521 39 465 q 68 624 39 581 q 151 690 97 667 q 278 713 206 713 q 352 707 317 713 q 421 689 388 701 q 486 657 454 676 l 486 503 q 420 544 456 525 q 349 576 385 564 q 278 588 314 588 q 213 569 236 588 q 190 526 190 551 q 215 478 190 499 q 281 442 240 458 q 365 407 321 426 q 450 361 410 388 q 515 296 490 335 q 540 199 540 257 q 509 89 540 138 q 420 13 478 40 q 285 -14 363 -14 m 235 842 l 64 1061 l 196 1061 l 294 953 l 392 1061 l 521 1061 l 350 842 l 235 842 z "},"ş":{"ha":583,"x_min":32,"x_max":540,"o":"m 285 -14 q 146 8 206 -14 q 32 61 86 31 l 32 214 q 108 163 67 186 q 192 124 149 139 q 276 110 236 110 q 329 118 304 110 q 371 144 354 126 q 388 192 388 163 q 363 249 388 226 q 298 288 338 271 q 213 323 258 306 q 128 365 168 340 q 64 427 89 389 q 39 521 39 465 q 68 624 39 581 q 151 690 97 667 q 278 713 206 713 q 352 707 317 713 q 421 689 388 701 q 486 657 454 676 l 486 503 q 420 544 456 525 q 349 576 385 564 q 278 588 314 588 q 213 569 236 588 q 190 526 190 551 q 215 478 190 499 q 281 442 240 458 q 365 407 321 426 q 450 361 410 388 q 515 296 490 335 q 540 199 540 257 q 509 89 540 138 q 420 13 478 40 q 285 -14 363 -14 m 229 -318 q 164 -310 196 -318 q 103 -287 132 -303 l 125 -225 q 167 -237 147 -233 q 203 -242 188 -242 q 239 -236 219 -242 q 273 -218 258 -231 q 288 -185 288 -206 q 273 -155 288 -165 q 233 -144 258 -144 q 208 -148 219 -144 q 182 -157 197 -151 l 153 -133 l 242 0 l 333 0 l 275 -97 l 282 -97 q 335 -106 308 -97 q 381 -136 363 -115 q 399 -194 399 -157 q 372 -267 399 -240 q 306 -306 344 -294 q 229 -318 267 -318 z "},"ŝ":{"ha":583,"x_min":32,"x_max":540,"o":"m 285 -14 q 146 8 206 -14 q 32 61 86 31 l 32 214 q 108 163 67 186 q 192 124 149 139 q 276 110 236 110 q 329 118 304 110 q 371 144 354 126 q 388 192 388 163 q 363 249 388 226 q 298 288 338 271 q 213 323 258 306 q 128 365 168 340 q 64 427 89 389 q 39 521 39 465 q 68 624 39 581 q 151 690 97 667 q 278 713 206 713 q 352 707 317 713 q 421 689 388 701 q 486 657 454 676 l 486 503 q 420 544 456 525 q 349 576 385 564 q 278 588 314 588 q 213 569 236 588 q 190 526 190 551 q 215 478 190 499 q 281 442 240 458 q 365 407 321 426 q 450 361 410 388 q 515 296 490 335 q 540 199 540 257 q 509 89 540 138 q 420 13 478 40 q 285 -14 363 -14 m 53 863 l 215 1079 l 329 1079 l 492 863 l 371 863 l 272 967 l 174 863 l 53 863 z "},"ș":{"ha":618,"x_min":64,"x_max":571,"o":"m 315 -14 q 176 8 236 -14 q 63 61 117 31 l 63 214 q 138 163 97 186 q 223 124 179 139 q 307 110 267 110 q 360 118 335 110 q 401 144 385 126 q 418 192 418 163 q 393 249 418 226 q 328 288 368 271 q 244 323 289 306 q 159 365 199 340 q 94 427 119 389 q 69 521 69 465 q 99 624 69 581 q 182 690 128 667 q 308 713 236 713 q 383 707 347 713 q 451 689 418 701 q 517 657 485 676 l 517 503 q 451 544 486 525 q 380 576 415 564 q 308 588 344 588 q 244 569 267 588 q 221 526 221 551 q 246 478 221 499 q 311 442 271 458 q 396 407 351 426 q 481 361 440 388 q 546 296 521 335 q 571 199 571 257 q 540 89 571 138 q 451 13 508 40 q 315 -14 393 -14 m 171 -346 l 217 -82 l 351 -82 l 276 -346 l 171 -346 z "},"ß":{"ha":754,"x_min":14,"x_max":708,"o":"m 307 -4 l 307 119 q 431 138 376 119 q 515 195 485 157 q 546 293 546 233 q 517 387 546 351 q 438 442 489 422 q 318 471 388 463 l 318 575 q 403 617 365 594 q 465 674 442 640 q 488 756 488 707 q 447 860 488 824 q 342 897 407 897 q 249 871 286 897 q 193 801 211 844 q 175 704 175 757 l 175 0 l 14 0 l 14 703 q 50 874 14 797 q 160 995 86 950 q 346 1040 233 1040 q 506 1006 438 1040 q 611 912 574 971 q 649 775 649 853 q 603 628 649 686 q 486 538 557 569 q 595 492 544 526 q 677 406 646 458 q 708 283 708 354 q 676 153 708 208 q 587 62 643 97 q 458 10 531 26 q 307 -4 386 -7 z "},"t":{"ha":515,"x_min":18,"x_max":496,"o":"m 347 -15 q 206 41 256 -15 q 157 189 157 97 l 157 561 l 18 561 l 319 929 l 319 697 l 496 697 l 496 561 l 319 561 l 319 199 q 335 145 319 167 q 385 124 350 124 q 418 128 401 124 q 453 142 435 132 l 453 8 q 405 -10 431 -4 q 347 -15 379 -15 z "},"ŧ":{"ha":515,"x_min":18,"x_max":496,"o":"m 347 -15 q 206 41 256 -15 q 157 189 157 97 l 157 561 l 18 561 l 319 929 l 319 697 l 496 697 l 496 561 l 319 561 l 319 199 q 335 145 319 167 q 385 124 350 124 q 418 128 401 124 q 453 142 435 132 l 453 8 q 405 -10 431 -4 q 347 -15 379 -15 m 33 351 l 33 458 l 490 458 l 490 351 l 33 351 z "},"ť":{"ha":515,"x_min":18,"x_max":560,"o":"m 347 -15 q 206 41 256 -15 q 157 189 157 97 l 157 561 l 18 561 l 319 929 l 319 697 l 496 697 l 496 561 l 319 561 l 319 199 q 335 145 319 167 q 385 124 350 124 q 418 128 401 124 q 453 142 435 132 l 453 8 q 405 -10 431 -4 q 347 -15 379 -15 m 378 819 l 424 1083 l 558 1083 l 482 819 l 378 819 z "},"ţ":{"ha":515,"x_min":18,"x_max":496,"o":"m 347 -15 q 206 41 256 -15 q 157 189 157 97 l 157 561 l 18 561 l 319 929 l 319 697 l 496 697 l 496 561 l 319 561 l 319 199 q 335 145 319 167 q 385 124 350 124 q 418 128 401 124 q 453 142 435 132 l 453 8 q 405 -10 431 -4 q 347 -15 379 -15 m 288 -318 q 222 -310 254 -318 q 161 -287 190 -303 l 183 -225 q 226 -237 206 -233 q 261 -242 246 -242 q 297 -236 278 -242 q 331 -218 317 -231 q 346 -185 346 -206 q 331 -155 346 -165 q 292 -144 317 -144 q 267 -148 278 -144 q 240 -157 256 -151 l 211 -133 l 300 0 l 392 0 l 333 -97 l 340 -97 q 394 -106 367 -97 q 439 -136 421 -115 q 457 -194 457 -157 q 430 -267 457 -240 q 364 -306 403 -294 q 288 -318 325 -318 z "},"ț":{"ha":515,"x_min":18,"x_max":496,"o":"m 347 -15 q 206 41 256 -15 q 157 189 157 97 l 157 561 l 18 561 l 319 929 l 319 697 l 496 697 l 496 561 l 319 561 l 319 199 q 335 145 319 167 q 385 124 350 124 q 418 128 401 124 q 453 142 435 132 l 453 8 q 405 -10 431 -4 q 347 -15 379 -15 m 186 -346 l 232 -82 l 367 -82 l 292 -346 l 186 -346 z "},"u":{"ha":788,"x_min":79,"x_max":710,"o":"m 325 -14 q 140 60 200 -14 q 79 253 79 133 l 79 699 l 243 699 l 243 303 q 264 202 243 240 q 318 147 285 164 q 388 131 351 131 q 461 147 425 131 q 522 201 497 163 q 546 303 546 240 l 546 699 l 710 699 l 710 -6 l 544 86 q 455 14 508 42 q 325 -14 401 -14 z "},"ú":{"ha":788,"x_min":79,"x_max":710,"o":"m 325 -14 q 140 60 200 -14 q 79 253 79 133 l 79 699 l 243 699 l 243 303 q 264 202 243 240 q 318 147 285 164 q 388 131 351 131 q 461 147 425 131 q 522 201 497 163 q 546 303 546 240 l 546 699 l 710 699 l 710 -6 l 544 86 q 455 14 508 42 q 325 -14 401 -14 m 338 856 l 469 1079 l 642 1035 l 454 856 l 338 856 z "},"ŭ":{"ha":788,"x_min":79,"x_max":710,"o":"m 325 -14 q 140 60 200 -14 q 79 253 79 133 l 79 699 l 243 699 l 243 303 q 264 202 243 240 q 318 147 285 164 q 388 131 351 131 q 461 147 425 131 q 522 201 497 163 q 546 303 546 240 l 546 699 l 710 699 l 710 -6 l 544 86 q 455 14 508 42 q 325 -14 401 -14 m 390 822 q 285 849 331 822 q 210 925 239 876 q 174 1038 182 974 l 274 1038 q 317 964 286 989 q 394 939 349 939 q 468 964 438 939 q 511 1038 499 989 l 608 1038 q 574 925 603 974 q 497 849 544 876 q 390 822 450 822 z "},"û":{"ha":788,"x_min":79,"x_max":710,"o":"m 325 -14 q 140 60 200 -14 q 79 253 79 133 l 79 699 l 243 699 l 243 303 q 264 202 243 240 q 318 147 285 164 q 388 131 351 131 q 461 147 425 131 q 522 201 497 163 q 546 303 546 240 l 546 699 l 710 699 l 710 -6 l 544 86 q 455 14 508 42 q 325 -14 401 -14 m 174 863 l 336 1079 l 450 1079 l 613 863 l 492 863 l 393 967 l 294 863 l 174 863 z "},"ü":{"ha":788,"x_min":79,"x_max":710,"o":"m 325 -14 q 140 60 200 -14 q 79 253 79 133 l 79 699 l 243 699 l 243 303 q 264 202 243 240 q 318 147 285 164 q 388 131 351 131 q 461 147 425 131 q 522 201 497 163 q 546 303 546 240 l 546 699 l 710 699 l 710 -6 l 544 86 q 455 14 508 42 q 325 -14 401 -14 m 256 871 q 191 896 217 871 q 165 960 165 921 q 191 1024 165 999 q 256 1049 217 1049 q 320 1024 293 1049 q 347 960 347 999 q 320 896 347 921 q 256 871 293 871 m 529 871 q 467 896 493 871 q 442 960 442 921 q 467 1023 442 997 q 529 1049 492 1049 q 594 1024 568 1049 q 619 960 619 999 q 594 896 619 921 q 529 871 568 871 z "},"ù":{"ha":788,"x_min":79,"x_max":710,"o":"m 325 -14 q 140 60 200 -14 q 79 253 79 133 l 79 699 l 243 699 l 243 303 q 264 202 243 240 q 318 147 285 164 q 388 131 351 131 q 461 147 425 131 q 522 201 497 163 q 546 303 546 240 l 546 699 l 710 699 l 710 -6 l 544 86 q 455 14 508 42 q 325 -14 401 -14 m 375 856 l 189 1035 l 358 1079 l 496 856 l 375 856 z "},"ű":{"ha":838,"x_min":79,"x_max":760,"o":"m 325 -14 q 140 60 200 -14 q 79 253 79 133 l 79 699 l 243 699 l 243 303 q 264 202 243 240 q 318 147 285 164 q 388 131 351 131 q 461 147 425 131 q 522 201 497 163 q 546 303 546 240 l 546 699 l 710 699 l 710 -6 l 544 86 q 455 14 508 42 q 325 -14 401 -14 m 451 839 l 606 1068 l 760 1038 l 571 839 l 451 839 m 203 839 l 357 1068 l 511 1040 l 322 839 l 203 839 z "},"ū":{"ha":788,"x_min":79,"x_max":710,"o":"m 325 -14 q 140 60 200 -14 q 79 253 79 133 l 79 699 l 243 699 l 243 303 q 264 202 243 240 q 318 147 285 164 q 388 131 351 131 q 461 147 425 131 q 522 201 497 163 q 546 303 546 240 l 546 699 l 710 699 l 710 -6 l 544 86 q 455 14 508 42 q 325 -14 401 -14 m 176 835 l 176 942 l 628 942 l 628 835 l 176 835 z "},"ų":{"ha":788,"x_min":79,"x_max":796,"o":"m 325 -14 q 140 60 200 -14 q 79 253 79 133 l 79 699 l 243 699 l 243 303 q 264 202 243 240 q 318 147 285 164 q 388 131 351 131 q 461 147 425 131 q 522 201 497 163 q 546 303 546 240 l 546 699 l 710 699 l 710 -6 l 544 86 q 455 14 508 42 q 325 -14 401 -14 m 683 -293 q 568 -256 614 -293 q 522 -153 522 -218 q 549 -62 522 -107 q 631 43 575 -17 l 710 -6 q 658 -78 674 -49 q 642 -132 642 -108 q 659 -180 642 -161 q 708 -199 676 -199 q 738 -195 722 -199 q 775 -183 753 -192 l 794 -267 q 738 -287 765 -281 q 683 -293 710 -293 z "},"ů":{"ha":788,"x_min":79,"x_max":710,"o":"m 325 -14 q 140 60 200 -14 q 79 253 79 133 l 79 699 l 243 699 l 243 303 q 264 202 243 240 q 318 147 285 164 q 388 131 351 131 q 461 147 425 131 q 522 201 497 163 q 546 303 546 240 l 546 699 l 710 699 l 710 -6 l 544 86 q 455 14 508 42 q 325 -14 401 -14 m 394 817 q 322 836 356 817 q 267 889 288 856 q 246 964 246 922 q 267 1040 246 1007 q 322 1093 288 1074 q 394 1113 356 1113 q 471 1092 436 1113 q 526 1039 506 1072 q 547 963 547 1006 q 526 888 547 921 q 472 836 506 856 q 394 817 438 817 m 396 901 q 444 919 426 901 q 461 964 461 938 q 443 1010 461 993 q 396 1028 425 1028 q 351 1010 369 1028 q 332 965 332 992 q 351 919 332 936 q 396 901 369 901 z "},"ũ":{"ha":788,"x_min":79,"x_max":710,"o":"m 325 -14 q 140 60 200 -14 q 79 253 79 133 l 79 699 l 243 699 l 243 303 q 264 202 243 240 q 318 147 285 164 q 388 131 351 131 q 461 147 425 131 q 522 201 497 163 q 546 303 546 240 l 546 699 l 710 699 l 710 -6 l 544 86 q 455 14 508 42 q 325 -14 401 -14 m 260 836 l 163 853 q 222 973 183 928 q 319 1018 261 1018 q 383 1006 353 1018 q 439 981 413 994 q 488 968 465 968 q 523 983 510 968 q 547 1031 536 997 l 643 1011 q 587 893 621 938 q 497 849 553 849 q 438 862 467 849 q 383 888 410 875 q 331 900 357 900 q 290 885 308 900 q 260 836 271 871 z "},"v":{"ha":718,"x_min":-6,"x_max":724,"o":"m 281 -3 l -6 696 l 169 696 l 361 188 l 551 696 l 724 696 l 435 -3 l 281 -3 z "},"w":{"ha":1057,"x_min":-4,"x_max":1061,"o":"m 225 -3 l -4 697 l 161 697 l 307 215 l 454 699 l 606 699 l 751 217 l 896 697 l 1061 697 l 832 -3 l 681 -3 l 526 493 l 372 -3 l 225 -3 z "},"ẃ":{"ha":1057,"x_min":-4,"x_max":1061,"o":"m 225 -3 l -4 697 l 161 697 l 307 215 l 454 699 l 606 699 l 751 217 l 896 697 l 1061 697 l 832 -3 l 681 -3 l 526 493 l 372 -3 l 225 -3 m 474 842 l 606 1065 l 778 1021 l 590 842 l 474 842 z "},"ŵ":{"ha":1057,"x_min":-4,"x_max":1061,"o":"m 225 -3 l -4 697 l 161 697 l 307 215 l 454 699 l 606 699 l 751 217 l 896 697 l 1061 697 l 832 -3 l 681 -3 l 526 493 l 372 -3 l 225 -3 m 307 863 l 469 1079 l 583 1079 l 746 863 l 625 863 l 526 967 l 428 863 l 307 863 z "},"ẅ":{"ha":1057,"x_min":-4,"x_max":1061,"o":"m 225 -3 l -4 697 l 161 697 l 307 215 l 454 699 l 606 699 l 751 217 l 896 697 l 1061 697 l 832 -3 l 681 -3 l 526 493 l 372 -3 l 225 -3 m 390 871 q 326 896 351 871 q 300 960 300 921 q 326 1024 300 999 q 390 1049 351 1049 q 455 1024 428 1049 q 482 960 482 999 q 455 896 482 921 q 390 871 428 871 m 664 871 q 602 896 628 871 q 576 960 576 921 q 601 1023 576 997 q 664 1049 626 1049 q 728 1024 703 1049 q 754 960 754 999 q 728 896 754 921 q 664 871 703 871 z "},"ẁ":{"ha":1057,"x_min":-4,"x_max":1061,"o":"m 225 -3 l -4 697 l 161 697 l 307 215 l 454 699 l 606 699 l 751 217 l 896 697 l 1061 697 l 832 -3 l 681 -3 l 526 493 l 372 -3 l 225 -3 m 472 856 l 286 1035 l 456 1079 l 593 856 l 472 856 z "},"x":{"ha":722,"x_min":7,"x_max":715,"o":"m 7 0 l 271 357 l 19 696 l 203 696 l 363 474 l 524 696 l 700 696 l 453 360 l 715 0 l 533 0 l 360 242 l 185 0 l 7 0 z "},"y":{"ha":721,"x_min":-6,"x_max":726,"o":"m 210 -247 l 300 -3 l -6 696 l 168 696 l 371 181 l 557 696 l 726 696 l 356 -247 l 210 -247 z "},"ý":{"ha":721,"x_min":-6,"x_max":726,"o":"m 210 -247 l 300 -3 l -6 696 l 168 696 l 371 181 l 557 696 l 726 696 l 356 -247 l 210 -247 m 296 856 l 428 1079 l 600 1035 l 413 856 l 296 856 z "},"ŷ":{"ha":721,"x_min":-6,"x_max":726,"o":"m 210 -247 l 300 -3 l -6 696 l 168 696 l 371 181 l 557 696 l 726 696 l 356 -247 l 210 -247 m 149 863 l 311 1079 l 425 1079 l 588 863 l 467 863 l 368 967 l 269 863 l 149 863 z "},"ÿ":{"ha":721,"x_min":-6,"x_max":726,"o":"m 210 -247 l 300 -3 l -6 696 l 168 696 l 371 181 l 557 696 l 726 696 l 356 -247 l 210 -247 m 231 871 q 166 896 192 871 q 140 960 140 921 q 166 1024 140 999 q 231 1049 192 1049 q 295 1024 268 1049 q 322 960 322 999 q 295 896 322 921 q 231 871 268 871 m 504 871 q 442 896 468 871 q 417 960 417 921 q 442 1023 417 997 q 504 1049 467 1049 q 569 1024 543 1049 q 594 960 594 999 q 569 896 594 921 q 504 871 543 871 z "},"ỳ":{"ha":721,"x_min":-6,"x_max":726,"o":"m 210 -247 l 300 -3 l -6 696 l 168 696 l 371 181 l 557 696 l 726 696 l 356 -247 l 210 -247 m 315 856 l 129 1035 l 299 1079 l 436 856 l 315 856 z "},"z":{"ha":714,"x_min":18,"x_max":682,"o":"m 18 0 l 18 121 l 476 564 l 42 564 l 42 697 l 682 697 l 682 575 l 225 135 l 676 135 l 676 0 l 18 0 z "},"ź":{"ha":714,"x_min":18,"x_max":682,"o":"m 18 0 l 18 121 l 476 564 l 42 564 l 42 697 l 682 697 l 682 575 l 225 135 l 676 135 l 676 0 l 18 0 m 306 856 l 438 1079 l 610 1035 l 422 856 l 306 856 z "},"ž":{"ha":714,"x_min":18,"x_max":682,"o":"m 18 0 l 18 121 l 476 564 l 42 564 l 42 697 l 682 697 l 682 575 l 225 135 l 676 135 l 676 0 l 18 0 m 307 833 l 136 1054 l 268 1054 l 367 944 l 464 1054 l 593 1054 l 422 833 l 307 833 z "},"ż":{"ha":714,"x_min":18,"x_max":682,"o":"m 18 0 l 18 121 l 476 564 l 42 564 l 42 697 l 682 697 l 682 575 l 225 135 l 676 135 l 676 0 l 18 0 m 368 843 q 294 871 325 843 q 264 943 264 899 q 294 1016 264 989 q 368 1043 324 1043 q 444 1017 414 1043 q 474 943 474 990 q 444 871 474 899 q 368 843 414 843 z "},"ﬁ":{"ha":857,"x_min":21,"x_max":761,"o":"m 151 0 l 151 563 l 21 563 l 151 696 l 151 771 q 214 963 151 904 q 383 1022 276 1022 q 446 1018 418 1022 q 494 1006 474 1014 l 494 881 q 453 892 475 888 q 411 896 432 896 q 326 863 357 896 q 296 765 296 831 l 296 694 l 479 694 l 479 563 l 311 563 l 311 0 l 151 0 m 574 0 l 574 697 l 736 697 l 736 0 l 574 0 m 653 807 q 580 835 611 807 q 549 907 549 863 q 578 981 549 953 q 653 1008 608 1008 q 729 981 699 1008 q 760 907 760 954 q 729 835 760 863 q 653 807 699 807 z "},"ﬂ":{"ha":818,"x_min":21,"x_max":721,"o":"m 151 0 l 151 563 l 21 563 l 151 696 l 151 771 q 214 963 151 904 q 383 1022 276 1022 q 446 1018 418 1022 q 494 1006 474 1014 l 494 881 q 453 892 475 888 q 411 896 432 896 q 326 863 357 896 q 296 765 296 831 l 296 694 l 479 694 l 479 563 l 311 563 l 311 0 l 151 0 m 556 0 l 556 1017 l 719 1017 l 719 0 l 556 0 z "},"ª":{"ha":461,"x_min":29,"x_max":411,"o":"m 178 585 q 108 599 142 585 q 54 642 75 614 q 33 711 33 671 q 80 810 33 778 q 201 843 126 843 q 259 838 235 843 q 308 825 283 832 l 308 835 q 282 900 308 879 q 208 921 256 921 q 92 892 149 921 l 68 967 q 140 992 101 982 q 221 1003 178 1003 q 356 961 307 1003 q 404 832 404 919 l 404 593 l 308 593 l 308 646 q 251 601 285 618 q 178 585 218 585 m 29 414 l 29 493 l 411 493 l 411 414 l 29 414 m 206 654 q 276 677 244 654 q 308 742 308 700 l 308 767 q 269 780 290 775 q 221 785 247 785 q 153 767 176 785 q 129 717 129 749 q 151 670 129 686 q 206 654 172 654 z "},"º":{"ha":483,"x_min":29,"x_max":453,"o":"m 240 583 q 134 611 182 583 q 58 687 86 639 q 29 793 29 735 q 57 899 29 851 q 133 976 85 947 q 243 1004 182 1004 q 351 976 304 1004 q 426 900 399 947 q 453 797 453 853 q 425 691 453 739 q 349 613 397 643 q 240 583 301 583 m 42 415 l 42 494 l 442 494 l 442 415 l 42 415 m 243 671 q 326 706 296 671 q 356 793 356 742 q 323 883 356 847 q 240 918 290 918 q 157 882 188 918 q 126 797 126 846 q 159 707 126 743 q 243 671 192 671 z "},"ⁿ":{"ha":547,"x_min":65,"x_max":503,"o":"m 65 543 l 65 1028 l 178 964 q 242 1017 204 996 q 331 1039 279 1039 q 461 988 419 1039 q 503 851 503 936 l 503 543 l 390 543 l 390 818 q 375 889 390 863 q 337 927 360 915 q 289 939 314 939 q 240 927 265 939 q 196 890 214 915 q 178 818 178 864 l 178 543 l 65 543 z "},"Α":{"ha":982,"x_min":-8,"x_max":990,"o":"m -8 0 l 415 979 l 565 979 l 990 0 l 807 0 l 707 240 l 272 240 l 169 0 l -8 0 m 329 381 l 651 381 l 489 781 l 329 381 z "},"Β":{"ha":922,"x_min":100,"x_max":864,"o":"m 100 0 l 100 976 l 451 976 q 620 951 543 976 q 744 873 697 926 q 790 731 790 819 q 753 593 790 651 q 646 508 715 535 q 810 425 757 489 q 864 269 864 361 q 823 133 864 194 q 697 35 782 71 q 479 0 613 0 l 100 0 m 267 142 l 482 142 q 644 179 593 142 q 696 286 696 217 q 640 393 696 356 q 450 431 583 431 l 267 431 l 267 142 m 267 561 l 440 561 q 578 601 533 561 q 624 701 624 640 q 575 803 624 771 q 442 836 526 836 l 267 836 l 267 561 z "},"Γ":{"ha":797,"x_min":100,"x_max":783,"o":"m 100 0 l 100 976 l 783 976 l 783 828 l 269 828 l 269 0 l 100 0 z "},"Δ":{"ha":1014,"x_min":-1,"x_max":1017,"o":"m -1 0 l 431 979 l 583 979 l 1017 0 l -1 0 m 235 140 l 779 140 l 507 786 l 235 140 z "},"Ε":{"ha":885,"x_min":100,"x_max":800,"o":"m 100 0 l 100 976 l 788 976 l 788 829 l 269 829 l 269 565 l 744 565 l 744 425 l 269 425 l 269 147 l 800 147 l 800 0 l 100 0 z "},"Ζ":{"ha":883,"x_min":11,"x_max":857,"o":"m 11 0 l 11 132 l 636 831 l 42 831 l 42 976 l 857 976 l 857 844 l 236 146 l 836 146 l 836 0 l 11 0 z "},"Η":{"ha":1006,"x_min":100,"x_max":906,"o":"m 100 0 l 100 978 l 269 978 l 269 572 l 738 572 l 738 978 l 906 978 l 906 0 l 738 0 l 738 419 l 269 419 l 269 0 l 100 0 z "},"Θ":{"ha":1154,"x_min":65,"x_max":1090,"o":"m 576 -19 q 372 19 465 -19 q 210 128 279 58 q 103 290 140 197 q 65 488 65 382 q 103 685 65 593 q 211 847 142 776 q 374 956 281 917 q 579 996 468 996 q 784 956 692 996 q 946 847 876 917 q 1053 687 1015 778 q 1090 492 1090 596 q 1052 291 1090 383 q 944 129 1014 199 q 780 20 874 60 q 576 -19 686 -19 m 579 132 q 756 180 681 132 q 875 309 832 228 q 918 486 918 390 q 894 623 918 558 q 824 737 869 688 q 716 815 778 786 q 578 844 654 844 q 401 797 478 844 q 280 669 324 749 q 236 492 236 589 q 280 310 236 392 q 401 180 324 228 q 579 132 478 132 m 361 419 l 361 572 l 793 572 l 793 419 l 361 419 z "},"Ι":{"ha":368,"x_min":100,"x_max":269,"o":"m 100 0 l 100 976 l 269 976 l 269 0 l 100 0 z "},"Κ":{"ha":860,"x_min":100,"x_max":864,"o":"m 100 0 l 100 976 l 269 976 l 269 571 l 626 976 l 835 976 l 431 532 l 864 0 l 657 0 l 269 475 l 269 0 l 100 0 z "},"Λ":{"ha":960,"x_min":-8,"x_max":967,"o":"m -8 0 l 404 979 l 554 979 l 967 0 l 785 0 l 478 781 l 169 0 l -8 0 z "},"Μ":{"ha":1075,"x_min":33,"x_max":1039,"o":"m 33 0 l 33 972 l 206 972 l 538 457 l 869 972 l 1039 972 l 1039 0 l 872 0 l 872 710 l 536 201 l 200 708 l 200 0 l 33 0 z "},"Ν":{"ha":1050,"x_min":100,"x_max":950,"o":"m 100 0 l 100 972 l 263 972 l 785 269 l 785 976 l 950 976 l 950 0 l 793 0 l 267 713 l 267 0 l 100 0 z "},"Ξ":{"ha":869,"x_min":85,"x_max":785,"o":"m 85 0 l 85 161 l 785 161 l 785 0 l 85 0 m 140 418 l 140 572 l 729 572 l 729 418 l 140 418 m 97 815 l 97 976 l 772 976 l 772 815 l 97 815 z "},"Ο":{"ha":1154,"x_min":65,"x_max":1090,"o":"m 576 -19 q 372 19 465 -19 q 210 128 279 58 q 103 290 140 197 q 65 488 65 382 q 103 685 65 593 q 210 847 142 776 q 374 956 279 917 q 579 996 468 996 q 783 956 690 996 q 946 847 876 917 q 1053 687 1015 778 q 1090 492 1090 596 q 1052 291 1090 383 q 944 129 1014 199 q 780 20 874 60 q 576 -19 686 -19 m 578 132 q 754 180 678 132 q 874 309 831 228 q 918 486 918 390 q 894 623 918 558 q 824 737 869 688 q 716 815 778 786 q 578 844 654 844 q 401 797 478 844 q 280 669 324 749 q 236 492 236 589 q 280 310 236 392 q 401 180 324 228 q 578 132 478 132 z "},"Π":{"ha":982,"x_min":100,"x_max":882,"o":"m 100 0 l 100 978 l 882 979 l 882 0 l 714 0 l 714 825 l 269 825 l 269 0 l 100 0 z "},"Ρ":{"ha":856,"x_min":100,"x_max":817,"o":"m 100 -3 l 100 976 l 450 976 q 644 940 563 976 q 772 836 726 904 q 817 671 817 768 q 767 497 817 569 q 632 388 718 425 q 439 351 546 351 l 269 351 l 269 -3 l 100 -3 m 269 492 l 436 492 q 592 537 536 492 q 647 663 647 582 q 592 790 647 747 q 436 832 538 832 l 269 832 l 269 492 z "},"Σ":{"ha":868,"x_min":11,"x_max":818,"o":"m 11 0 l 11 132 l 338 490 l 28 844 l 28 976 l 808 976 l 808 831 l 247 831 l 547 490 l 236 146 l 818 146 l 818 0 l 11 0 z "},"Τ":{"ha":776,"x_min":13,"x_max":764,"o":"m 304 0 l 304 828 l 13 828 l 13 976 l 764 976 l 764 828 l 472 828 l 472 0 l 304 0 z "},"Υ":{"ha":904,"x_min":-6,"x_max":910,"o":"m 368 0 l 368 381 l -6 976 l 189 976 l 456 538 l 722 976 l 910 976 l 538 382 l 538 0 l 368 0 z "},"Φ":{"ha":1246,"x_min":60,"x_max":1188,"o":"m 543 -7 l 543 72 q 516 74 529 74 q 489 78 503 75 q 253 148 349 90 q 108 294 157 206 q 60 489 60 382 q 108 685 60 596 q 253 831 157 774 q 489 901 349 889 q 516 906 503 904 q 543 907 529 907 l 543 983 l 707 983 l 707 907 q 735 906 722 907 q 763 901 749 904 q 995 831 900 889 q 1139 684 1090 772 q 1188 492 1188 596 q 1139 296 1188 385 q 995 150 1090 207 q 763 78 900 93 q 735 74 749 75 q 707 72 722 74 l 707 -7 l 543 -7 m 543 218 l 543 758 q 375 720 446 754 q 267 627 304 686 q 231 490 231 568 q 267 353 231 413 q 375 260 304 294 q 543 218 446 225 m 707 218 q 876 260 807 225 q 979 353 944 294 q 1014 488 1014 411 q 979 622 1014 563 q 876 717 944 682 q 707 758 808 753 l 707 218 z "},"Χ":{"ha":910,"x_min":8,"x_max":900,"o":"m 8 0 l 357 499 l 25 976 l 221 976 l 458 628 l 693 976 l 882 976 l 554 501 l 900 0 l 707 0 l 454 372 l 201 0 l 8 0 z "},"Ψ":{"ha":1171,"x_min":90,"x_max":1079,"o":"m 500 0 l 500 185 q 283 234 375 185 q 141 380 192 283 q 90 618 90 476 l 90 976 l 257 976 l 257 614 q 283 469 257 532 q 364 372 310 407 q 500 338 418 338 l 500 976 l 668 976 l 668 338 q 805 372 751 338 q 885 469 858 407 q 913 614 913 532 l 913 976 l 1079 976 l 1079 619 q 969 295 1079 406 q 668 185 860 185 l 668 0 l 500 0 z "},"Ω":{"ha":1204,"x_min":88,"x_max":1117,"o":"m 88 0 l 88 147 l 326 147 q 213 249 261 188 q 140 385 165 310 q 114 536 114 460 q 152 726 114 640 q 258 872 190 811 q 414 964 325 932 q 604 996 503 996 q 852 939 742 996 q 1026 778 963 882 q 1089 532 1089 675 q 1064 383 1089 456 q 992 249 1039 310 q 876 147 944 188 l 1117 147 l 1117 0 l 682 0 l 682 153 q 806 245 754 193 q 888 364 858 297 q 917 515 917 431 q 878 685 917 611 q 770 802 840 760 q 603 844 700 844 q 435 802 506 844 q 326 686 364 760 q 288 515 288 613 q 353 299 288 390 q 526 153 418 208 l 526 0 l 88 0 z "},"Ά":{"ha":1054,"x_min":-24,"x_max":1064,"o":"m 64 0 l 488 979 l 638 979 l 1063 0 l 879 0 l 779 240 l 344 240 l 242 0 l 64 0 m 401 381 l 724 381 l 561 781 l 401 381 m -22 842 l 110 1065 l 326 1065 l 93 842 l -22 842 z "},"Έ":{"ha":967,"x_min":-164,"x_max":882,"o":"m 181 0 l 181 976 l 868 976 l 868 829 l 350 829 l 350 565 l 825 565 l 825 425 l 350 425 l 350 147 l 881 147 l 881 0 l 181 0 m -162 842 l -31 1065 l 186 1065 l -47 842 l -162 842 z "},"Ή":{"ha":1099,"x_min":-164,"x_max":999,"o":"m 194 0 l 194 978 l 364 978 l 364 572 l 832 572 l 832 978 l 1000 978 l 1000 0 l 832 0 l 832 419 l 364 419 l 364 0 l 194 0 m -162 842 l -31 1065 l 186 1065 l -47 842 l -162 842 z "},"Ί":{"ha":368,"x_min":-224,"x_max":269,"o":"m 100 0 l 100 976 l 269 976 l 269 0 l 100 0 m -222 842 l -90 1065 l 126 1065 l -107 842 l -222 842 z "},"Ό":{"ha":1194,"x_min":-87,"x_max":1131,"o":"m 617 -19 q 413 19 506 -19 q 250 128 319 58 q 143 290 181 197 q 106 488 106 382 q 144 685 106 593 q 251 847 182 776 q 414 956 319 917 q 619 996 508 996 q 824 956 731 996 q 986 847 917 917 q 1093 687 1056 778 q 1131 492 1131 596 q 1092 291 1131 383 q 984 129 1054 199 q 820 20 914 60 q 617 -19 726 -19 m 618 132 q 794 180 718 132 q 915 309 871 228 q 958 486 958 390 q 934 623 958 558 q 864 737 910 688 q 756 815 818 786 q 618 844 694 844 q 441 797 518 844 q 320 669 364 749 q 276 492 276 589 q 320 310 276 392 q 441 180 364 228 q 618 132 518 132 m -87 842 l 44 1065 l 261 1065 l 28 842 l -87 842 z "},"Ύ":{"ha":1057,"x_min":-215,"x_max":1061,"o":"m 519 0 l 519 381 l 146 976 l 340 976 l 607 538 l 874 976 l 1061 976 l 689 382 l 689 0 l 519 0 m -215 842 l -83 1065 l 133 1065 l -100 842 l -215 842 z "},"Ώ":{"ha":1208,"x_min":-68,"x_max":1121,"o":"m 92 0 l 92 147 l 331 147 q 217 249 265 188 q 144 385 169 310 q 118 536 118 460 q 156 726 118 640 q 262 872 194 811 q 418 964 329 932 q 608 996 507 996 q 856 939 746 996 q 1030 778 967 882 q 1093 532 1093 675 q 1068 383 1093 456 q 996 249 1043 310 q 881 147 949 188 l 1121 147 l 1121 0 l 686 0 l 686 153 q 810 245 758 193 q 892 364 863 297 q 921 515 921 431 q 883 685 921 611 q 774 802 844 760 q 607 844 704 844 q 439 802 510 844 q 330 686 368 760 q 292 515 292 613 q 357 299 292 390 q 531 153 422 208 l 531 0 l 92 0 m -67 842 l 65 1065 l 282 1065 l 49 842 l -67 842 z "},"Ϊ":{"ha":392,"x_min":-47,"x_max":424,"o":"m 110 0 l 110 976 l 279 976 l 279 0 l 110 0 m 47 1100 q -22 1126 6 1100 q -49 1194 -49 1151 q -22 1262 -49 1236 q 47 1288 6 1288 q 115 1262 86 1288 q 144 1194 144 1236 q 115 1126 144 1151 q 47 1100 86 1100 m 328 1100 q 262 1126 289 1100 q 235 1194 235 1151 q 261 1261 235 1235 q 328 1288 288 1288 q 397 1262 371 1288 q 424 1194 424 1236 q 397 1126 424 1151 q 328 1100 371 1100 z "},"Ϋ":{"ha":904,"x_min":-6,"x_max":910,"o":"m 368 0 l 368 381 l -6 976 l 189 976 l 456 538 l 722 976 l 910 976 l 538 382 l 538 0 l 368 0 m 315 1100 q 247 1126 274 1100 q 219 1194 219 1151 q 247 1262 219 1236 q 315 1288 274 1288 q 383 1262 354 1288 q 413 1194 413 1236 q 383 1126 413 1151 q 315 1100 354 1100 m 596 1100 q 530 1126 557 1100 q 503 1194 503 1151 q 529 1261 503 1235 q 596 1288 556 1288 q 665 1262 639 1288 q 692 1194 692 1236 q 665 1126 692 1151 q 596 1100 639 1100 z "},"Ϗ":{"ha":860,"x_min":100,"x_max":864,"o":"m 447 -306 q 292 -287 367 -306 q 140 -233 217 -268 l 140 -81 q 237 -128 183 -106 q 345 -164 290 -150 q 447 -178 400 -178 q 569 -156 515 -178 q 656 -103 624 -135 q 689 -40 689 -71 l 269 475 l 269 0 l 100 0 l 100 976 l 269 976 l 269 571 l 626 976 l 835 976 l 431 532 l 864 0 q 832 -117 864 -61 q 744 -215 800 -172 q 611 -281 688 -257 q 447 -306 535 -306 z "},"α":{"ha":875,"x_min":46,"x_max":786,"o":"m 378 -15 q 240 14 301 -15 q 135 94 179 43 q 69 210 92 144 q 46 349 46 276 q 69 488 46 422 q 135 604 92 554 q 240 684 178 654 q 378 714 301 714 q 517 680 458 714 q 622 585 575 646 l 622 697 l 786 697 l 786 0 l 622 114 q 517 19 571 54 q 378 -15 463 -15 m 417 124 q 527 155 479 124 q 602 238 575 186 q 629 350 629 290 q 602 461 629 410 q 528 544 575 513 q 417 575 481 575 q 306 544 353 575 q 234 463 260 514 q 208 349 208 411 q 235 238 208 290 q 308 155 261 186 q 417 124 356 124 z "},"β":{"ha":860,"x_min":85,"x_max":814,"o":"m 85 -247 l 85 688 q 124 856 85 781 q 242 977 164 932 q 435 1022 319 1022 q 607 989 535 1022 q 719 896 679 956 q 758 760 758 836 q 713 624 758 676 q 592 539 667 572 q 712 496 663 531 q 788 406 761 461 q 814 282 814 351 q 772 128 814 196 q 660 24 731 61 q 507 -14 590 -14 q 358 21 424 -14 q 249 111 292 56 l 249 -247 l 85 -247 m 479 125 q 567 147 528 125 q 628 208 606 169 q 650 296 650 247 q 594 419 650 371 q 417 474 538 468 l 417 576 q 514 606 474 585 q 575 660 554 626 q 596 738 596 693 q 549 844 596 808 q 433 881 501 881 q 331 854 372 881 q 269 784 290 828 q 249 686 249 740 l 249 349 q 280 233 249 283 q 364 153 311 182 q 479 125 417 125 z "},"γ":{"ha":717,"x_min":-6,"x_max":724,"o":"m 278 -247 l 278 8 l -6 696 l 169 696 l 361 188 l 551 696 l 724 696 l 442 11 l 442 -247 l 278 -247 z "},"δ":{"ha":843,"x_min":46,"x_max":799,"o":"m 421 -15 q 230 32 315 -15 q 95 160 144 79 q 46 340 46 240 q 74 477 46 414 q 153 585 103 540 q 268 653 203 631 q 407 668 333 675 l 118 886 l 118 1022 l 696 1022 l 696 886 l 363 886 l 588 697 q 694 600 646 653 q 770 485 742 547 q 799 342 799 422 q 749 160 799 240 q 613 32 699 79 q 421 -15 528 -15 m 422 124 q 535 155 488 124 q 610 235 583 186 q 636 339 636 285 q 610 446 636 400 q 537 519 583 492 q 428 546 490 546 q 314 519 364 546 q 236 446 264 492 q 208 342 208 400 q 235 234 208 285 q 309 153 261 183 q 422 124 357 124 z "},"ε":{"ha":633,"x_min":46,"x_max":576,"o":"m 344 -15 q 197 11 265 -15 q 88 85 129 38 q 46 194 46 132 q 88 301 46 256 q 206 364 129 346 q 108 431 140 388 q 75 528 75 475 q 111 630 75 589 q 208 692 147 671 q 343 714 269 714 q 453 701 399 714 q 563 660 508 688 l 521 524 q 431 565 474 554 q 353 575 389 575 q 271 558 304 575 q 238 506 238 540 q 277 447 238 468 q 383 426 317 426 l 440 426 l 440 301 l 372 301 q 247 274 286 301 q 208 211 208 247 q 235 158 208 178 q 296 131 261 139 q 357 124 331 124 q 441 133 396 124 q 544 172 486 143 l 576 36 q 460 -3 519 10 q 344 -15 401 -15 z "},"ζ":{"ha":596,"x_min":46,"x_max":596,"o":"m 554 -232 l 407 -218 q 428 -163 421 -192 q 435 -112 435 -135 q 427 -71 435 -90 q 397 -35 419 -51 q 329 -11 375 -19 q 182 44 246 6 q 82 149 118 83 q 46 311 46 215 q 140 610 46 461 q 418 888 235 758 l 110 888 l 110 1022 l 596 1022 l 596 878 q 442 760 513 826 q 319 621 372 694 q 237 470 265 547 q 208 319 208 393 q 251 190 208 242 q 394 117 293 138 q 547 41 503 96 q 590 -83 590 -14 q 579 -163 590 -126 q 554 -232 568 -200 z "},"η":{"ha":796,"x_min":85,"x_max":718,"o":"m 85 0 l 85 697 l 251 604 q 343 682 289 651 q 471 713 397 713 q 606 679 551 713 q 690 585 661 646 q 718 444 718 525 l 718 0 l 554 0 l 554 394 q 533 497 554 458 q 478 551 511 535 q 410 568 446 568 q 338 551 375 568 q 274 497 300 535 q 249 394 249 460 l 249 0 l 85 0 z "},"θ":{"ha":842,"x_min":50,"x_max":792,"o":"m 421 -15 q 245 31 317 -15 q 131 154 174 78 q 69 321 89 231 q 50 497 50 411 q 71 688 50 594 q 135 858 92 782 q 250 978 179 933 q 422 1022 321 1022 q 596 976 525 1022 q 710 854 667 931 q 772 688 753 778 q 792 510 792 597 q 781 365 792 439 q 744 224 769 292 q 676 101 719 156 q 569 16 632 47 q 421 -15 507 -15 m 419 124 q 518 158 479 124 q 580 243 557 192 q 614 351 603 294 q 626 453 625 407 l 217 453 q 237 319 221 379 q 279 215 253 258 q 342 147 306 171 q 419 124 378 124 m 218 586 l 626 586 q 610 681 622 629 q 575 778 599 732 q 513 855 551 825 q 421 885 475 885 q 328 855 365 885 q 267 778 290 825 q 233 679 244 731 q 218 586 221 628 z "},"ι":{"ha":329,"x_min":85,"x_max":249,"o":"m 85 0 l 85 697 l 249 697 l 249 0 l 85 0 z "},"κ":{"ha":703,"x_min":85,"x_max":696,"o":"m 85 0 l 85 697 l 249 697 l 249 426 l 488 697 l 685 697 l 396 386 l 696 0 l 506 0 l 249 331 l 249 0 l 85 0 z "},"λ":{"ha":732,"x_min":3,"x_max":736,"o":"m 3 0 l 282 717 l 282 718 q 267 758 279 729 q 240 819 256 788 q 205 872 224 850 q 167 894 186 894 q 123 885 144 894 q 82 865 101 876 l 46 994 q 114 1015 79 1007 q 186 1022 149 1022 q 270 1003 235 1022 q 331 953 306 985 q 373 884 356 922 q 407 806 390 846 l 736 0 l 565 0 l 365 532 l 179 0 l 3 0 z "},"μ":{"ha":817,"x_min":90,"x_max":721,"o":"m 90 -247 l 90 699 l 254 699 l 254 303 q 274 204 254 243 q 327 147 294 165 q 396 129 360 129 q 510 173 463 129 q 557 303 557 217 l 557 699 l 721 699 l 721 0 l 556 92 q 487 15 529 43 q 393 -14 444 -14 q 312 9 349 -14 q 254 75 275 32 l 254 -247 l 90 -247 z "},"ν":{"ha":728,"x_min":0,"x_max":729,"o":"m 286 -3 l 0 696 l 175 696 l 367 188 l 557 696 l 729 696 l 440 -3 l 286 -3 z "},"ξ":{"ha":596,"x_min":46,"x_max":579,"o":"m 546 -232 l 399 -218 q 417 -166 410 -192 q 425 -117 425 -140 q 419 -81 425 -103 q 391 -40 414 -60 q 315 -11 368 -19 q 183 37 244 1 q 84 130 122 72 q 46 267 46 188 q 74 384 46 331 q 150 475 101 438 q 263 526 199 513 q 152 601 193 554 q 111 711 111 649 q 148 817 111 771 q 254 886 185 864 l 92 886 l 92 1022 l 578 1022 l 578 881 q 468 875 522 881 q 370 853 414 869 q 299 805 326 836 q 272 725 272 774 q 323 629 272 665 q 492 593 374 593 l 492 458 q 344 442 408 458 q 244 390 281 426 q 208 286 208 353 q 253 174 208 217 q 385 117 299 132 q 506 69 464 100 q 564 -2 549 38 q 579 -82 579 -42 q 569 -162 579 -125 q 546 -232 560 -200 z "},"ο":{"ha":847,"x_min":46,"x_max":801,"o":"m 421 -15 q 228 33 313 -15 q 94 164 143 81 q 46 347 46 247 q 74 490 46 424 q 152 607 101 557 q 272 685 203 657 q 422 714 342 714 q 617 665 532 714 q 752 533 703 615 q 801 350 801 451 q 772 206 801 272 q 690 89 743 139 q 569 12 638 39 q 421 -15 500 -15 m 422 124 q 535 155 486 124 q 611 238 583 186 q 639 349 639 289 q 611 461 639 410 q 535 544 583 513 q 421 575 486 575 q 309 544 357 575 q 235 463 261 514 q 208 350 208 413 q 237 235 208 286 q 314 153 265 183 q 422 124 363 124 z "},"π":{"ha":782,"x_min":85,"x_max":704,"o":"m 85 0 l 85 697 l 704 697 l 704 0 l 540 0 l 540 564 l 249 564 l 249 0 l 85 0 z "},"ρ":{"ha":867,"x_min":79,"x_max":822,"o":"m 79 -247 l 79 350 q 128 540 79 458 q 260 668 176 622 q 451 714 344 714 q 640 668 557 714 q 773 541 724 622 q 822 350 822 460 q 799 212 822 278 q 733 95 776 146 q 628 15 690 44 q 489 -14 565 -14 q 350 17 411 -14 q 243 108 289 47 l 243 -247 l 79 -247 m 453 124 q 564 156 518 124 q 634 240 610 188 q 658 350 658 292 q 632 462 658 411 q 558 542 606 513 q 447 572 511 572 q 341 542 389 572 q 265 461 293 513 q 238 343 238 410 q 265 231 238 281 q 342 153 293 182 q 453 124 392 124 z "},"ς":{"ha":710,"x_min":61,"x_max":615,"o":"m 554 -232 l 406 -218 q 430 -167 419 -193 q 440 -110 440 -140 q 424 -67 440 -85 q 380 -34 408 -49 q 313 -6 351 -19 q 181 72 238 22 q 92 191 124 121 q 61 351 61 261 q 103 534 61 453 q 222 663 146 615 q 400 711 297 711 q 515 695 460 711 q 615 643 569 679 l 563 525 q 488 560 531 547 q 406 574 446 574 q 306 542 347 574 q 244 463 265 511 q 222 360 222 414 q 250 242 222 290 q 322 164 278 194 q 419 113 367 133 q 510 66 471 93 q 571 2 549 39 q 593 -86 593 -35 q 582 -161 593 -125 q 554 -232 571 -197 z "},"σ":{"ha":894,"x_min":46,"x_max":876,"o":"m 421 -15 q 228 33 313 -15 q 94 161 143 81 q 46 339 46 242 q 73 473 46 408 q 151 588 100 538 q 276 668 203 639 q 443 697 350 697 l 876 697 l 876 561 l 676 561 q 771 462 740 522 q 801 333 801 401 q 769 194 801 258 q 684 83 738 131 q 562 10 631 36 q 421 -15 493 -15 m 422 124 q 535 153 486 124 q 611 231 583 182 q 639 340 639 281 q 581 497 639 436 q 425 558 522 558 q 310 530 358 558 q 235 452 263 501 q 208 342 208 403 q 236 235 208 286 q 313 154 264 185 q 422 124 363 124 z "},"τ":{"ha":557,"x_min":18,"x_max":539,"o":"m 385 -15 q 247 36 299 -15 q 196 189 196 88 l 196 561 l 18 561 l 18 697 l 539 697 l 539 561 l 357 561 l 357 210 q 373 147 357 169 q 426 124 389 124 q 460 128 443 124 q 492 143 478 133 l 492 8 q 443 -9 469 -3 q 385 -15 417 -15 z "},"υ":{"ha":788,"x_min":79,"x_max":710,"o":"m 396 -15 q 159 67 239 -15 q 79 311 79 150 l 79 699 l 243 699 l 243 293 q 279 174 243 222 q 394 126 315 126 q 506 175 467 126 q 546 293 546 224 l 546 699 l 710 699 l 710 315 q 674 135 710 210 q 569 23 639 61 q 396 -15 500 -15 z "},"φ":{"ha":1068,"x_min":50,"x_max":1022,"o":"m 453 -244 l 453 -11 q 249 44 340 -3 q 104 177 158 92 q 50 383 50 263 q 90 565 50 478 q 204 719 131 651 l 374 719 q 248 551 286 631 q 210 399 210 472 q 237 260 210 321 q 318 163 264 199 q 453 122 372 126 l 453 321 q 462 465 453 394 q 498 594 471 536 q 581 688 525 653 q 728 722 636 722 q 890 681 824 722 q 989 565 956 639 q 1022 392 1022 490 q 993 234 1022 306 q 910 110 964 163 q 782 26 857 57 q 615 -10 707 -4 l 615 -244 l 453 -244 m 615 124 q 798 194 736 131 q 863 381 860 257 q 853 471 864 424 q 813 551 842 518 q 731 583 783 583 q 672 564 699 583 q 631 499 646 544 q 615 374 615 453 l 615 124 z "},"χ":{"ha":721,"x_min":7,"x_max":715,"o":"m 7 -247 l 272 250 l 19 696 l 203 696 l 363 403 l 524 696 l 700 696 l 447 256 l 715 -247 l 532 -247 l 358 96 l 182 -247 l 7 -247 z "},"ψ":{"ha":1061,"x_min":79,"x_max":983,"o":"m 450 -247 l 450 -14 q 301 7 369 -14 q 184 70 233 28 q 107 176 135 113 q 79 325 79 240 l 79 699 l 243 699 l 243 329 q 260 228 243 268 q 307 167 278 189 q 374 135 336 144 q 450 126 411 126 l 450 1017 l 614 1017 l 614 126 q 688 137 651 126 q 754 170 724 147 q 802 232 785 193 q 819 326 819 271 l 819 699 l 983 699 l 983 328 q 954 170 983 235 q 874 65 925 106 q 756 5 822 24 q 614 -14 689 -14 l 614 -247 l 450 -247 z "},"ω":{"ha":1126,"x_min":46,"x_max":1082,"o":"m 344 -15 q 183 33 250 -15 q 81 166 117 82 q 46 353 46 250 q 86 551 46 460 q 204 719 126 642 l 378 719 q 278 594 315 654 q 225 476 242 535 q 208 356 208 418 q 226 233 208 288 q 275 147 243 178 q 350 115 307 115 q 413 138 388 115 q 452 195 438 160 q 473 271 467 231 q 479 346 479 311 l 479 528 l 644 528 l 644 346 q 663 210 644 261 q 712 138 682 160 q 776 115 742 115 q 852 146 821 115 q 901 231 883 176 q 919 356 919 286 q 903 475 919 417 q 849 594 886 533 q 749 719 811 654 l 924 719 q 1041 553 1000 643 q 1082 353 1082 463 q 1046 164 1082 247 q 942 33 1010 81 q 781 -15 875 -15 q 648 19 701 -15 q 564 106 594 53 q 474 17 529 49 q 344 -15 419 -15 z "},"ί":{"ha":329,"x_min":85,"x_max":461,"o":"m 85 0 l 85 697 l 249 697 l 249 0 l 85 0 m 113 913 l 244 1136 l 461 1136 l 228 913 l 113 913 z "},"ϊ":{"ha":383,"x_min":-44,"x_max":410,"o":"m 99 0 l 99 697 l 263 697 l 263 0 l 99 0 m 46 871 q -19 896 7 871 q -44 960 -44 921 q -19 1024 -44 999 q 46 1049 7 1049 q 110 1024 83 1049 q 138 960 138 999 q 110 896 138 921 q 46 871 83 871 m 319 871 q 258 896 283 871 q 232 960 232 921 q 257 1023 232 997 q 319 1049 282 1049 q 384 1024 358 1049 q 410 960 410 999 q 384 896 410 921 q 319 871 358 871 z "},"ΐ":{"ha":506,"x_min":-61,"x_max":563,"o":"m 156 0 l 156 697 l 319 697 l 319 0 l 156 0 m 122 904 l 235 1128 l 438 1128 l 232 904 l 122 904 m 29 900 q -34 926 -7 900 q -61 990 -61 953 q -35 1055 -61 1029 q 29 1081 -8 1081 q 93 1055 65 1081 q 121 990 121 1029 q 93 926 121 953 q 29 900 65 900 m 472 903 q 410 929 435 903 q 385 993 385 956 q 409 1056 385 1028 q 472 1083 433 1083 q 538 1056 513 1083 q 563 993 563 1028 q 538 929 563 956 q 472 903 513 903 z "},"ύ":{"ha":788,"x_min":79,"x_max":710,"o":"m 396 -15 q 159 67 239 -15 q 79 311 79 150 l 79 699 l 243 699 l 243 293 q 279 174 243 222 q 394 126 315 126 q 506 175 467 126 q 546 293 546 224 l 546 699 l 710 699 l 710 315 q 674 135 710 210 q 569 23 639 61 q 396 -15 500 -15 m 329 913 l 461 1136 l 678 1136 l 444 913 l 329 913 z "},"ϋ":{"ha":788,"x_min":79,"x_max":710,"o":"m 257 871 q 192 896 218 871 q 167 960 167 921 q 192 1024 167 999 q 257 1049 218 1049 q 322 1024 294 1049 q 349 960 349 999 q 322 896 349 921 q 257 871 294 871 m 531 871 q 469 896 494 871 q 443 960 443 921 q 468 1023 443 997 q 531 1049 493 1049 q 595 1024 569 1049 q 621 960 621 999 q 595 896 621 921 q 531 871 569 871 m 396 -15 q 159 67 239 -15 q 79 311 79 150 l 79 699 l 243 699 l 243 293 q 279 174 243 222 q 394 126 315 126 q 506 175 467 126 q 546 293 546 224 l 546 699 l 710 699 l 710 315 q 674 135 710 210 q 569 23 639 61 q 396 -15 500 -15 z "},"ΰ":{"ha":788,"x_min":79,"x_max":724,"o":"m 396 -15 q 159 67 239 -15 q 79 311 79 150 l 79 699 l 243 699 l 243 293 q 279 174 243 222 q 394 126 315 126 q 506 175 467 126 q 546 293 546 224 l 546 699 l 710 699 l 710 315 q 674 135 710 210 q 569 23 639 61 q 396 -15 500 -15 m 283 904 l 396 1128 l 599 1128 l 393 904 l 283 904 m 190 900 q 127 926 154 900 q 100 990 100 953 q 126 1055 100 1029 q 190 1081 153 1081 q 254 1055 226 1081 q 282 990 282 1029 q 254 926 282 953 q 190 900 226 900 m 633 903 q 571 929 596 903 q 546 993 546 956 q 570 1056 546 1028 q 633 1083 594 1083 q 699 1056 674 1083 q 724 993 724 1028 q 699 929 724 956 q 633 903 674 903 z "},"ό":{"ha":847,"x_min":46,"x_max":801,"o":"m 421 -15 q 228 33 313 -15 q 94 164 143 81 q 46 347 46 247 q 74 490 46 424 q 152 607 101 557 q 272 685 203 657 q 422 714 342 714 q 617 665 532 714 q 752 533 703 615 q 801 350 801 451 q 772 206 801 272 q 690 89 743 139 q 569 12 638 39 q 421 -15 500 -15 m 422 124 q 535 155 486 124 q 611 238 583 186 q 639 349 639 289 q 611 461 639 410 q 535 544 583 513 q 421 575 486 575 q 309 544 357 575 q 235 463 261 514 q 208 350 208 413 q 237 235 208 286 q 314 153 265 183 q 422 124 363 124 m 382 913 l 514 1136 l 731 1136 l 497 913 l 382 913 z "},"ώ":{"ha":1126,"x_min":46,"x_max":1082,"o":"m 344 -15 q 183 33 250 -15 q 81 166 117 82 q 46 353 46 250 q 86 551 46 460 q 204 719 126 642 l 378 719 q 278 594 315 654 q 225 476 242 535 q 208 356 208 418 q 226 233 208 288 q 275 147 243 178 q 350 115 307 115 q 413 138 388 115 q 452 195 438 160 q 473 271 467 231 q 479 346 479 311 l 479 528 l 644 528 l 644 346 q 663 210 644 261 q 712 138 682 160 q 776 115 742 115 q 852 146 821 115 q 901 231 883 176 q 919 356 919 286 q 903 475 919 417 q 849 594 886 533 q 749 719 811 654 l 924 719 q 1041 553 1000 643 q 1082 353 1082 463 q 1046 164 1082 247 q 942 33 1010 81 q 781 -15 875 -15 q 648 19 701 -15 q 564 106 594 53 q 474 17 529 49 q 344 -15 419 -15 m 501 913 l 633 1136 l 850 1136 l 617 913 l 501 913 z "},"ά":{"ha":875,"x_min":46,"x_max":786,"o":"m 378 -15 q 240 14 301 -15 q 135 94 179 43 q 69 210 92 144 q 46 349 46 276 q 69 488 46 422 q 135 604 92 554 q 240 684 178 654 q 378 714 301 714 q 517 680 458 714 q 622 585 575 646 l 622 697 l 786 697 l 786 0 l 622 114 q 517 19 571 54 q 378 -15 463 -15 m 417 124 q 527 155 479 124 q 602 238 575 186 q 629 350 629 290 q 602 461 629 410 q 528 544 575 513 q 417 575 481 575 q 306 544 353 575 q 234 463 260 514 q 208 349 208 411 q 235 238 208 290 q 308 155 261 186 q 417 124 356 124 m 335 913 l 467 1136 l 683 1136 l 450 913 l 335 913 z "},"έ":{"ha":672,"x_min":46,"x_max":617,"o":"m 344 -15 q 197 11 265 -15 q 88 85 129 38 q 46 194 46 132 q 88 301 46 256 q 206 364 129 346 q 108 431 140 388 q 75 528 75 475 q 111 630 75 589 q 208 692 147 671 q 343 714 269 714 q 453 701 399 714 q 563 660 508 688 l 521 524 q 431 565 474 554 q 353 575 389 575 q 271 558 304 575 q 238 506 238 540 q 277 447 238 468 q 383 426 317 426 l 440 426 l 440 301 l 372 301 q 247 274 286 301 q 208 211 208 247 q 235 158 208 178 q 296 131 261 139 q 357 124 331 124 q 441 133 396 124 q 544 172 486 143 l 576 36 q 460 -3 519 10 q 344 -15 401 -15 m 267 913 l 399 1136 l 615 1136 l 382 913 l 267 913 z "},"ή":{"ha":806,"x_min":85,"x_max":718,"o":"m 85 0 l 85 697 l 251 604 q 343 682 289 651 q 471 713 397 713 q 606 679 551 713 q 690 585 661 646 q 718 444 718 525 l 718 0 l 554 0 l 554 394 q 533 497 554 458 q 478 551 511 535 q 410 568 446 568 q 338 551 375 568 q 274 497 300 535 q 249 394 249 460 l 249 0 l 85 0 m 350 913 l 482 1136 l 699 1136 l 465 913 l 350 913 z "},"ϗ":{"ha":703,"x_min":85,"x_max":696,"o":"m 354 -278 q 225 -261 285 -278 q 101 -215 165 -244 l 101 -62 q 178 -106 136 -86 q 265 -138 219 -126 q 356 -150 310 -150 q 443 -135 404 -150 q 505 -92 482 -119 q 528 -31 528 -65 l 249 331 l 249 0 l 85 0 l 85 697 l 249 697 l 249 426 l 488 697 l 685 697 l 396 386 l 696 0 q 650 -144 696 -81 q 527 -242 604 -207 q 354 -278 450 -278 z "},"⁄":{"ha":350,"x_min":-207,"x_max":563,"o":"m -207 -89 l 418 1089 l 563 1089 l -65 -89 l -207 -89 z "},"½":{"ha":1050,"x_min":26,"x_max":994,"o":"m 56 -89 l 681 1089 l 825 1089 l 197 -89 l 56 -89 m 108 397 l 108 853 q 68 822 89 836 q 26 800 47 808 l 26 910 q 85 949 54 931 q 139 989 115 968 l 231 989 l 231 397 l 108 397 m 551 -1 l 728 199 q 804 289 772 250 q 853 360 836 328 q 869 419 869 392 q 847 480 869 456 q 788 504 824 504 q 738 486 760 504 q 699 435 717 468 l 601 479 q 678 572 636 543 q 792 601 721 601 q 895 579 850 601 q 966 516 940 557 q 992 422 992 475 q 975 343 992 379 q 925 266 958 307 q 840 171 892 225 l 769 94 l 994 97 l 967 -1 l 551 -1 z "},"¼":{"ha":975,"x_min":22,"x_max":946,"o":"m 765 1 l 765 104 q 633 102 700 103 q 490 101 567 101 l 490 169 l 775 596 l 882 596 l 882 194 l 946 194 l 929 101 q 906 102 917 101 q 882 104 894 103 l 882 1 l 765 1 m 625 194 l 765 194 q 765 273 765 229 q 765 353 764 317 q 765 401 765 390 l 765 410 q 743 376 757 397 q 712 328 729 354 q 678 277 694 303 q 647 229 661 251 q 625 194 632 207 m 69 -89 l 694 1089 l 839 1089 l 211 -89 l 69 -89 m 104 397 l 104 853 q 64 822 85 836 q 22 800 43 808 l 22 910 q 81 949 50 931 q 135 989 111 968 l 226 989 l 226 397 l 104 397 z "},"¾":{"ha":1142,"x_min":32,"x_max":1111,"o":"m 235 386 q 135 403 178 386 q 66 458 92 421 q 32 553 40 494 l 153 553 q 181 497 160 514 q 240 481 203 481 q 315 510 286 481 q 344 583 344 539 q 333 626 344 606 q 296 660 322 646 q 224 674 269 674 q 207 673 218 674 q 192 672 196 672 l 192 758 l 214 758 q 288 781 258 758 q 317 843 317 803 q 297 891 317 872 q 244 910 278 910 q 197 894 215 910 q 169 842 179 878 l 54 842 q 88 935 63 900 q 153 987 113 969 q 244 1004 193 1004 q 339 986 296 1004 q 408 935 382 968 q 433 853 433 901 q 412 777 433 810 q 343 722 390 744 q 435 665 408 699 q 463 578 463 631 q 432 476 463 519 q 350 410 401 433 q 235 386 299 386 m 238 -89 l 863 1089 l 1007 1089 l 379 -89 l 238 -89 m 931 1 l 931 104 q 799 102 865 103 q 656 101 732 101 l 656 169 l 940 596 l 1047 596 l 1047 194 l 1111 194 l 1094 101 q 1071 102 1082 101 q 1047 104 1060 103 l 1047 1 l 931 1 m 790 194 l 931 194 q 930 273 931 229 q 930 353 929 317 q 931 401 931 390 l 931 410 q 908 376 922 397 q 877 328 894 354 q 843 277 860 303 q 812 229 826 251 q 790 194 797 207 z "},"⅛":{"ha":1058,"x_min":22,"x_max":1000,"o":"m 63 -89 l 688 1089 l 832 1089 l 204 -89 l 63 -89 m 104 397 l 104 853 q 64 822 85 836 q 22 800 43 808 l 22 910 q 81 949 50 931 q 135 989 111 968 l 226 989 l 226 397 l 104 397 m 781 -15 q 668 8 718 -15 q 589 69 618 31 q 560 157 560 108 q 590 247 560 210 q 675 306 621 283 q 607 358 632 325 q 582 439 582 392 q 608 522 582 486 q 680 578 635 558 q 781 599 725 599 q 881 578 836 599 q 952 521 926 557 q 978 438 978 485 q 953 358 978 389 q 888 304 928 328 q 969 247 939 285 q 1000 158 1000 210 q 938 33 1000 82 q 781 -15 875 -15 m 781 68 q 867 97 835 68 q 900 165 900 125 q 866 235 900 208 q 781 263 832 263 q 694 235 726 263 q 663 165 663 207 q 699 92 663 117 q 781 68 736 68 m 781 339 q 853 365 824 339 q 883 431 883 390 q 854 492 883 467 q 781 518 825 518 q 708 493 736 518 q 679 429 679 468 q 711 364 679 389 q 781 339 743 339 z "},"⅜":{"ha":1233,"x_min":32,"x_max":1174,"o":"m 233 -89 l 858 1089 l 1003 1089 l 375 -89 l 233 -89 m 954 -15 q 842 8 892 -15 q 763 69 792 31 q 733 157 733 108 q 764 247 733 210 q 849 306 794 283 q 781 358 806 325 q 756 439 756 392 q 782 522 756 486 q 853 578 808 558 q 954 599 899 599 q 1055 578 1010 599 q 1126 521 1100 557 q 1151 438 1151 485 q 1126 358 1151 389 q 1061 304 1101 328 q 1143 247 1113 285 q 1174 158 1174 210 q 1111 33 1174 82 q 954 -15 1049 -15 m 954 68 q 1041 97 1008 68 q 1074 165 1074 125 q 1040 235 1074 208 q 954 263 1006 263 q 868 235 900 263 q 836 165 836 207 q 873 92 836 117 q 954 68 910 68 m 954 339 q 1027 365 997 339 q 1057 431 1057 390 q 1028 492 1057 467 q 954 518 999 518 q 881 493 910 518 q 853 429 853 468 q 885 364 853 389 q 954 339 917 339 m 235 386 q 135 403 178 386 q 66 458 92 421 q 32 553 40 494 l 153 553 q 181 497 160 514 q 240 481 203 481 q 315 510 286 481 q 344 583 344 539 q 333 626 344 606 q 296 660 322 646 q 224 674 269 674 q 207 673 218 674 q 192 672 196 672 l 192 758 l 214 758 q 288 781 258 758 q 317 843 317 803 q 297 891 317 872 q 244 910 278 910 q 197 894 215 910 q 169 842 179 878 l 54 842 q 88 935 63 900 q 153 987 113 969 q 244 1004 193 1004 q 339 986 296 1004 q 408 935 382 968 q 433 853 433 901 q 412 777 433 810 q 343 722 390 744 q 435 665 408 699 q 463 578 463 631 q 432 476 463 519 q 350 410 401 433 q 235 386 299 386 z "},"⅝":{"ha":1210,"x_min":40,"x_max":1150,"o":"m 217 -89 l 842 1089 l 986 1089 l 358 -89 l 217 -89 m 240 400 q 128 422 174 400 q 40 485 82 444 l 97 550 q 165 503 129 519 q 239 486 200 486 q 327 516 296 486 q 358 596 358 546 q 324 671 358 642 q 233 700 289 700 q 189 694 210 700 q 149 679 168 689 l 82 715 l 104 989 l 436 989 l 432 904 l 183 904 l 169 758 q 214 774 193 768 q 260 781 235 781 q 358 759 313 781 q 430 697 403 738 q 457 597 457 656 q 397 454 457 508 q 240 400 336 400 m 931 -15 q 818 8 868 -15 q 739 69 768 31 q 710 157 710 108 q 740 247 710 210 q 825 306 771 283 q 757 358 782 325 q 732 439 732 392 q 758 522 732 486 q 830 578 785 558 q 931 599 875 599 q 1031 578 986 599 q 1102 521 1076 557 q 1128 438 1128 485 q 1103 358 1128 389 q 1038 304 1078 328 q 1119 247 1089 285 q 1150 158 1150 210 q 1088 33 1150 82 q 931 -15 1025 -15 m 931 68 q 1017 97 985 68 q 1050 165 1050 125 q 1016 235 1050 208 q 931 263 982 263 q 844 235 876 263 q 813 165 813 207 q 849 92 813 117 q 931 68 886 68 m 931 339 q 1003 365 974 339 q 1033 431 1033 390 q 1004 492 1033 467 q 931 518 975 518 q 858 493 886 518 q 829 429 829 468 q 861 364 829 389 q 931 339 893 339 z "},"⅞":{"ha":1072,"x_min":28,"x_max":1015,"o":"m 58 -89 l 683 1089 l 828 1089 l 200 -89 l 58 -89 m 794 -15 q 682 8 732 -15 q 603 69 632 31 q 574 157 574 108 q 604 247 574 210 q 689 306 635 283 q 621 358 646 325 q 596 439 596 392 q 622 522 596 486 q 694 578 649 558 q 794 599 739 599 q 895 578 850 599 q 966 521 940 557 q 992 438 992 485 q 967 358 992 389 q 901 304 942 328 q 983 247 953 285 q 1014 158 1014 210 q 951 33 1014 82 q 794 -15 889 -15 m 794 68 q 881 97 849 68 q 914 165 914 125 q 880 235 914 208 q 794 263 846 263 q 708 235 740 263 q 676 165 676 207 q 713 92 676 117 q 794 68 750 68 m 794 339 q 867 365 838 339 q 897 431 897 390 q 868 492 897 467 q 794 518 839 518 q 722 493 750 518 q 693 429 693 468 q 725 364 693 389 q 794 339 757 339 m 58 406 l 335 904 l 28 904 l 28 992 l 443 992 l 443 908 l 168 406 l 58 406 z "},"⁰":{"ha":482,"x_min":4,"x_max":485,"o":"m 243 383 q 113 423 167 383 q 32 532 60 463 q 4 692 4 601 q 32 851 4 782 q 114 959 60 919 q 244 999 168 999 q 354 973 308 999 q 428 903 400 947 q 471 805 457 860 q 485 692 485 750 q 456 534 485 604 q 374 424 428 464 q 243 383 321 383 m 246 474 q 344 535 310 474 q 378 690 378 596 q 343 849 378 789 q 243 910 308 910 q 177 888 203 910 q 137 833 151 867 q 116 763 122 800 q 110 694 110 726 q 144 533 110 593 q 246 474 179 474 z "},"¹":{"ha":363,"x_min":43,"x_max":247,"o":"m 125 397 l 125 853 q 85 822 106 836 q 43 800 64 808 l 43 910 q 101 949 71 931 q 156 989 132 968 l 247 989 l 247 397 l 125 397 z "},"²":{"ha":507,"x_min":21,"x_max":464,"o":"m 21 396 l 197 596 q 274 686 242 647 q 322 757 306 725 q 339 817 339 789 q 316 877 339 853 q 257 901 293 901 q 208 883 229 901 q 168 832 186 865 l 71 876 q 148 969 106 940 q 261 999 190 999 q 365 976 319 999 q 435 913 410 954 q 461 819 461 872 q 444 740 461 776 q 394 663 428 704 q 310 568 361 622 l 239 492 l 464 494 l 436 396 l 21 396 z "},"³":{"ha":476,"x_min":13,"x_max":443,"o":"m 215 386 q 115 403 158 386 q 47 458 72 421 q 13 553 21 494 l 133 553 q 162 497 140 514 q 221 481 183 481 q 296 510 267 481 q 325 583 325 539 q 314 626 325 606 q 276 660 303 646 q 204 674 250 674 q 188 673 199 674 q 172 672 176 672 l 172 758 l 194 758 q 268 781 239 758 q 297 843 297 803 q 278 891 297 872 q 225 910 258 910 q 178 894 196 910 q 150 842 160 878 l 35 842 q 68 935 43 900 q 133 987 93 969 q 225 1004 174 1004 q 319 986 276 1004 q 388 935 363 968 q 414 853 414 901 q 392 777 414 810 q 324 722 371 744 q 416 665 389 699 q 443 578 443 631 q 413 476 443 519 q 331 410 382 433 q 215 386 279 386 z "},"⁴":{"ha":482,"x_min":0,"x_max":456,"o":"m 275 399 l 275 501 q 143 499 210 500 q 0 499 76 499 l 0 567 l 285 993 l 392 993 l 392 592 l 456 592 l 439 499 q 415 499 426 499 q 392 501 404 500 l 392 399 l 275 399 m 135 592 l 275 592 q 274 670 275 626 q 274 751 274 714 q 275 799 275 788 l 275 807 q 253 773 267 794 q 222 726 239 751 q 188 674 204 700 q 156 626 171 649 q 135 592 142 604 z "},"⁵":{"ha":482,"x_min":15,"x_max":432,"o":"m 215 392 q 103 414 149 392 q 15 476 57 436 l 72 542 q 140 494 104 511 q 214 478 175 478 q 302 508 271 478 q 333 588 333 538 q 299 663 333 633 q 208 692 264 692 q 164 686 185 692 q 124 671 143 681 l 57 707 l 79 981 l 411 981 l 407 896 l 158 896 l 144 750 q 189 766 168 760 q 235 772 210 772 q 333 751 288 772 q 405 688 378 729 q 432 589 432 647 q 372 446 432 500 q 215 392 311 392 z "},"⁶":{"ha":482,"x_min":25,"x_max":456,"o":"m 244 386 q 87 439 149 386 q 25 583 25 492 q 35 642 25 613 q 64 706 44 671 q 114 788 83 740 l 244 983 l 354 983 l 181 733 q 226 755 204 749 q 276 761 249 761 q 405 713 354 761 q 456 583 456 665 q 428 481 456 525 q 352 411 400 436 q 244 386 304 386 m 243 468 q 325 499 293 468 q 357 579 357 531 q 326 655 357 625 q 243 685 294 685 q 158 653 189 685 q 126 576 126 622 q 162 499 126 529 q 243 468 197 468 z "},"⁷":{"ha":482,"x_min":78,"x_max":493,"o":"m 108 397 l 385 896 l 78 896 l 78 983 l 493 983 l 493 900 l 218 397 l 108 397 z "},"⁸":{"ha":482,"x_min":35,"x_max":475,"o":"m 256 385 q 143 408 193 385 q 64 469 93 431 q 35 557 35 508 q 65 647 35 610 q 150 706 96 683 q 82 758 107 725 q 57 839 57 792 q 83 922 57 886 q 155 978 110 958 q 256 999 200 999 q 356 978 311 999 q 427 921 401 957 q 453 838 453 885 q 428 758 453 789 q 363 704 403 728 q 444 647 414 685 q 475 558 475 610 q 413 433 475 482 q 256 385 350 385 m 256 468 q 342 497 310 468 q 375 565 375 525 q 341 635 375 608 q 256 663 307 663 q 169 635 201 663 q 138 565 138 607 q 174 492 138 517 q 256 468 211 468 m 256 739 q 328 765 299 739 q 358 831 358 790 q 329 892 358 867 q 256 918 300 918 q 183 893 211 918 q 154 829 154 868 q 186 764 154 789 q 256 739 218 739 z "},"⁹":{"ha":482,"x_min":51,"x_max":492,"o":"m 158 389 l 332 646 q 288 622 310 629 q 236 614 267 614 q 142 637 185 614 q 76 701 100 660 q 51 799 51 743 q 81 904 51 858 q 158 975 110 950 q 267 1000 207 1000 q 429 944 367 1000 q 492 799 492 889 q 469 705 492 750 q 414 610 447 660 l 267 389 l 158 389 m 272 696 q 355 727 322 696 q 388 806 388 758 q 353 885 388 856 q 271 915 319 915 q 186 884 218 915 q 154 806 154 853 q 186 727 154 758 q 272 696 218 696 z "}," ":{"ha":389,"x_min":0,"x_max":0,"o":""}," ":{"ha":389,"x_min":0,"x_max":0,"o":""},"\r":{"ha":567,"x_min":0,"x_max":0,"o":""}," ":{"ha":833,"x_min":0,"x_max":0,"o":""}," ":{"ha":833,"x_min":0,"x_max":0,"o":""},"·":{"ha":431,"x_min":107,"x_max":322,"o":"m 215 381 q 138 411 169 381 q 107 489 107 442 q 138 565 107 536 q 215 594 168 594 q 291 565 260 594 q 322 489 322 536 q 291 411 322 442 q 215 381 260 381 z "},";":{"ha":372,"x_min":35,"x_max":289,"o":"m 35 -204 l 104 203 l 276 203 l 160 -204 l 35 -204 m 181 497 q 104 526 135 497 q 74 604 74 554 q 104 681 74 651 q 181 710 135 710 q 257 681 225 710 q 289 604 289 653 q 257 526 289 554 q 181 497 225 497 z "},"-":{"ha":479,"x_min":39,"x_max":442,"o":"m 39 304 l 39 453 l 442 453 l 442 304 l 39 304 z "},"–":{"ha":608,"x_min":-3,"x_max":611,"o":"m -3 304 l -3 449 l 611 449 l 611 304 l -3 304 z "},"—":{"ha":1008,"x_min":-1,"x_max":1010,"o":"m -1 317 l -1 461 l 1010 461 l 1010 317 l -1 317 z "},"―":{"ha":1097,"x_min":51,"x_max":1064,"o":"m 51 317 l 51 461 l 1063 461 l 1063 317 l 51 317 z "},"_":{"ha":799,"x_min":0,"x_max":799,"o":"m 0 -210 l 0 -97 l 799 -97 l 799 -210 l 0 -210 z "},"(":{"ha":586,"x_min":103,"x_max":524,"o":"m 439 -211 q 192 48 282 -103 q 103 396 103 199 q 143 636 103 528 q 258 837 183 744 q 439 1010 333 929 l 524 911 q 328 675 392 797 q 264 396 264 553 q 295 197 264 286 q 384 31 326 107 q 522 -117 442 -46 l 439 -211 z "},")":{"ha":589,"x_min":63,"x_max":486,"o":"m 149 -211 l 64 -117 q 262 122 200 -1 q 324 396 324 244 q 294 597 324 507 q 206 765 264 688 q 63 911 147 843 l 149 1010 q 399 738 311 886 q 486 396 486 590 q 397 52 486 201 q 149 -211 308 -97 z "},"{":{"ha":590,"x_min":56,"x_max":535,"o":"m 524 -210 q 372 -185 432 -201 q 278 -135 313 -168 q 229 -44 243 -103 q 215 106 215 14 q 214 196 217 154 q 197 269 211 238 q 149 319 182 301 q 56 336 115 336 l 56 463 q 141 474 110 463 q 189 508 172 485 q 211 565 206 531 q 217 646 217 599 q 224 773 217 717 q 249 871 231 829 q 301 942 267 913 q 389 988 335 971 q 524 1010 443 1006 l 535 901 q 449 877 486 892 q 391 833 411 863 q 371 746 371 803 q 373 637 371 688 q 367 542 375 586 q 328 463 358 499 q 233 401 297 426 q 315 347 286 378 q 356 276 344 315 q 371 191 368 238 q 372 93 374 144 q 381 13 372 46 q 407 -42 389 -21 q 457 -78 425 -64 q 535 -101 489 -93 l 524 -210 z "},"}":{"ha":590,"x_min":56,"x_max":535,"o":"m 67 -210 l 56 -101 q 134 -79 103 -93 q 184 -43 165 -65 q 211 13 203 -21 q 218 93 219 46 q 220 190 218 144 q 234 276 222 236 q 275 347 246 315 q 357 401 304 378 q 275 455 304 424 q 234 525 246 486 q 220 610 222 564 q 218 710 218 656 q 211 788 219 756 q 184 843 203 821 q 134 879 165 865 q 56 901 103 893 l 67 1010 q 199 991 142 1004 q 297 947 257 978 q 356 866 336 917 q 375 735 375 815 q 373 634 375 683 q 381 545 371 585 q 425 483 390 506 q 535 463 460 461 l 535 336 q 451 326 483 336 q 403 295 419 317 q 380 240 386 274 q 374 160 374 207 q 367 27 374 85 q 344 -73 361 -31 q 292 -144 326 -115 q 202 -188 257 -172 q 67 -210 147 -204 z "},"[":{"ha":563,"x_min":107,"x_max":490,"o":"m 107 -206 l 107 997 l 490 997 l 490 875 l 257 875 l 257 -86 l 490 -86 l 490 -206 l 107 -206 z "},"]":{"ha":564,"x_min":72,"x_max":458,"o":"m 72 -207 l 72 -86 l 306 -86 l 306 874 l 72 874 l 72 997 l 458 997 l 458 -207 l 72 -207 z "},"‚":{"ha":415,"x_min":88,"x_max":324,"o":"m 88 -219 l 156 175 l 324 175 l 206 -219 l 88 -219 z "},"„":{"ha":693,"x_min":88,"x_max":603,"o":"m 88 -226 l 157 168 l 324 168 l 206 -226 l 88 -226 m 367 -226 l 436 168 l 603 168 l 486 -226 l 367 -226 z "},"“":{"ha":663,"x_min":71,"x_max":586,"o":"m 349 624 l 467 1018 l 586 1018 l 517 624 l 349 624 m 71 624 l 186 1018 l 307 1018 l 238 624 l 71 624 z "},"”":{"ha":663,"x_min":76,"x_max":592,"o":"m 76 624 l 146 1018 l 313 1018 l 194 624 l 76 624 m 356 624 l 425 1018 l 592 1018 l 475 624 l 356 624 z "},"‘":{"ha":383,"x_min":71,"x_max":310,"o":"m 71 640 l 188 1038 l 310 1038 l 238 640 l 71 640 z "},"’":{"ha":383,"x_min":76,"x_max":313,"o":"m 76 640 l 146 1038 l 313 1038 l 194 640 l 76 640 z "},"‛":{"ha":383,"x_min":71,"x_max":310,"o":"m 189 640 l 71 1038 l 239 1038 l 310 640 l 189 640 z "},"«":{"ha":799,"x_min":58,"x_max":729,"o":"m 600 57 l 379 356 l 600 658 l 729 607 l 549 358 l 728 111 l 600 57 m 279 57 l 58 356 l 279 658 l 408 607 l 228 358 l 407 111 l 279 57 z "},"»":{"ha":800,"x_min":64,"x_max":735,"o":"m 514 57 l 386 111 l 565 358 l 385 607 l 514 658 l 735 356 l 514 57 m 194 57 l 65 111 l 244 358 l 64 607 l 193 658 l 414 356 l 194 57 z "},"‹":{"ha":478,"x_min":58,"x_max":408,"o":"m 279 43 l 58 342 l 279 646 l 408 596 l 228 346 l 407 100 l 279 43 z "},"›":{"ha":479,"x_min":69,"x_max":419,"o":"m 200 43 l 74 100 l 250 346 l 69 596 l 199 646 l 419 342 l 200 43 z "},"\"":{"ha":710,"x_min":107,"x_max":604,"o":"m 392 568 l 425 981 l 604 981 l 604 979 l 593 929 l 488 568 l 392 568 m 107 568 l 140 981 l 319 981 l 319 979 l 308 929 l 203 568 l 107 568 z "},"'":{"ha":429,"x_min":119,"x_max":335,"o":"m 119 568 l 154 981 l 335 981 l 335 979 l 324 929 l 218 568 l 119 568 z "},".":{"ha":431,"x_min":107,"x_max":322,"o":"m 215 -15 q 138 15 169 -15 q 107 92 107 44 q 138 168 107 139 q 215 197 168 197 q 291 168 260 197 q 322 92 322 139 q 291 15 322 44 q 215 -15 260 -15 z "},",":{"ha":364,"x_min":35,"x_max":275,"o":"m 35 -204 l 104 203 l 275 203 l 160 -204 l 35 -204 z "},":":{"ha":432,"x_min":107,"x_max":324,"o":"m 217 497 q 137 526 167 497 q 107 604 107 554 q 138 682 107 654 q 217 710 168 710 q 292 681 260 710 q 324 604 324 653 q 292 526 324 554 q 217 497 260 497 m 217 -15 q 137 15 167 -15 q 107 93 107 44 q 138 171 107 143 q 217 199 168 199 q 292 169 260 199 q 324 93 324 140 q 292 15 324 44 q 217 -15 260 -15 z "},";":{"ha":372,"x_min":35,"x_max":289,"o":"m 35 -204 l 104 203 l 276 203 l 160 -204 l 35 -204 m 181 497 q 104 526 135 497 q 74 604 74 554 q 104 681 74 651 q 181 710 135 710 q 257 681 225 710 q 289 604 289 653 q 257 526 289 554 q 181 497 225 497 z "},"…":{"ha":1167,"x_min":107,"x_max":1060,"o":"m 215 -15 q 138 15 169 -15 q 107 92 107 44 q 138 168 107 139 q 215 197 168 197 q 291 168 260 197 q 322 92 322 139 q 291 15 322 44 q 215 -15 260 -15 m 583 -15 q 506 15 538 -15 q 475 92 475 44 q 506 168 475 139 q 583 197 536 197 q 659 168 628 197 q 690 92 690 139 q 659 15 690 44 q 583 -15 628 -15 m 954 -15 q 877 15 908 -15 q 846 92 846 44 q 876 168 846 139 q 954 197 907 197 q 1030 168 999 197 q 1061 92 1061 139 q 1030 15 1061 44 q 954 -15 999 -15 z "},"!":{"ha":426,"x_min":110,"x_max":319,"o":"m 167 293 l 122 860 l 119 976 l 310 976 l 306 860 l 264 293 l 167 293 m 215 -15 q 140 11 171 -15 q 110 86 110 38 q 141 158 110 131 q 215 185 172 185 q 290 157 260 185 q 319 86 319 129 q 290 11 319 38 q 215 -15 260 -15 z "},"¡":{"ha":426,"x_min":107,"x_max":318,"o":"m 117 -249 l 122 -93 l 164 436 l 263 436 l 304 -93 l 308 -249 l 117 -249 m 213 544 q 138 572 169 544 q 107 643 107 599 q 138 717 107 692 q 213 743 169 743 q 287 717 256 743 q 318 643 318 692 q 288 572 318 599 q 213 544 257 544 z "},"?":{"ha":653,"x_min":67,"x_max":585,"o":"m 203 278 l 203 354 q 222 456 203 414 q 271 531 242 499 q 331 590 300 564 q 393 656 367 622 q 419 733 419 689 q 384 812 419 778 q 286 846 349 846 q 163 810 218 846 q 67 722 108 774 l 67 885 q 171 965 107 936 q 313 993 235 993 q 452 963 390 993 q 549 878 514 933 q 585 744 585 822 q 567 644 585 688 q 519 565 550 601 q 450 497 489 529 q 382 419 403 456 q 361 321 361 383 l 361 278 l 203 278 m 289 -15 q 216 11 247 -15 q 185 86 185 38 q 216 158 185 131 q 289 185 247 185 q 365 157 335 185 q 396 86 396 129 q 365 11 396 38 q 289 -15 335 -15 z "},"¿":{"ha":647,"x_min":65,"x_max":583,"o":"m 338 -267 q 198 -237 260 -267 q 101 -151 136 -207 q 65 -18 65 -94 q 83 81 65 38 q 131 161 100 125 q 200 228 163 197 q 269 306 250 269 q 289 406 289 342 l 289 449 l 447 449 l 447 372 q 428 270 447 314 q 381 194 410 226 q 319 135 351 163 q 258 70 285 104 q 231 -7 231 36 q 267 -87 231 -53 q 364 -121 303 -121 q 487 -84 432 -121 q 583 3 542 -47 l 583 -160 q 479 -238 543 -210 q 338 -267 415 -267 m 361 540 q 285 568 315 540 q 254 640 254 596 q 285 714 254 688 q 361 740 315 740 q 434 714 403 740 q 465 640 465 688 q 435 568 465 596 q 361 540 404 540 z "},"·":{"ha":431,"x_min":107,"x_max":322,"o":"m 215 393 q 138 424 169 393 q 107 501 107 454 q 138 578 107 549 q 215 607 168 607 q 291 578 260 607 q 322 501 322 549 q 291 424 322 454 q 215 393 260 393 z "},"•":{"ha":644,"x_min":107,"x_max":536,"o":"m 322 290 q 215 319 264 290 q 136 397 165 349 q 107 504 107 446 q 135 611 107 563 q 213 690 164 660 q 322 719 263 719 q 430 691 382 719 q 507 613 478 663 q 536 504 536 564 q 508 397 536 446 q 431 319 479 347 q 322 290 382 290 z "},"*":{"ha":521,"x_min":33,"x_max":486,"o":"m 215 564 l 215 729 l 64 679 l 33 767 l 186 819 l 90 946 l 168 1000 l 261 875 l 354 1000 l 431 949 l 339 818 l 486 767 l 457 679 l 308 728 l 308 564 l 215 564 z "},"‼":{"ha":754,"x_min":110,"x_max":646,"o":"m 167 293 l 122 860 l 119 976 l 310 976 l 306 860 l 264 293 l 167 293 m 215 -15 q 140 11 171 -15 q 110 86 110 38 q 141 158 110 131 q 215 185 172 185 q 290 157 260 185 q 319 86 319 129 q 290 11 319 38 q 215 -15 260 -15 m 493 293 l 449 860 l 446 976 l 636 976 l 632 860 l 590 293 l 493 293 m 542 -15 q 467 11 497 -15 q 436 86 436 38 q 467 158 436 131 q 542 185 499 185 q 616 157 586 185 q 646 86 646 129 q 616 11 646 38 q 542 -15 586 -15 z "},"#":{"ha":892,"x_min":38,"x_max":858,"o":"m 131 0 l 169 243 l 38 243 l 38 383 l 193 383 l 228 603 l 83 603 l 83 743 l 250 743 l 286 978 l 421 978 l 385 743 l 594 743 l 629 978 l 764 978 l 729 743 l 858 743 l 858 603 l 706 603 l 671 383 l 813 383 l 813 242 l 647 242 l 611 0 l 476 0 l 513 242 l 303 242 l 265 0 l 131 0 m 324 381 l 538 381 l 574 603 l 360 603 l 324 381 z "},"/":{"ha":740,"x_min":1,"x_max":747,"o":"m 1 -131 l 604 1094 l 747 1094 l 142 -131 l 1 -131 z "},"\\":{"ha":717,"x_min":1,"x_max":715,"o":"m 582 -168 l 1 1075 l 133 1093 l 715 -151 l 582 -168 z "},"ƒ":{"ha":568,"x_min":-26,"x_max":540,"o":"m -26 -171 l 111 496 l 4 496 l 31 626 l 135 626 l 163 757 q 223 904 183 850 q 316 981 263 958 q 432 1004 369 1004 q 490 1001 463 1004 q 540 990 517 997 l 515 860 q 488 869 503 867 q 457 871 472 871 q 369 838 403 871 q 317 711 335 804 l 300 626 l 446 626 l 421 496 l 275 496 l 133 -171 l -26 -171 z "},"ʹ":{"ha":611,"x_min":136,"x_max":485,"o":"m 136 829 l 268 1136 l 485 1136 l 251 829 l 136 829 z "},"͵":{"ha":611,"x_min":108,"x_max":457,"o":"m 108 -269 l 340 39 l 457 39 l 324 -269 l 108 -269 z "},"¢":{"ha":683,"x_min":47,"x_max":625,"o":"m 283 31 l 301 164 q 169 236 226 186 q 80 357 113 286 q 47 507 47 428 q 92 692 47 611 q 215 820 136 772 q 397 872 293 868 l 411 979 l 524 979 l 508 860 q 567 840 538 853 q 625 806 596 826 l 625 651 q 564 701 601 679 q 482 729 526 724 l 425 281 q 536 308 485 281 q 625 378 588 336 l 625 222 q 533 168 585 188 q 413 147 481 149 l 397 31 l 283 31 m 326 296 l 383 736 q 248 670 297 729 q 199 513 199 611 q 232 380 199 432 q 326 296 265 328 z "},"¤":{"ha":974,"x_min":65,"x_max":910,"o":"m 147 32 l 65 115 l 197 247 q 148 342 164 292 q 132 456 132 393 q 146 565 132 517 q 194 663 160 614 l 65 792 l 147 874 l 279 744 q 377 795 325 779 q 488 811 429 811 q 601 794 549 811 q 696 746 653 778 l 826 874 l 910 792 l 782 665 q 830 567 813 617 q 847 456 847 518 q 830 342 847 394 q 779 243 813 290 l 910 115 l 828 32 l 694 164 q 597 117 647 133 q 488 100 546 100 q 381 116 431 100 q 283 165 331 132 l 147 32 m 488 224 q 606 254 556 224 q 685 338 657 285 q 713 454 713 392 q 685 574 713 521 q 606 658 657 628 q 488 689 556 689 q 372 658 422 689 q 292 575 321 628 q 263 456 263 522 q 291 339 263 392 q 370 255 319 286 q 488 224 421 224 z "},"$":{"ha":822,"x_min":38,"x_max":767,"o":"m 364 -133 l 364 -3 q 183 38 265 -3 q 38 144 100 78 l 132 249 q 235 167 176 200 q 367 126 294 133 l 367 425 q 151 533 226 468 q 75 713 75 599 q 112 846 75 788 q 214 940 149 904 q 364 982 279 975 l 364 1071 l 474 1071 l 474 982 q 624 938 564 974 q 721 856 685 901 l 629 757 q 560 818 601 794 q 469 847 519 842 l 469 560 q 694 447 622 513 q 767 275 767 382 q 729 139 767 199 q 626 43 692 79 q 472 -3 560 7 l 472 -133 l 364 -133 m 471 128 q 576 174 543 139 q 610 257 610 208 q 590 325 610 299 q 538 369 569 351 q 471 397 506 386 l 471 128 m 367 589 l 367 850 q 265 810 299 843 q 232 728 232 776 q 253 662 232 689 q 304 618 274 635 q 367 589 335 601 z "},"€":{"ha":803,"x_min":53,"x_max":782,"o":"m 469 -22 q 290 18 368 -22 q 160 128 213 58 q 80 289 107 197 q 53 482 53 381 q 78 673 53 581 q 156 840 103 765 q 290 957 208 914 q 483 1000 371 1000 q 659 963 590 1000 q 781 860 728 925 l 665 763 q 585 829 628 806 q 483 853 543 853 q 369 824 418 853 q 286 746 319 794 q 235 638 253 697 q 215 515 218 578 l 528 515 l 528 407 l 224 407 q 258 274 229 339 q 342 167 288 208 q 478 125 396 125 q 585 149 538 125 q 668 218 632 174 l 782 122 q 651 15 728 53 q 469 -22 575 -22 z "},"£":{"ha":779,"x_min":39,"x_max":756,"o":"m 136 0 l 136 404 l 39 404 l 39 529 l 136 529 l 136 650 q 174 828 136 750 q 286 949 213 906 q 464 993 360 993 q 635 956 564 993 q 756 857 706 919 l 644 753 q 569 818 610 794 q 468 842 529 842 q 375 816 411 842 q 322 747 339 790 q 304 649 304 703 l 304 529 l 636 529 l 636 404 l 304 404 l 304 138 l 744 138 l 744 0 l 136 0 z "},"¥":{"ha":864,"x_min":-1,"x_max":867,"o":"m 351 0 l 351 178 l 94 178 l 94 296 l 351 296 l 338 401 l 94 401 l 94 519 l 293 519 l -1 976 l 190 976 l 436 561 l 679 976 l 867 976 l 572 519 l 769 519 l 769 401 l 526 401 l 517 296 l 769 296 l 769 178 l 514 178 l 514 0 l 351 0 z "},"+":{"ha":854,"x_min":82,"x_max":772,"o":"m 350 136 l 350 408 l 82 408 l 82 556 l 350 556 l 350 826 l 503 826 l 503 556 l 772 556 l 772 408 l 503 408 l 503 136 l 350 136 z "},"−":{"ha":879,"x_min":82,"x_max":799,"o":"m 82 429 l 82 549 l 799 549 l 799 429 l 82 429 z "},"×":{"ha":914,"x_min":122,"x_max":793,"o":"m 217 150 l 122 246 l 364 488 l 122 726 l 217 822 l 457 579 l 699 822 l 793 726 l 553 488 l 793 246 l 699 150 l 457 393 l 217 150 z "},"÷":{"ha":876,"x_min":82,"x_max":796,"o":"m 82 436 l 82 544 l 796 544 l 796 436 l 82 436 m 438 186 q 374 212 399 186 q 350 272 350 238 q 374 334 350 310 q 438 358 399 358 q 502 334 478 358 q 526 272 526 310 q 501 210 526 235 q 438 186 475 186 m 438 624 q 374 649 399 624 q 350 708 350 674 q 374 769 350 743 q 438 796 399 796 q 502 769 478 796 q 526 708 526 743 q 501 647 526 671 q 438 624 475 624 z "},"=":{"ha":828,"x_min":82,"x_max":747,"o":"m 82 592 l 82 739 l 747 739 l 747 592 l 82 592 m 82 244 l 82 390 l 747 390 l 747 244 l 82 244 z "},"≠":{"ha":861,"x_min":82,"x_max":792,"o":"m 297 104 l 192 161 l 267 301 l 82 301 l 82 418 l 331 418 l 404 565 l 86 565 l 86 683 l 469 683 l 574 882 l 678 824 l 603 683 l 792 683 l 792 565 l 540 565 l 465 418 l 788 418 l 788 301 l 399 301 l 297 104 z "},">":{"ha":857,"x_min":93,"x_max":765,"o":"m 93 104 l 93 261 l 603 479 l 93 699 l 93 856 l 765 554 l 765 406 l 93 104 z "},"<":{"ha":858,"x_min":93,"x_max":767,"o":"m 767 104 l 93 407 l 93 553 l 767 856 l 767 700 l 257 481 l 767 258 l 767 104 z "},"≥":{"ha":879,"x_min":82,"x_max":799,"o":"m 119 160 l 119 317 l 629 535 l 119 754 l 119 911 l 792 610 l 792 461 l 119 160 m 82 1 l 82 121 l 799 121 l 799 1 l 82 1 z "},"≤":{"ha":879,"x_min":82,"x_max":799,"o":"m 779 160 l 106 463 l 106 608 l 779 911 l 779 756 l 269 536 l 779 314 l 779 160 m 82 1 l 82 121 l 799 121 l 799 1 l 82 1 z "},"±":{"ha":842,"x_min":82,"x_max":761,"o":"m 360 249 l 360 463 l 82 463 l 82 588 l 360 588 l 360 807 l 483 807 l 483 588 l 761 588 l 761 463 l 483 463 l 483 249 l 360 249 m 82 31 l 82 156 l 761 156 l 761 31 l 82 31 z "},"≈":{"ha":881,"x_min":68,"x_max":811,"o":"m 68 488 q 98 596 76 544 q 160 681 119 647 q 265 714 201 714 q 357 699 311 714 q 448 664 403 683 q 536 630 493 644 q 617 615 579 615 q 683 645 661 615 q 711 722 704 675 l 811 722 q 785 616 807 668 q 722 531 764 564 q 614 497 681 497 q 524 512 569 497 q 433 546 478 526 q 348 581 389 565 q 272 596 307 596 q 199 563 222 596 q 168 488 175 531 l 68 488 m 68 233 q 98 341 76 289 q 160 425 119 393 q 265 457 201 457 q 357 442 311 457 q 448 408 403 428 q 536 374 493 389 q 617 358 579 358 q 683 390 661 358 q 711 467 704 421 l 811 467 q 785 360 807 413 q 722 275 764 308 q 614 242 681 242 q 524 257 569 242 q 433 292 478 272 q 348 326 389 311 q 272 340 307 340 q 199 308 222 340 q 168 233 175 276 l 68 233 z "},"~":{"ha":715,"x_min":68,"x_max":646,"o":"m 154 314 l 68 354 q 135 480 96 440 q 238 519 175 519 q 324 502 286 519 q 397 468 363 485 q 464 451 431 451 q 518 471 494 451 q 558 526 542 490 l 646 488 q 578 365 619 406 q 481 324 538 324 q 400 340 440 324 q 322 374 360 357 q 247 392 283 392 q 194 372 214 392 q 154 314 174 351 z "},"¬":{"ha":865,"x_min":74,"x_max":792,"o":"m 660 176 l 660 443 l 74 443 l 74 574 l 792 574 l 792 176 l 660 176 z "},"^":{"ha":674,"x_min":40,"x_max":633,"o":"m 40 615 l 272 978 l 399 978 l 633 615 l 500 615 l 335 867 l 169 615 l 40 615 z "},"∞":{"ha":996,"x_min":39,"x_max":957,"o":"m 244 276 q 138 305 183 276 q 65 381 92 333 q 39 489 39 429 q 65 598 39 549 q 136 677 90 647 q 242 707 182 707 q 343 683 296 707 q 430 627 390 660 q 499 563 469 594 q 569 632 531 599 q 656 687 608 665 q 757 708 703 708 q 863 678 818 708 q 933 599 908 649 q 957 489 957 550 q 932 383 957 432 q 861 305 907 333 q 753 276 815 276 q 656 297 701 276 q 571 349 611 317 q 496 411 531 381 q 423 347 461 378 q 341 297 385 317 q 244 276 297 276 m 246 394 q 311 409 281 394 q 369 446 342 424 q 418 489 397 468 q 366 534 393 511 q 308 573 339 557 q 242 589 278 589 q 178 560 200 589 q 157 490 157 531 q 179 420 157 446 q 246 394 201 394 m 753 394 q 817 420 794 394 q 839 490 839 446 q 817 562 839 533 q 750 590 796 590 q 685 573 717 590 q 628 532 654 556 q 578 486 601 508 q 659 423 615 451 q 753 394 703 394 z "},"∫":{"ha":479,"x_min":13,"x_max":464,"o":"m 131 -319 q 81 -310 108 -319 q 33 -283 53 -301 q 13 -236 13 -264 q 29 -192 13 -210 q 71 -175 46 -175 q 99 -185 89 -175 q 118 -206 110 -196 q 139 -217 126 -217 q 158 -199 151 -217 q 166 -150 164 -182 q 168 -72 168 -118 l 168 765 q 174 859 168 808 q 197 956 179 910 q 248 1031 214 1001 q 339 1060 282 1060 q 396 1051 367 1060 q 444 1024 425 1043 q 464 974 464 1006 q 446 927 464 944 q 400 910 428 910 q 368 920 379 910 q 349 941 357 931 q 326 951 340 951 q 310 935 315 951 q 301 895 304 918 q 299 851 299 872 q 299 819 299 829 l 299 17 q 296 -62 299 -18 q 285 -151 293 -106 q 258 -234 276 -196 q 209 -296 239 -272 q 131 -319 179 -319 z "},"Ω":{"ha":1121,"x_min":46,"x_max":1075,"o":"m 46 0 l 46 147 l 285 147 q 172 249 219 188 q 98 385 124 310 q 72 536 72 460 q 110 726 72 640 q 216 872 149 811 q 372 964 283 932 q 563 996 461 996 q 810 939 700 996 q 984 778 921 882 q 1047 532 1047 675 q 1022 383 1047 456 q 950 249 997 310 q 835 147 903 188 l 1075 147 l 1075 0 l 640 0 l 640 153 q 765 245 713 193 q 846 364 817 297 q 875 515 875 431 q 837 685 875 611 q 728 802 799 760 q 561 844 658 844 q 393 802 464 844 q 284 686 322 760 q 246 515 246 613 q 311 299 246 390 q 485 153 376 208 l 485 0 l 46 0 z "},"∆":{"ha":1025,"x_min":32,"x_max":994,"o":"m 32 0 l 428 986 l 593 986 l 994 0 l 32 0 m 258 143 l 763 143 l 508 800 l 258 143 z "},"∏":{"ha":993,"x_min":99,"x_max":894,"o":"m 99 -365 l 99 1015 l 894 1015 l 894 -365 l 765 -365 l 765 896 l 228 896 l 228 -365 l 99 -365 z "},"∑":{"ha":824,"x_min":24,"x_max":801,"o":"m 24 -362 l 24 -264 l 457 336 l 42 919 l 42 1018 l 786 1018 l 786 897 l 213 897 l 611 335 l 189 -242 l 801 -242 l 801 -362 l 24 -362 z "},"√":{"ha":669,"x_min":-6,"x_max":676,"o":"m 318 -10 l 104 436 l 43 407 l -6 511 l 164 588 l 354 186 l 549 1146 l 676 1146 l 439 -10 l 318 -10 z "},"∂":{"ha":718,"x_min":53,"x_max":656,"o":"m 336 -15 q 184 30 247 -15 q 87 147 121 75 q 53 301 53 218 q 85 452 53 383 q 181 563 118 521 q 329 604 243 604 q 440 582 392 604 q 531 519 489 560 q 524 638 532 575 q 493 757 517 701 q 426 848 469 813 q 314 883 383 883 q 164 818 229 883 l 92 901 q 196 976 143 953 q 313 999 249 999 q 480 952 414 999 q 585 831 546 906 q 640 670 624 757 q 656 501 656 583 q 649 367 656 439 q 622 228 642 296 q 567 106 603 161 q 476 18 532 51 q 336 -15 419 -15 m 338 94 q 424 123 389 94 q 480 197 458 151 q 512 292 501 242 q 524 383 522 342 q 444 458 492 428 q 338 489 396 489 q 250 462 286 489 q 196 392 214 435 q 178 299 178 349 q 196 203 178 250 q 250 126 214 157 q 338 94 286 94 z "},"µ":{"ha":817,"x_min":90,"x_max":721,"o":"m 90 -247 l 90 699 l 254 699 l 254 303 q 274 204 254 243 q 327 147 294 165 q 396 129 360 129 q 510 173 463 129 q 557 303 557 217 l 557 699 l 721 699 l 721 0 l 556 92 q 487 15 529 43 q 393 -14 444 -14 q 312 9 349 -14 q 254 75 275 32 l 254 -247 l 90 -247 z "},"%":{"ha":1194,"x_min":58,"x_max":1136,"o":"m 308 -18 l 185 -3 l 881 993 l 1006 981 l 308 -18 m 294 488 q 172 522 225 488 q 88 615 118 557 q 58 744 58 674 q 88 872 58 815 q 172 964 118 929 q 296 999 226 999 q 421 965 368 999 q 503 874 474 931 q 532 746 532 817 q 503 619 532 679 q 422 524 475 560 q 294 488 369 488 m 296 596 q 383 637 353 596 q 414 740 414 678 q 401 813 414 778 q 363 869 389 847 q 294 892 338 892 q 209 850 242 892 q 176 746 176 808 q 210 637 176 678 q 296 596 243 596 m 900 -15 q 776 19 829 -15 q 693 112 722 54 q 664 239 664 169 q 694 367 664 310 q 778 458 724 425 q 901 492 832 492 q 1024 458 971 492 q 1107 368 1078 425 q 1136 240 1136 311 q 1107 115 1136 172 q 1025 21 1078 57 q 900 -15 972 -15 m 901 92 q 986 134 954 92 q 1018 239 1018 176 q 1006 310 1018 276 q 967 365 993 343 q 900 386 940 386 q 814 346 846 386 q 782 239 782 306 q 816 131 782 171 q 901 92 850 92 z "},"‰":{"ha":1676,"x_min":58,"x_max":1618,"o":"m 163 0 l 863 974 l 1001 974 l 304 0 l 163 0 m 292 486 q 169 520 221 486 q 88 611 117 554 q 58 736 58 668 q 88 862 58 806 q 172 952 118 918 q 293 986 225 986 q 414 953 361 986 q 495 863 467 919 q 524 738 524 807 q 495 615 524 672 q 415 522 467 557 q 292 486 363 486 m 293 590 q 375 632 344 590 q 406 736 406 674 q 378 836 406 792 q 289 881 350 881 q 206 841 236 881 q 175 738 175 801 q 209 632 175 674 q 293 590 243 590 m 858 -15 q 738 19 790 -15 q 656 109 685 53 q 626 235 626 165 q 656 362 626 306 q 739 451 686 418 q 860 485 792 485 q 980 451 928 485 q 1061 363 1032 418 q 1090 236 1090 307 q 1063 113 1090 171 q 983 20 1035 56 q 858 -15 931 -15 m 860 92 q 943 130 914 92 q 972 231 972 168 q 961 301 972 267 q 925 356 950 335 q 858 378 900 378 q 775 339 807 378 q 743 236 743 300 q 776 131 743 171 q 860 92 810 92 m 1388 -15 q 1267 19 1319 -15 q 1184 109 1214 53 q 1154 235 1154 165 q 1184 362 1154 306 q 1267 451 1214 418 q 1389 485 1321 485 q 1509 451 1457 485 q 1590 363 1561 418 q 1618 236 1618 307 q 1590 114 1618 171 q 1510 21 1563 57 q 1388 -15 1458 -15 m 1389 92 q 1472 130 1443 92 q 1501 231 1501 168 q 1490 301 1501 267 q 1454 356 1479 335 q 1388 378 1429 378 q 1303 339 1335 378 q 1271 236 1271 300 q 1305 131 1271 171 q 1389 92 1339 92 z "},"◌":{"ha":1226,"x_min":65,"x_max":1161,"o":"m 172 193 q 129 210 147 193 q 111 254 111 228 q 130 297 111 281 q 172 314 149 314 q 215 297 197 314 q 232 254 232 281 q 215 210 232 228 q 172 193 197 193 m 365 15 q 322 32 340 15 q 303 75 303 49 q 322 118 303 101 q 365 135 340 135 q 408 118 390 135 q 425 75 425 101 q 408 32 425 49 q 365 15 390 15 m 624 -53 q 580 -35 599 -53 q 561 7 561 -18 q 579 51 561 35 q 624 67 597 67 q 666 51 649 67 q 683 7 683 35 q 666 -35 683 -18 q 624 -53 649 -53 m 125 449 q 83 465 100 449 q 65 508 65 482 q 83 551 65 535 q 125 568 100 568 q 168 551 150 568 q 186 508 186 535 q 168 465 186 482 q 125 449 150 449 m 190 682 q 147 700 165 682 q 128 744 128 718 q 147 787 128 769 q 190 804 165 804 q 233 787 215 804 q 250 744 250 769 q 233 700 250 718 q 190 682 215 682 m 853 31 q 809 47 828 31 q 790 90 790 64 q 809 133 790 117 q 853 150 828 150 q 896 133 878 150 q 914 90 914 117 q 896 47 914 64 q 853 31 878 31 m 361 872 q 317 890 335 872 q 299 932 299 907 q 317 976 299 960 q 361 992 335 992 q 402 976 385 992 q 419 932 419 960 q 402 890 419 907 q 361 872 385 872 m 1035 201 q 992 219 1010 201 q 974 261 974 236 q 991 305 974 289 q 1035 321 1008 321 q 1078 305 1060 321 q 1096 261 1096 289 q 1078 219 1096 236 q 1035 201 1060 201 m 624 922 q 580 940 599 922 q 561 983 561 958 q 580 1026 561 1010 q 624 1043 599 1043 q 666 1026 649 1043 q 683 983 683 1010 q 666 940 683 958 q 624 922 649 922 m 1100 449 q 1058 465 1075 449 q 1040 508 1040 482 q 1058 551 1040 535 q 1100 568 1075 568 q 1144 551 1126 568 q 1161 508 1161 535 q 1144 465 1161 482 q 1100 449 1126 449 m 1018 676 q 976 694 993 676 q 958 738 958 711 q 976 780 958 763 q 1018 797 993 797 q 1061 781 1043 797 q 1079 738 1079 764 q 1061 694 1079 711 q 1018 676 1043 676 m 860 858 q 816 875 835 858 q 797 918 797 892 q 816 961 797 944 q 860 978 835 978 q 902 961 885 978 q 919 918 919 944 q 902 875 919 892 q 860 858 885 858 z "},"◊":{"ha":658,"x_min":39,"x_max":619,"o":"m 272 -49 l 39 493 l 272 1035 l 383 1035 l 619 493 l 383 -49 l 272 -49 m 328 114 l 489 494 l 328 871 l 169 493 l 328 114 z "},"@":{"ha":1278,"x_min":65,"x_max":1213,"o":"m 657 -161 q 420 -117 528 -161 q 232 5 313 -74 q 108 188 151 83 q 65 413 65 292 q 109 640 65 535 q 233 826 153 746 q 420 951 314 906 q 650 996 526 996 q 870 956 768 996 q 1049 846 972 917 q 1169 682 1126 775 q 1213 482 1213 589 q 1176 288 1213 368 q 1080 167 1140 208 q 944 126 1019 126 q 833 157 874 126 q 769 242 792 188 q 683 161 733 193 q 564 129 633 129 q 438 163 493 129 q 349 257 382 197 q 317 394 317 317 q 358 560 317 486 q 468 680 400 635 q 618 725 536 725 q 733 695 689 725 q 804 619 776 665 l 818 707 l 954 690 l 900 326 q 905 264 897 292 q 933 219 913 236 q 985 203 953 203 q 1065 235 1029 203 q 1122 328 1100 268 q 1143 471 1143 389 q 1107 653 1143 569 q 1004 800 1071 738 q 847 898 938 863 q 649 933 757 933 q 444 894 538 933 q 282 784 351 854 q 175 619 213 714 q 138 415 138 525 q 174 212 138 306 q 281 49 211 118 q 448 -59 350 -21 q 667 -97 546 -97 q 844 -74 764 -97 q 1003 -1 924 -51 l 1036 -47 q 858 -132 951 -103 q 657 -161 765 -161 m 596 251 q 685 281 644 251 q 750 357 726 310 q 774 457 774 404 q 738 561 774 521 q 639 601 701 601 q 547 573 588 601 q 485 499 507 544 q 463 403 463 454 q 499 293 463 335 q 596 251 535 251 z "},"&":{"ha":981,"x_min":71,"x_max":968,"o":"m 392 -15 q 228 19 301 -15 q 113 117 156 53 q 71 267 71 181 q 128 442 71 369 q 293 556 186 514 q 231 658 254 607 q 208 765 208 708 q 241 885 208 832 q 334 968 274 938 q 472 999 394 999 q 604 968 547 999 q 693 888 661 938 q 725 775 725 838 q 667 624 725 683 q 515 524 610 564 l 696 328 q 751 422 725 375 q 803 521 778 468 l 932 479 q 863 349 900 414 q 788 226 826 283 l 968 28 l 803 -7 l 688 113 q 553 18 624 51 q 392 -15 482 -15 m 408 113 q 512 142 465 113 q 599 214 558 171 l 379 456 q 277 378 313 422 q 242 275 242 335 q 263 193 242 231 q 321 134 283 156 q 408 113 358 113 m 435 611 q 540 677 500 638 q 581 767 581 717 q 549 845 581 817 q 471 874 517 874 q 390 842 421 874 q 358 761 358 811 q 378 690 358 725 q 435 611 399 654 z "},"¶":{"ha":882,"x_min":51,"x_max":719,"o":"m 297 -149 l 297 476 q 176 515 232 488 q 85 592 119 542 q 51 725 51 643 q 128 914 51 847 q 339 981 204 981 l 719 981 l 719 858 l 664 858 l 664 -149 l 539 -149 l 539 858 l 422 858 l 422 -149 l 297 -149 z "},"§":{"ha":789,"x_min":42,"x_max":728,"o":"m 385 -86 q 257 -67 314 -86 q 153 -15 200 -47 l 153 132 q 263 60 203 85 q 386 36 322 36 q 475 58 444 36 q 506 122 506 81 q 458 193 506 163 q 315 250 410 224 q 163 308 224 276 q 72 379 101 339 q 42 469 42 419 q 83 576 42 533 q 199 639 124 619 q 135 706 161 665 q 108 797 108 746 q 143 901 108 856 q 240 973 178 947 q 385 999 301 999 q 508 981 453 999 q 608 933 564 964 l 608 788 q 503 853 556 831 q 390 875 451 875 q 299 856 332 875 q 267 796 267 836 q 305 735 267 765 q 450 669 343 704 q 613 607 551 639 q 701 538 674 575 q 728 451 728 500 q 687 342 728 383 q 574 282 646 301 q 639 210 617 249 q 661 126 661 172 q 628 17 661 65 q 533 -59 594 -32 q 385 -86 471 -86 m 476 339 q 560 362 529 339 q 590 419 590 385 q 567 472 590 449 q 508 514 544 496 q 431 546 471 532 q 355 568 390 560 q 299 579 319 576 q 213 552 244 574 q 181 490 181 531 q 206 436 181 461 q 274 392 232 411 q 369 359 317 372 q 476 339 422 346 z "},"©":{"ha":1147,"x_min":46,"x_max":1103,"o":"m 575 -39 q 368 3 464 -39 q 199 117 272 44 q 86 288 126 190 q 46 497 46 385 q 87 701 46 606 q 200 871 128 797 q 369 986 272 944 q 574 1028 465 1028 q 779 987 683 1028 q 948 872 875 946 q 1062 702 1021 799 q 1103 494 1103 606 q 1063 288 1103 385 q 949 117 1022 190 q 781 2 876 43 q 575 -39 685 -39 m 575 43 q 749 78 667 43 q 892 175 831 113 q 988 319 953 238 q 1024 494 1024 401 q 989 670 1024 589 q 893 813 954 751 q 751 910 832 875 q 575 944 669 944 q 400 910 482 944 q 256 813 318 875 q 159 670 193 751 q 125 496 125 589 q 159 321 125 403 q 256 176 193 239 q 399 78 318 114 q 575 43 481 43 m 579 196 q 427 237 494 196 q 321 347 360 278 q 282 503 282 417 q 320 656 282 588 q 426 765 358 725 q 582 806 494 806 q 678 790 636 806 q 749 756 721 775 l 749 621 q 677 669 718 651 q 590 688 636 688 q 503 663 543 688 q 442 598 464 639 q 419 503 419 557 q 442 408 419 451 q 503 339 464 364 q 592 314 542 314 q 669 329 629 314 q 749 381 708 344 l 749 253 q 673 212 714 228 q 579 196 632 196 z "},"®":{"ha":1058,"x_min":29,"x_max":1031,"o":"m 531 -4 q 335 35 426 -4 q 175 142 244 74 q 67 301 106 211 q 29 496 29 392 q 68 688 29 599 q 176 847 107 778 q 338 953 246 915 q 533 992 429 992 q 727 953 638 992 q 885 846 817 915 q 992 688 953 776 q 1031 496 1031 599 q 992 303 1031 393 q 883 143 953 213 q 724 35 814 74 q 531 -4 633 -4 m 531 69 q 697 103 621 69 q 831 197 774 138 q 920 333 888 256 q 953 497 953 411 q 920 660 953 585 q 831 794 888 736 q 697 885 774 853 q 533 918 621 918 q 365 885 443 918 q 229 794 288 853 q 139 659 171 736 q 107 493 107 582 q 139 330 107 407 q 229 194 171 253 q 365 103 288 136 q 531 69 442 69 m 338 213 l 338 786 l 550 786 q 688 740 635 786 q 742 617 742 693 q 702 508 742 551 q 606 450 663 465 l 788 213 l 654 213 l 486 433 l 453 433 l 453 213 l 338 213 m 453 532 l 535 532 q 605 553 578 532 q 632 608 632 575 q 608 664 632 640 q 536 688 585 688 l 453 688 l 453 532 z "},"™":{"ha":1225,"x_min":7,"x_max":1194,"o":"m 568 406 l 568 981 l 725 981 l 882 610 l 1042 981 l 1194 981 l 1194 406 l 1074 406 l 1074 778 l 919 406 l 843 406 l 689 778 l 689 406 l 568 406 m 188 406 l 188 869 l 7 869 l 7 981 l 486 981 l 486 869 l 307 869 l 307 406 l 188 406 z "},"°":{"ha":539,"x_min":49,"x_max":490,"o":"m 271 582 q 160 610 211 582 q 79 689 110 639 q 49 797 49 739 q 79 908 49 858 q 160 986 110 957 q 271 1015 211 1015 q 381 987 332 1015 q 460 909 431 958 q 490 799 490 860 q 461 689 490 739 q 382 610 432 639 q 271 582 332 582 m 271 674 q 358 708 322 674 q 393 799 393 743 q 358 887 393 850 q 271 924 322 924 q 183 886 218 924 q 147 799 147 849 q 182 710 147 747 q 271 674 217 674 z "},"′":{"ha":361,"x_min":79,"x_max":294,"o":"m 79 568 l 114 981 l 294 981 l 294 979 l 283 929 l 178 568 l 79 568 z "},"″":{"ha":643,"x_min":67,"x_max":564,"o":"m 351 568 l 385 981 l 564 981 l 564 979 l 553 929 l 447 568 l 351 568 m 67 568 l 100 981 l 279 981 l 279 979 l 268 929 l 163 568 l 67 568 z "},"|":{"ha":844,"x_min":356,"x_max":490,"o":"m 356 -214 l 356 1079 l 490 1079 l 490 -214 l 356 -214 z "},"¦":{"ha":857,"x_min":356,"x_max":504,"o":"m 356 453 l 356 940 l 504 940 l 504 453 l 356 453 m 356 -242 l 356 240 l 504 240 l 504 -242 l 356 -242 z "},"†":{"ha":644,"x_min":85,"x_max":558,"o":"m 265 104 l 276 690 l 85 679 l 85 786 l 274 775 l 263 1000 l 381 1000 l 367 775 l 558 786 l 558 679 l 364 690 l 378 104 l 265 104 z "},"ℓ":{"ha":722,"x_min":103,"x_max":606,"o":"m 406 -19 q 310 3 351 -19 q 245 70 268 25 q 222 188 222 115 l 222 271 l 160 211 l 103 286 l 222 403 l 222 742 q 240 860 222 801 q 299 956 257 918 q 408 993 340 993 q 495 968 458 993 q 552 899 532 943 q 572 799 572 856 q 543 656 572 728 q 464 513 514 583 q 350 374 414 443 l 350 183 q 367 114 350 140 q 421 88 385 88 q 469 97 446 88 q 513 122 492 107 q 551 149 533 136 l 606 65 q 503 1 553 21 q 406 -19 454 -19 m 350 511 q 411 609 388 560 q 447 703 435 658 q 458 788 458 749 q 454 833 458 808 q 440 876 450 858 q 408 893 429 893 q 367 861 383 893 q 350 757 350 829 l 350 511 z "},"‡":{"ha":640,"x_min":85,"x_max":554,"o":"m 264 -7 l 272 203 l 85 193 l 85 300 l 274 290 q 272 376 272 329 q 271 472 271 422 q 271 572 271 522 q 272 669 271 622 q 274 754 272 715 l 85 743 l 85 850 l 272 840 l 264 1061 l 378 1061 l 365 840 l 554 850 l 554 743 l 365 754 q 367 669 367 715 q 369 572 368 622 q 369 472 369 522 q 368 376 368 422 q 365 290 368 329 l 554 300 l 554 193 l 365 203 l 378 -7 l 264 -7 z "},"℮":{"ha":936,"x_min":104,"x_max":832,"o":"m 468 -24 q 276 29 358 -24 q 149 169 194 82 q 104 365 104 257 q 149 560 104 474 q 276 699 194 647 q 468 750 358 750 q 660 699 578 750 q 787 556 742 647 q 832 344 832 465 l 294 344 l 294 133 q 372 83 329 100 q 468 65 415 65 q 603 103 544 65 q 715 235 663 142 l 800 185 q 654 26 732 75 q 468 -24 576 -24 m 294 433 l 642 433 l 642 597 q 560 649 603 633 q 467 665 518 665 q 374 649 418 665 q 294 599 331 632 l 294 433 z "},"΄":{"ha":611,"x_min":136,"x_max":485,"o":"m 136 913 l 268 1136 l 485 1136 l 251 913 l 136 913 z "},"΅":{"ha":718,"x_min":47,"x_max":671,"o":"m 231 904 l 343 1128 l 546 1128 l 340 904 l 231 904 m 138 900 q 74 926 101 900 q 47 990 47 953 q 74 1055 47 1029 q 138 1081 100 1081 q 201 1055 174 1081 q 229 990 229 1029 q 201 926 229 953 q 138 900 174 900 m 581 903 q 518 929 543 903 q 493 993 493 956 q 517 1056 493 1028 q 581 1083 542 1083 q 646 1056 621 1083 q 671 993 671 1028 q 646 929 671 956 q 581 903 621 903 z "},"̈":{"ha":0,"x_min":32,"x_max":486,"o":"m 122 871 q 58 896 83 871 q 32 960 32 921 q 58 1024 32 999 q 122 1049 83 1049 q 187 1024 160 1049 q 214 960 214 999 q 187 896 214 921 q 122 871 160 871 m 396 871 q 334 896 360 871 q 308 960 308 921 q 333 1023 308 997 q 396 1049 358 1049 q 460 1024 435 1049 q 486 960 486 999 q 460 896 486 921 q 396 871 435 871 z "},"̇":{"ha":0,"x_min":46,"x_max":256,"o":"m 150 843 q 76 871 107 843 q 46 943 46 899 q 76 1016 46 989 q 150 1043 106 1043 q 226 1017 196 1043 q 256 943 256 990 q 226 871 256 899 q 150 843 196 843 z "},"̀":{"ha":0,"x_min":14,"x_max":321,"o":"m 200 856 l 14 1035 l 183 1079 l 321 856 l 200 856 z "},"́":{"ha":0,"x_min":24,"x_max":328,"o":"m 24 856 l 156 1079 l 328 1035 l 140 856 l 24 856 z "},"̋":{"ha":0,"x_min":14,"x_max":571,"o":"m 263 839 l 417 1068 l 571 1038 l 382 839 l 263 839 m 14 839 l 168 1068 l 322 1040 l 133 839 l 14 839 z "},"̂":{"ha":0,"x_min":26,"x_max":465,"o":"m 26 863 l 189 1079 l 303 1079 l 465 863 l 344 863 l 246 967 l 147 863 l 26 863 z "},"̌":{"ha":0,"x_min":18,"x_max":475,"o":"m 189 833 l 18 1054 l 150 1054 l 249 944 l 346 1054 l 475 1054 l 304 833 l 189 833 z "},"̆":{"ha":0,"x_min":22,"x_max":457,"o":"m 239 822 q 133 849 179 822 q 59 925 88 876 q 22 1038 31 974 l 122 1038 q 166 964 135 989 q 243 939 197 939 q 317 964 286 939 q 360 1038 347 989 l 457 1038 q 422 925 451 974 q 346 849 393 876 q 239 822 299 822 z "},"̊":{"ha":0,"x_min":40,"x_max":342,"o":"m 189 840 q 116 860 150 840 q 61 913 82 879 q 40 988 40 946 q 61 1064 40 1031 q 116 1117 82 1097 q 189 1136 150 1136 q 265 1116 231 1136 q 321 1063 300 1096 q 342 986 342 1029 q 321 912 342 944 q 266 860 300 879 q 189 840 232 840 m 190 925 q 238 943 221 925 q 256 988 256 961 q 238 1034 256 1017 q 190 1051 219 1051 q 145 1033 164 1051 q 126 989 126 1015 q 145 942 126 960 q 190 925 164 925 z "},"̃":{"ha":0,"x_min":26,"x_max":507,"o":"m 124 836 l 26 853 q 86 973 47 928 q 183 1018 125 1018 q 247 1006 217 1018 q 303 981 276 994 q 351 968 329 968 q 387 983 374 968 q 411 1031 400 997 l 507 1011 q 451 893 485 938 q 361 849 417 849 q 302 862 331 849 q 247 888 274 875 q 194 900 221 900 q 153 885 172 900 q 124 836 135 871 z "},"̄":{"ha":0,"x_min":58,"x_max":510,"o":"m 58 835 l 58 942 l 510 942 l 510 835 l 58 835 z "},"̏":{"ha":0,"x_min":14,"x_max":557,"o":"m 436 856 l 250 1035 l 419 1079 l 557 856 l 436 856 m 200 856 l 14 1035 l 183 1079 l 321 856 l 200 856 z "},"̑":{"ha":0,"x_min":22,"x_max":457,"o":"m 242 1036 q 346 1010 300 1036 q 421 935 392 983 q 457 822 450 886 l 358 822 q 314 895 346 869 q 238 921 282 921 q 163 895 193 921 q 121 822 133 869 l 22 822 q 57 935 28 886 q 134 1010 86 983 q 242 1036 182 1036 z "},"̒":{"ha":0,"x_min":68,"x_max":308,"o":"m 68 763 l 185 1169 l 308 1169 l 239 763 l 68 763 z "},"̦":{"ha":0,"x_min":122,"x_max":303,"o":"m 122 -332 l 168 -68 l 303 -68 l 228 -332 l 122 -332 z "},"̧":{"ha":0,"x_min":61,"x_max":357,"o":"m 188 -318 q 122 -310 154 -318 q 61 -287 90 -303 l 83 -225 q 126 -237 106 -233 q 161 -242 146 -242 q 197 -236 178 -242 q 231 -218 217 -231 q 246 -185 246 -206 q 231 -155 246 -165 q 192 -144 217 -144 q 167 -148 178 -144 q 140 -157 156 -151 l 111 -133 l 200 0 l 292 0 l 233 -97 l 240 -97 q 294 -106 267 -97 q 339 -136 321 -115 q 357 -194 357 -157 q 330 -267 357 -240 q 264 -306 303 -294 q 188 -318 225 -318 z "},"̨":{"ha":0,"x_min":126,"x_max":399,"o":"m 288 -293 q 172 -257 218 -293 q 126 -156 126 -221 q 150 -72 126 -111 q 200 0 174 -33 l 314 0 q 262 -79 278 -50 q 246 -136 246 -108 q 265 -181 246 -164 q 313 -199 283 -199 q 342 -195 326 -199 q 379 -183 357 -192 l 399 -267 q 342 -287 369 -281 q 288 -293 314 -293 z "},"¨":{"ha":522,"x_min":25,"x_max":497,"o":"m 121 871 q 52 897 79 871 q 25 965 25 922 q 52 1033 25 1007 q 121 1058 79 1058 q 189 1033 160 1058 q 218 965 218 1007 q 189 897 218 922 q 121 871 160 871 m 401 871 q 335 897 363 871 q 308 965 308 922 q 335 1032 308 1006 q 401 1058 361 1058 q 471 1033 444 1058 q 497 965 497 1007 q 471 897 497 922 q 401 871 444 871 z "},"˙":{"ha":301,"x_min":46,"x_max":256,"o":"m 150 843 q 76 871 107 843 q 46 943 46 899 q 76 1016 46 989 q 150 1043 106 1043 q 226 1017 196 1043 q 256 943 256 990 q 226 871 256 899 q 150 843 196 843 z "},"`":{"ha":343,"x_min":14,"x_max":321,"o":"m 200 842 l 14 1021 l 183 1065 l 321 842 l 200 842 z "},"´":{"ha":340,"x_min":24,"x_max":328,"o":"m 24 842 l 156 1065 l 328 1021 l 140 842 l 24 842 z "},"˝":{"ha":574,"x_min":14,"x_max":571,"o":"m 263 839 l 417 1068 l 571 1038 l 382 839 l 263 839 m 14 839 l 168 1068 l 322 1040 l 133 839 l 14 839 z "},"ˆ":{"ha":493,"x_min":26,"x_max":465,"o":"m 26 863 l 189 1079 l 303 1079 l 465 863 l 344 863 l 246 967 l 147 863 l 26 863 z "},"ˉ":{"ha":565,"x_min":58,"x_max":510,"o":"m 58 835 l 58 942 l 510 942 l 510 835 l 58 835 z "},"ˇ":{"ha":493,"x_min":18,"x_max":475,"o":"m 189 842 l 18 1061 l 150 1061 l 249 953 l 346 1061 l 475 1061 l 304 842 l 189 842 z "},"˘":{"ha":479,"x_min":22,"x_max":457,"o":"m 239 822 q 133 849 179 822 q 59 925 88 876 q 22 1038 31 974 l 122 1038 q 166 964 135 989 q 243 939 197 939 q 317 964 286 939 q 360 1038 347 989 l 457 1038 q 422 925 451 974 q 346 849 393 876 q 239 822 299 822 z "},"˚":{"ha":382,"x_min":40,"x_max":342,"o":"m 189 840 q 116 860 150 840 q 61 913 82 879 q 40 988 40 946 q 61 1064 40 1031 q 116 1117 82 1097 q 189 1136 150 1136 q 265 1116 231 1136 q 321 1063 300 1096 q 342 986 342 1029 q 321 912 342 944 q 266 860 300 879 q 189 840 232 840 m 190 925 q 238 943 221 925 q 256 988 256 961 q 238 1034 256 1017 q 190 1051 219 1051 q 145 1033 164 1051 q 126 989 126 1015 q 145 942 126 960 q 190 925 164 925 z "},"˜":{"ha":533,"x_min":26,"x_max":507,"o":"m 124 836 l 26 853 q 86 973 47 928 q 183 1018 125 1018 q 247 1006 217 1018 q 303 981 276 994 q 351 968 329 968 q 387 983 374 968 q 411 1031 400 997 l 507 1011 q 451 893 485 938 q 361 849 417 849 q 302 862 331 849 q 247 888 274 875 q 194 900 221 900 q 153 885 172 900 q 124 836 135 871 z "},"¯":{"ha":565,"x_min":58,"x_max":510,"o":"m 58 835 l 58 942 l 510 942 l 510 835 l 58 835 z "},"¸":{"ha":425,"x_min":61,"x_max":357,"o":"m 188 -318 q 122 -310 154 -318 q 61 -287 90 -303 l 83 -225 q 126 -237 106 -233 q 161 -242 146 -242 q 197 -236 178 -242 q 231 -218 217 -231 q 246 -185 246 -206 q 231 -155 246 -165 q 192 -144 217 -144 q 167 -148 178 -144 q 140 -157 156 -151 l 111 -133 l 200 0 l 292 0 l 233 -97 l 240 -97 q 294 -106 267 -97 q 339 -136 321 -115 q 357 -194 357 -157 q 330 -267 357 -240 q 264 -306 303 -294 q 188 -318 225 -318 z "}}}
